<svg width="85" height="19" viewBox="0 0 85 19" fill="none" xmlns="http://www.w3.org/2000/svg">
<path d="M27 16.295V6.23499H32.587L33.217 8.93299H30.182V9.92999H32.161V12.438H30.182V13.508H33.438L32.792 16.294L27 16.295Z" fill="#FDF229"/>
<path d="M34.614 6.23498H37.693L40.611 11.045H40.64V6.23498L43.69 6.00098V16.295H40.699L37.693 11.441H37.664V16.295L34.614 16.529V6.23498Z" fill="#FDF229"/>
<path d="M52.129 9.62298C51.586 9.18298 51.015 8.96298 50.34 8.96298C48.991 8.96298 48.155 10.019 48.155 11.339C48.155 12.57 48.887 13.568 50.164 13.568C50.428 13.568 50.574 13.553 50.765 13.524V12.571H49.255L49.812 10.284H53.845V15.665C52.731 16.223 51.63 16.53 50.12 16.53C46.996 16.53 44.973 14.184 44.973 11.104C44.973 8.83198 46.865 6.00098 50.413 6.00098C52.1 6.00098 53.126 6.68998 53.801 7.11498L52.129 9.62298Z" fill="#FDF229"/>
<path d="M55.33 16.295V6.23498L58.512 6.00098V13.333H61.988L61.313 16.295H55.33Z" fill="#FDF229"/>
<path d="M66.228 6.00098V16.295L63.046 16.529V6.23498L66.228 6.00098Z" fill="#FDF229"/>
<path d="M74.386 9.153C73.74 8.963 72.875 8.787 72.23 8.787C71.703 8.787 70.984 8.787 70.984 9.301C70.984 10.092 74.958 10.033 74.958 13.157C74.958 15.371 73.242 16.529 70.412 16.529C69.415 16.529 68.756 16.397 67.905 16.236V13.362C68.741 13.538 69.62 13.655 70.412 13.655C71.248 13.655 71.644 13.509 71.644 13.113C71.644 12.145 67.802 12.511 67.802 9.3C67.802 7.114 69.473 6 71.717 6C72.626 6 73.638 6.103 74.386 6.264V9.153Z" fill="#FDF229"/>
<path d="M76.398 16.529V6.23498L79.58 6.00098V9.66698H81.486V6.23498L84.669 6.00098V16.295L81.486 16.529V12.541H79.58V16.295L76.398 16.529Z" fill="#FDF229"/>
<path d="M0 3V18.822H15.822V3H0ZM13.663 16.663H2.15799V5.158H13.663V16.663Z" fill="url(#paint0_linear_88_194)"/>
<path d="M1 10.707C1 10.707 7.12401 14.901 8.38501 16.478C8.38501 16.478 14.203 9.249 19.248 6.744V1C19.248 1 13.783 3.264 8.356 12.952L5.31801 8.337L1 10.707Z" fill="white" stroke="black" stroke-width="0.5" stroke-miterlimit="10"/>
<defs>
<linearGradient id="paint0_linear_88_194" x1="7.9105" y1="18.8214" x2="7.9105" y2="2.9998" gradientUnits="userSpaceOnUse">
<stop stop-color="#FFFA96"/>
<stop offset="1" stop-color="#FFF200"/>
</linearGradient>
</defs>
</svg>
