<svg width="85" height="16" viewBox="0 0 85 16" fill="none" xmlns="http://www.w3.org/2000/svg">
<path d="M27 13.295V3.23499H32.587L33.217 5.93299H30.182V6.92999H32.161V9.43798H30.182V10.508H33.438L32.792 13.294L27 13.295Z" fill="#FDF229"/>
<path d="M34.614 3.23498H37.693L40.611 8.04498H40.64V3.23498L43.69 3.00098V13.295H40.699L37.693 8.44098H37.664V13.295L34.614 13.529V3.23498Z" fill="#FDF229"/>
<path d="M52.129 6.62298C51.586 6.18298 51.015 5.96298 50.34 5.96298C48.991 5.96298 48.155 7.01898 48.155 8.33898C48.155 9.56998 48.887 10.568 50.164 10.568C50.428 10.568 50.574 10.553 50.765 10.524V9.57098H49.255L49.812 7.28398H53.845V12.665C52.731 13.223 51.63 13.53 50.12 13.53C46.996 13.53 44.973 11.184 44.973 8.10398C44.973 5.83198 46.865 3.00098 50.413 3.00098C52.1 3.00098 53.126 3.68998 53.801 4.11498L52.129 6.62298Z" fill="#FDF229"/>
<path d="M55.33 13.295V3.23498L58.512 3.00098V10.333H61.988L61.313 13.295H55.33Z" fill="#FDF229"/>
<path d="M66.228 3.00098V13.295L63.046 13.529V3.23498L66.228 3.00098Z" fill="#FDF229"/>
<path d="M74.386 6.153C73.74 5.963 72.875 5.787 72.23 5.787C71.703 5.787 70.984 5.787 70.984 6.301C70.984 7.092 74.958 7.033 74.958 10.157C74.958 12.371 73.242 13.529 70.412 13.529C69.415 13.529 68.756 13.397 67.905 13.236V10.362C68.741 10.538 69.62 10.655 70.412 10.655C71.248 10.655 71.644 10.509 71.644 10.113C71.644 9.145 67.802 9.511 67.802 6.3C67.802 4.114 69.473 3 71.717 3C72.626 3 73.638 3.103 74.386 3.264V6.153Z" fill="#FDF229"/>
<path d="M76.398 13.529V3.23498L79.58 3.00098V6.66698H81.486V3.23498L84.669 3.00098V13.295L81.486 13.529V9.54098H79.58V13.295L76.398 13.529Z" fill="#FDF229"/>
<path d="M0 0V15.822H15.822V0H0ZM13.663 13.663H2.15799V2.158H13.663V13.663Z" fill="url(#paint0_linear_88_137)"/>
<defs>
<linearGradient id="paint0_linear_88_137" x1="7.9105" y1="15.8214" x2="7.9105" y2="-0.000199925" gradientUnits="userSpaceOnUse">
<stop stop-color="#FFFA96"/>
<stop offset="1" stop-color="#FFF200"/>
</linearGradient>
</defs>
</svg>
