<svg width="68" height="21" viewBox="0 0 68 21" fill="none" xmlns="http://www.w3.org/2000/svg">
<path d="M57.853 20.305H9.90302C4.43402 20.305 0 15.871 0 10.402V9.903C0 4.434 4.43402 0 9.90302 0H57.853C63.322 0 67.756 4.434 67.756 9.903V10.402C67.756 15.872 63.322 20.305 57.853 20.305Z" fill="#CF1C0A"/>
<path d="M42.803 14.151L43.539 5.27197L46.089 5.28497L45.353 14.164L42.803 14.151Z" stroke="#0066A8" stroke-width="1.4194"/>
<path d="M50.506 15.1399L50.517 14.1129H50.491C50.181 14.9269 49.47 15.2289 48.579 15.2189C47.413 15.2069 46.62 14.5179 46.633 13.2689L46.681 8.61695L49.225 8.44495L49.183 12.5409C49.179 12.8999 49.348 13.0379 49.715 13.0409C50.029 13.0439 50.24 12.9229 50.244 12.5639L50.284 8.65395L52.828 8.48195L52.76 15.0649L50.506 15.1399Z" stroke="#0066A8" stroke-width="1.4194"/>
<path d="M56.609 5.90397L56.338 8.72497C56.844 8.52497 57.199 8.39697 57.903 8.46497C59.768 8.64397 60.952 10.436 60.794 12.087C60.581 14.304 58.768 15.361 56.903 15.181C54.738 14.973 53.32 13.556 53.523 11.45L54.06 5.85797L56.609 5.90397ZM56.973 12.801C57.573 12.859 58.022 12.429 58.074 11.887C58.126 11.345 57.767 10.838 57.167 10.78C56.554 10.721 56.105 11.15 56.053 11.692C56.001 12.235 56.36 12.742 56.973 12.801Z" stroke="#0066A8" stroke-width="1.4194"/>
<path d="M41.57 8.66497C41.302 8.57397 41.041 8.51497 40.788 8.48797C40.535 8.46097 40.289 8.46397 40.051 8.49697C39.436 8.58197 38.956 8.83597 38.612 9.26097C38.268 9.68497 38.136 10.193 38.217 10.783C38.3 11.386 38.567 11.842 39.019 12.153C39.471 12.464 40.025 12.574 40.682 12.484C40.945 12.448 41.194 12.38 41.428 12.279C41.661 12.179 41.881 12.043 42.088 11.87L42.101 14.706C41.878 14.786 41.656 14.855 41.436 14.912C41.216 14.969 40.999 15.012 40.786 15.042C39.372 15.237 38.166 14.976 37.168 14.26C36.17 13.544 35.579 12.515 35.394 11.172C35.302 10.501 35.332 9.87197 35.486 9.28597C35.64 8.69997 35.916 8.16997 36.316 7.69397C36.688 7.23897 37.135 6.86897 37.657 6.58497C38.178 6.30097 38.747 6.11697 39.362 6.03197C39.642 5.99297 39.9 5.97397 40.134 5.97197C40.368 5.97097 40.594 5.98797 40.812 6.02397L41.57 8.66497Z" stroke="#0066A8" stroke-width="1.4194"/>
<path d="M7.81 14.374L8.828 5.43799L11.95 5.79399C13.028 5.91699 13.842 6.28499 14.391 6.89799C14.941 7.51099 15.161 8.29599 15.052 9.25399C14.949 10.158 14.544 10.861 13.838 11.365C13.132 11.868 12.269 12.062 11.249 11.946C11.162 11.936 11.097 11.928 11.053 11.921C11.01 11.914 10.97 11.906 10.933 11.898L10.645 14.429L7.81 14.374ZM11.392 7.87099L11.173 9.79299L11.285 9.80599C11.612 9.84299 11.867 9.78899 12.05 9.64399C12.232 9.49899 12.342 9.26699 12.378 8.94799C12.413 8.63699 12.357 8.39099 12.21 8.21099C12.063 8.02999 11.827 7.92199 11.504 7.88499L11.392 7.87099Z" stroke="#0066A8" stroke-width="1.4194"/>
<path d="M15.71 10.425L15.992 8.591C16.438 8.448 16.856 8.332 17.247 8.243C17.638 8.154 17.999 8.091 18.331 8.053C19.351 7.937 20.093 8.034 20.556 8.344C21.02 8.654 21.301 9.239 21.399 10.097L21.892 14.419L19.494 14.882L19.41 14.148C19.148 14.43 18.879 14.647 18.603 14.801C18.326 14.954 18.035 15.049 17.728 15.084C17.077 15.158 16.518 15.005 16.05 14.623C15.582 14.242 15.31 13.713 15.233 13.037C15.16 12.394 15.317 11.848 15.704 11.399C16.092 10.95 16.634 10.685 17.33 10.605C17.599 10.574 17.864 10.583 18.124 10.631C18.383 10.679 18.643 10.768 18.901 10.898L18.858 10.519C18.826 10.241 18.705 10.047 18.495 9.937C18.285 9.827 17.975 9.795 17.564 9.842C17.311 9.871 17.033 9.933 16.729 10.029C16.425 10.124 16.085 10.256 15.71 10.425ZM17.9 12.67C17.921 12.857 17.992 12.999 18.112 13.096C18.232 13.194 18.384 13.232 18.566 13.211C18.736 13.192 18.872 13.117 18.975 12.988C19.078 12.859 19.119 12.707 19.099 12.533C19.078 12.351 19.006 12.211 18.881 12.114C18.757 12.017 18.605 11.978 18.427 11.999C18.249 12.019 18.111 12.091 18.014 12.213C17.918 12.335 17.879 12.487 17.9 12.67Z" stroke="#0066A8" stroke-width="1.4194"/>
<path d="M25.282 14.988L22.683 14.947L23.782 5.78101L26.376 5.85901L25.282 14.988Z" stroke="#0066A8" stroke-width="1.4194"/>
<path d="M26.562 12.328C26.646 12.361 26.767 12.411 26.926 12.476C27.45 12.697 27.807 12.821 27.997 12.849C28.236 12.884 28.443 12.87 28.617 12.807C28.791 12.744 28.886 12.655 28.903 12.539C28.921 12.419 28.786 12.29 28.498 12.151C28.407 12.108 28.336 12.075 28.285 12.05C27.672 11.741 27.26 11.426 27.048 11.106C26.836 10.786 26.764 10.391 26.833 9.92001C26.932 9.24301 27.264 8.75301 27.827 8.45001C28.39 8.14701 29.124 8.06201 30.028 8.19501C30.305 8.23601 30.595 8.29701 30.899 8.38001C31.203 8.46301 31.519 8.56401 31.848 8.68401L31.55 10.715C31.281 10.625 31.034 10.55 30.811 10.489C30.588 10.429 30.39 10.386 30.216 10.36C29.985 10.326 29.807 10.328 29.683 10.367C29.559 10.406 29.489 10.481 29.473 10.592C29.452 10.732 29.603 10.873 29.924 11.013C30.067 11.076 30.179 11.129 30.262 11.17C30.789 11.429 31.149 11.713 31.342 12.021C31.535 12.33 31.597 12.718 31.529 13.184C31.425 13.89 31.082 14.409 30.5 14.741C29.918 15.073 29.172 15.172 28.264 15.039C27.938 14.991 27.608 14.917 27.275 14.818C26.942 14.718 26.6 14.594 26.251 14.446L26.562 12.328Z" stroke="#0066A8" stroke-width="1.4194"/>
<path d="M42.803 14.151L43.539 5.27197L46.089 5.28497L45.353 14.164L42.803 14.151Z" fill="#FFF100" stroke="white" stroke-width="0.1774" stroke-miterlimit="10"/>
<path d="M50.506 15.1399L50.517 14.1129H50.491C50.181 14.9269 49.47 15.2289 48.579 15.2189C47.413 15.2069 46.62 14.5179 46.633 13.2689L46.681 8.61695L49.225 8.44495L49.183 12.5409C49.179 12.8999 49.348 13.0379 49.715 13.0409C50.029 13.0439 50.24 12.9229 50.244 12.5639L50.284 8.65395L52.828 8.48195L52.76 15.0649L50.506 15.1399Z" fill="#FFF100" stroke="white" stroke-width="0.1774" stroke-miterlimit="10"/>
<path d="M56.609 5.90397L56.338 8.72497C56.844 8.52497 57.199 8.39697 57.903 8.46497C59.768 8.64397 60.952 10.436 60.794 12.087C60.581 14.304 58.768 15.361 56.903 15.181C54.738 14.973 53.32 13.556 53.523 11.45L54.06 5.85797L56.609 5.90397ZM56.973 12.801C57.573 12.859 58.022 12.429 58.074 11.887C58.126 11.345 57.767 10.838 57.167 10.78C56.554 10.721 56.105 11.15 56.053 11.692C56.001 12.235 56.36 12.742 56.973 12.801Z" fill="#FFF100" stroke="white" stroke-width="0.1774" stroke-miterlimit="10"/>
<path d="M41.57 8.66497C41.302 8.57397 41.041 8.51497 40.788 8.48797C40.535 8.46097 40.289 8.46397 40.051 8.49697C39.436 8.58197 38.956 8.83597 38.612 9.26097C38.268 9.68497 38.136 10.193 38.217 10.783C38.3 11.386 38.567 11.842 39.019 12.153C39.471 12.464 40.025 12.574 40.682 12.484C40.945 12.448 41.194 12.38 41.428 12.279C41.661 12.179 41.881 12.043 42.088 11.87L42.101 14.706C41.878 14.786 41.656 14.855 41.436 14.912C41.216 14.969 40.999 15.012 40.786 15.042C39.372 15.237 38.166 14.976 37.168 14.26C36.17 13.544 35.579 12.515 35.394 11.172C35.302 10.501 35.332 9.87197 35.486 9.28597C35.64 8.69997 35.916 8.16997 36.316 7.69397C36.688 7.23897 37.135 6.86897 37.657 6.58497C38.178 6.30097 38.747 6.11697 39.362 6.03197C39.642 5.99297 39.9 5.97397 40.134 5.97197C40.368 5.97097 40.594 5.98797 40.812 6.02397L41.57 8.66497Z" fill="#FFF100" stroke="white" stroke-width="0.1774" stroke-miterlimit="10"/>
<path d="M7.81 14.374L8.828 5.43799L11.95 5.79399C13.028 5.91699 13.842 6.28499 14.391 6.89799C14.941 7.51099 15.161 8.29599 15.052 9.25399C14.949 10.158 14.544 10.861 13.838 11.365C13.132 11.868 12.269 12.062 11.249 11.946C11.162 11.936 11.097 11.928 11.053 11.921C11.01 11.914 10.97 11.906 10.933 11.898L10.645 14.429L7.81 14.374ZM11.392 7.87099L11.173 9.79299L11.285 9.80599C11.612 9.84299 11.867 9.78899 12.05 9.64399C12.232 9.49899 12.342 9.26699 12.378 8.94799C12.413 8.63699 12.357 8.39099 12.21 8.21099C12.063 8.02999 11.827 7.92199 11.504 7.88499L11.392 7.87099Z" fill="#FFF100" stroke="white" stroke-width="0.2549" stroke-miterlimit="10"/>
<path d="M15.71 10.425L15.992 8.591C16.438 8.448 16.856 8.332 17.247 8.243C17.638 8.154 17.999 8.091 18.331 8.053C19.351 7.937 20.093 8.034 20.556 8.344C21.02 8.654 21.301 9.239 21.399 10.097L21.892 14.419L19.494 14.882L19.41 14.148C19.148 14.43 18.879 14.647 18.603 14.801C18.326 14.954 18.035 15.049 17.728 15.084C17.077 15.158 16.518 15.005 16.05 14.623C15.582 14.242 15.31 13.713 15.233 13.037C15.16 12.394 15.317 11.848 15.704 11.399C16.092 10.95 16.634 10.685 17.33 10.605C17.599 10.574 17.864 10.583 18.124 10.631C18.383 10.679 18.643 10.768 18.901 10.898L18.858 10.519C18.826 10.241 18.705 10.047 18.495 9.937C18.285 9.827 17.975 9.795 17.564 9.842C17.311 9.871 17.033 9.933 16.729 10.029C16.425 10.124 16.085 10.256 15.71 10.425ZM17.9 12.67C17.921 12.857 17.992 12.999 18.112 13.096C18.232 13.194 18.384 13.232 18.566 13.211C18.736 13.192 18.872 13.117 18.975 12.988C19.078 12.859 19.119 12.707 19.099 12.533C19.078 12.351 19.006 12.211 18.881 12.114C18.757 12.017 18.605 11.978 18.427 11.999C18.249 12.019 18.111 12.091 18.014 12.213C17.918 12.335 17.879 12.487 17.9 12.67Z" fill="#FFF100" stroke="white" stroke-width="0.2549" stroke-miterlimit="10"/>
<path d="M25.282 14.988L22.683 14.947L23.782 5.78101L26.376 5.85901L25.282 14.988Z" fill="#FFF100" stroke="white" stroke-width="0.2549" stroke-miterlimit="10"/>
<path d="M26.562 12.328C26.646 12.361 26.767 12.411 26.926 12.476C27.45 12.697 27.807 12.821 27.997 12.849C28.236 12.884 28.443 12.87 28.617 12.807C28.791 12.744 28.886 12.655 28.903 12.539C28.921 12.419 28.786 12.29 28.498 12.151C28.407 12.108 28.336 12.075 28.285 12.05C27.672 11.741 27.26 11.426 27.048 11.106C26.836 10.786 26.764 10.391 26.833 9.92001C26.932 9.24301 27.264 8.75301 27.827 8.45001C28.39 8.14701 29.124 8.06201 30.028 8.19501C30.305 8.23601 30.595 8.29701 30.899 8.38001C31.203 8.46301 31.519 8.56401 31.848 8.68401L31.55 10.715C31.281 10.625 31.034 10.55 30.811 10.489C30.588 10.429 30.39 10.386 30.216 10.36C29.985 10.326 29.807 10.328 29.683 10.367C29.559 10.406 29.489 10.481 29.473 10.592C29.452 10.732 29.603 10.873 29.924 11.013C30.067 11.076 30.179 11.129 30.262 11.17C30.789 11.429 31.149 11.713 31.342 12.021C31.535 12.33 31.597 12.718 31.529 13.184C31.425 13.89 31.082 14.409 30.5 14.741C29.918 15.073 29.172 15.172 28.264 15.039C27.938 14.991 27.608 14.917 27.275 14.818C26.942 14.718 26.6 14.594 26.251 14.446L26.562 12.328Z" fill="#FFF100" stroke="white" stroke-width="0.2549" stroke-miterlimit="10"/>
</svg>
