<svg width="53" height="23" viewBox="0 0 53 23" fill="none" xmlns="http://www.w3.org/2000/svg">
<path fill-rule="evenodd" clip-rule="evenodd" d="M47.37 7.79199C48.284 13.64 39.563 19.861 27.889 21.686C16.215 23.511 6.01103 20.25 5.09603 14.402C4.18203 8.55299 12.903 2.33199 24.577 0.506992C36.251 -1.31901 46.455 1.94299 47.37 7.79199Z" fill="#0D478E"/>
<path d="M51.428 11.165L51.848 11.294L52.411 6.71298L51.709 6.47598C51.235 6.31598 50.774 6.17998 50.337 6.07198C49.889 5.96198 49.453 5.87998 49.041 5.82898C47.614 5.65398 46.423 5.83498 45.502 6.36298C45.445 6.39598 45.388 6.42998 45.333 6.46498L45.392 3.07998L40.055 3.46398L39.97 8.36798C39.214 7.79798 38.095 7.51898 36.556 7.51898C36.113 7.51898 35.626 7.54898 35.115 7.60198C34.876 6.18698 34.216 5.09998 33.151 4.36698C32.05 3.60498 30.637 3.32198 28.952 3.52798L23.814 4.15898L24.2 7.29898C23.841 7.14498 23.443 7.06498 23.005 7.06498C22.926 7.06498 22.819 7.06998 22.658 7.08098L22.23 6.77098C21.881 6.51898 21.522 6.32698 21.173 6.20298C20.797 6.06598 20.413 5.99598 20.031 5.99598C19.209 5.99598 18.515 6.22398 17.968 6.67398C17.706 6.88998 17.502 7.13998 17.353 7.41698L17.471 4.03498L11.962 3.49398L11.684 12.581C11.668 13.055 11.568 13.221 11.529 13.276C11.529 13.276 11.508 13.285 11.452 13.285H11.431C11.398 13.283 11.327 13.277 11.207 13.247C10.729 13.105 10.362 12.948 10.225 12.886L9.108 12.385L8.707 8.56498L11.128 8.31098L10.573 3.02698L0.70401 4.06398L0 9.47998L3.09399 9.15498L4.02402 18.001L8.89001 16.992L8.86801 18.323L9.52802 18.52C9.53902 18.523 10.6 18.838 11.103 18.903C11.443 18.947 11.679 18.956 11.805 18.959L11.834 18.96C11.94 18.963 12.044 18.965 12.146 18.965C13.67 18.965 14.867 18.553 15.701 17.74C16.508 16.954 16.975 15.802 17.097 14.318C17.14 14.358 17.181 14.402 17.226 14.44C17.926 15.029 18.879 15.327 20.061 15.327C21.034 15.327 21.848 15.103 22.476 14.662C23.144 14.196 23.522 13.554 23.577 12.796C24.034 12.683 24.442 12.475 24.797 12.173L25.534 18.178L31.079 16.955L31.002 16.331C31.189 16.795 31.459 17.213 31.816 17.581C32.563 18.343 33.519 18.729 34.659 18.729C35.173 18.729 35.678 18.632 36.163 18.44V18.802L41.289 18.407V17.711L45.14 17.378L45.153 16.688C45.155 16.689 45.158 16.69 45.16 16.69C45.658 16.826 46.157 16.924 46.643 16.984C46.981 17.025 47.31 17.047 47.62 17.047C48.634 17.047 49.518 16.823 50.243 16.384C51.261 15.774 51.878 14.801 52.029 13.568C52.134 12.712 51.985 11.977 51.594 11.394C51.546 11.318 51.489 11.241 51.428 11.165Z" fill="#C80000"/>
<path fill-rule="evenodd" clip-rule="evenodd" d="M11.867 17.933C11.74 17.93 11.532 17.924 11.229 17.884C10.825 17.831 9.81798 17.536 9.80798 17.533L9.92197 13.785C10.139 13.878 10.496 14.019 10.942 14.151C11.108 14.194 11.259 14.218 11.395 14.224C11.397 14.224 11.398 14.224 11.4 14.224C11.827 14.224 12.117 14.085 12.319 13.814C12.53 13.538 12.647 13.12 12.667 12.573L12.912 4.53296L16.455 4.88096L16.143 13.796C16.092 15.237 15.712 16.313 15.013 16.992C14.369 17.62 13.405 17.937 12.146 17.937L11.867 17.933Z" fill="#FFF100"/>
<path d="M12.985 4.61599L16.377 4.94899L16.068 13.793C16.018 15.214 15.646 16.272 14.962 16.938C14.332 17.552 13.384 17.863 12.147 17.863C12.056 17.863 11.964 17.861 11.837 17.857C11.728 17.853 11.526 17.847 11.239 17.809C10.927 17.768 10.231 17.577 9.93896 17.493L9.99799 13.898C10.219 13.989 10.54 14.11 10.926 14.225C11.099 14.27 11.256 14.295 11.393 14.3L11.452 14.301C11.849 14.301 12.161 14.153 12.378 13.861C12.599 13.571 12.722 13.139 12.742 12.575L12.985 4.61599ZM12.84 4.45099L12.592 12.57C12.573 13.104 12.462 13.503 12.259 13.769C12.07 14.022 11.802 14.15 11.452 14.15C11.434 14.15 11.417 14.15 11.399 14.149C11.272 14.145 11.127 14.121 10.964 14.079C10.448 13.927 10.043 13.757 9.85199 13.671L9.78796 17.604C9.88296 17.632 10.828 17.906 11.22 17.957C11.545 17.999 11.762 18.003 11.865 18.007C11.961 18.01 12.055 18.012 12.147 18.012C13.431 18.012 14.404 17.689 15.067 17.044C15.783 16.347 16.167 15.265 16.219 13.797L16.533 4.81199L12.84 4.45099Z" fill="white"/>
<path fill-rule="evenodd" clip-rule="evenodd" d="M20.061 14.301C19.118 14.301 18.377 14.08 17.859 13.645C17.346 13.209 17.087 12.593 17.087 11.813C17.087 11.32 17.217 10.884 17.474 10.518C17.73 10.149 18.092 9.87795 18.552 9.71495C18.577 9.70595 18.596 9.68395 18.601 9.65595C18.605 9.62995 18.594 9.60195 18.573 9.58495C18.397 9.44795 18.267 9.29495 18.177 9.11795C18.093 8.94495 18.05 8.74895 18.05 8.53395C18.05 8.06595 18.228 7.69295 18.595 7.39095C18.961 7.08895 19.445 6.93695 20.032 6.93695C20.299 6.93695 20.569 6.98695 20.837 7.08395C21.089 7.17295 21.346 7.30795 21.6 7.48595L20.814 8.83995C20.744 8.79095 20.675 8.75195 20.61 8.72395C20.528 8.68595 20.451 8.66595 20.382 8.66595C20.253 8.66595 20.143 8.70195 20.055 8.77295C19.966 8.85095 19.922 8.94695 19.922 9.05995C19.922 9.16595 19.963 9.25495 20.044 9.32495C20.127 9.38695 20.238 9.42695 20.381 9.44795L20.32 10.6259H20.27C19.964 10.6259 19.717 10.71 19.536 10.874C19.351 11.037 19.258 11.258 19.258 11.5319C19.258 11.7809 19.337 11.99 19.492 12.151C19.652 12.311 19.857 12.392 20.102 12.392C20.271 12.392 20.409 12.355 20.51 12.283C20.625 12.205 20.684 12.102 20.684 11.978C20.684 11.865 20.635 11.774 20.543 11.713C20.465 11.657 20.353 11.629 20.203 11.629C20.185 11.629 20.17 11.629 20.156 11.63L20.856 10.403C20.871 10.407 20.889 10.408 20.911 10.408C20.969 10.408 21.046 10.397 21.123 10.389C21.229 10.376 21.334 10.37 21.439 10.37C21.552 10.37 21.688 10.375 21.844 10.385C22.008 10.396 22.116 10.401 22.168 10.401C22.366 10.401 22.52 10.366 22.634 10.293C22.756 10.211 22.821 10.093 22.821 9.95095C22.821 9.78495 22.753 9.65995 22.618 9.57795C22.495 9.49995 22.316 9.46095 22.072 9.46095C22.016 9.46095 21.954 9.46395 21.887 9.47195C21.872 9.47195 21.858 9.47295 21.842 9.47395L22.699 7.98795C22.799 8.00395 22.878 8.00595 22.936 8.00595C22.962 8.00595 22.985 8.00595 23.003 8.00595C23.547 8.00595 23.996 8.17795 24.339 8.51695C24.684 8.85495 24.858 9.29695 24.858 9.82995C24.858 10.417 24.657 10.909 24.259 11.292C23.86 11.674 23.343 11.868 22.725 11.868H22.557C22.533 11.868 22.51 11.88 22.496 11.899C22.481 11.919 22.477 11.944 22.485 11.966C22.525 12.086 22.552 12.195 22.569 12.294C22.589 12.39 22.598 12.476 22.598 12.555C22.598 13.077 22.373 13.489 21.91 13.811C21.449 14.137 20.827 14.301 20.061 14.301Z" fill="#FFF100"/>
<path d="M20.031 7.01298C20.289 7.01298 20.551 7.06098 20.811 7.15598C21.037 7.23598 21.268 7.35498 21.498 7.50898L20.787 8.73398C20.736 8.70198 20.686 8.67598 20.639 8.65498C20.544 8.61198 20.459 8.59098 20.379 8.59098C20.233 8.59098 20.107 8.63298 20.002 8.71898C19.899 8.80798 19.844 8.92598 19.844 9.06098C19.844 9.18898 19.896 9.30098 20 9.38898C20.063 9.43598 20.142 9.47198 20.239 9.49798V10.553C19.928 10.558 19.674 10.648 19.485 10.818C19.283 10.996 19.18 11.237 19.18 11.533C19.18 11.802 19.266 12.028 19.437 12.206C19.611 12.38 19.834 12.468 20.1 12.468C20.284 12.468 20.436 12.426 20.549 12.346C20.721 12.23 20.757 12.082 20.757 11.979C20.757 11.84 20.697 11.727 20.587 11.654C20.51 11.599 20.409 11.568 20.282 11.558L20.886 10.501C20.967 10.485 21.048 10.474 21.132 10.466C21.234 10.453 21.336 10.447 21.438 10.447C21.55 10.447 21.684 10.452 21.839 10.462C22.005 10.472 22.115 10.477 22.167 10.477C22.381 10.477 22.546 10.438 22.675 10.356C22.818 10.261 22.894 10.121 22.894 9.95298C22.894 9.76198 22.811 9.61098 22.658 9.51798C22.521 9.42998 22.329 9.38798 22.07 9.38798C22.04 9.38798 22.008 9.38898 21.976 9.39098L22.724 8.09598C22.854 8.08698 22.947 8.08198 23.003 8.08198C23.534 8.08198 23.953 8.24198 24.286 8.57098C24.62 8.89898 24.783 9.31198 24.783 9.83198C24.783 10.406 24.594 10.866 24.206 11.238C23.821 11.607 23.323 11.794 22.724 11.794H22.556C22.508 11.794 22.463 11.817 22.434 11.856C22.406 11.895 22.398 11.945 22.413 11.991C22.45 12.104 22.478 12.211 22.495 12.313C22.513 12.402 22.522 12.484 22.522 12.557C22.522 13.053 22.308 13.443 21.867 13.751C21.418 14.066 20.81 14.226 20.058 14.226C19.133 14.226 18.409 14.011 17.905 13.588C17.402 13.161 17.157 12.58 17.157 11.812C17.157 11.336 17.283 10.915 17.531 10.56C17.778 10.204 18.128 9.94298 18.572 9.78498C18.624 9.76698 18.661 9.72198 18.67 9.66798C18.679 9.61398 18.657 9.55898 18.614 9.52598C18.45 9.39798 18.324 9.24998 18.241 9.08698C18.16 8.91998 18.12 8.73998 18.12 8.53498C18.12 8.09098 18.289 7.73598 18.638 7.44998C18.993 7.15998 19.461 7.01298 20.031 7.01298ZM20.031 6.86298C19.423 6.86298 18.928 7.01998 18.546 7.33398C18.164 7.64798 17.974 8.04798 17.974 8.53498C17.974 8.76098 18.019 8.96698 18.11 9.15298C18.205 9.33898 18.343 9.50198 18.526 9.64398C18.05 9.81298 17.678 10.09 17.412 10.475C17.145 10.857 17.011 11.302 17.011 11.812C17.011 12.62 17.278 13.249 17.812 13.702C18.346 14.151 19.096 14.375 20.062 14.375C20.849 14.375 21.48 14.208 21.957 13.873C22.436 13.539 22.676 13.1 22.676 12.556C22.676 12.472 22.666 12.381 22.646 12.282C22.629 12.181 22.6 12.068 22.559 11.943H22.727C23.368 11.943 23.897 11.744 24.313 11.345C24.728 10.946 24.936 10.441 24.936 9.82998C24.936 9.27298 24.755 8.81698 24.394 8.46198C24.036 8.10698 23.573 7.92998 23.006 7.92998C22.945 7.92998 22.842 7.93498 22.697 7.94498C22.67 7.94798 22.65 7.94998 22.636 7.94998L21.704 9.56598C21.771 9.55598 21.836 9.54898 21.896 9.54598C21.96 9.53898 22.019 9.53598 22.073 9.53598C22.299 9.53598 22.468 9.57098 22.58 9.64198C22.691 9.70998 22.747 9.81198 22.747 9.95098C22.747 10.069 22.697 10.162 22.595 10.229C22.494 10.293 22.352 10.325 22.17 10.325C22.119 10.325 22.013 10.32 21.851 10.31C21.692 10.3 21.555 10.295 21.44 10.295C21.332 10.295 21.224 10.302 21.116 10.315C21.008 10.325 20.9 10.342 20.792 10.366L20.022 11.713C20.045 11.71 20.069 11.708 20.093 11.708C20.117 11.705 20.154 11.703 20.205 11.703C20.336 11.704 20.436 11.727 20.504 11.774C20.575 11.821 20.61 11.889 20.61 11.976C20.61 12.074 20.563 12.155 20.468 12.219C20.377 12.284 20.256 12.315 20.103 12.315C19.877 12.315 19.691 12.242 19.546 12.097C19.404 11.949 19.333 11.76 19.333 11.53C19.333 11.277 19.418 11.076 19.587 10.927C19.756 10.775 19.984 10.699 20.271 10.699H20.393V9.37198C20.261 9.35198 20.161 9.31598 20.094 9.26598C20.03 9.21198 19.998 9.14298 19.998 9.05798C19.998 8.96698 20.034 8.89098 20.104 8.82998C20.179 8.76898 20.271 8.73898 20.383 8.73898C20.44 8.73898 20.506 8.75598 20.581 8.78998C20.658 8.82398 20.745 8.87598 20.839 8.94698L21.7 7.46198C21.42 7.25998 21.141 7.10898 20.864 7.01098C20.584 6.91398 20.307 6.86298 20.031 6.86298Z" fill="white"/>
<path fill-rule="evenodd" clip-rule="evenodd" d="M41.024 4.33697L44.3889 4.09497L44.2449 12.348L44.394 12.47C44.533 12.54 44.6989 12.623 44.8289 12.673C45.5589 12.96 46.045 13.115 46.313 13.149C46.415 13.162 46.5119 13.168 46.6049 13.168C46.8209 13.168 47.0179 13.135 47.1899 13.068C47.4509 12.966 47.5939 12.82 47.6159 12.633C47.6409 12.432 47.4439 12.238 47.0119 12.041L46.7769 11.937C45.8929 11.518 45.3259 11.11 45.0349 10.699C44.7529 10.288 44.6469 9.76397 44.7229 9.14297C44.8329 8.24897 45.258 7.58697 45.989 7.17497C46.534 6.86297 47.2179 6.70397 48.0229 6.70397C48.3069 6.70397 48.6069 6.72397 48.9229 6.76197C49.2949 6.80797 49.6929 6.88197 50.1039 6.98397C50.5179 7.08597 50.948 7.21297 51.395 7.36497L51.0169 9.96397C50.6789 9.86097 50.369 9.77597 50.085 9.70997C49.778 9.63297 49.505 9.57797 49.266 9.54897C49.138 9.53297 49.0229 9.52597 48.9179 9.52597C48.7539 9.52597 48.6159 9.54597 48.5079 9.58497C48.3149 9.64797 48.2039 9.77297 48.1819 9.95497C48.1539 10.185 48.3729 10.393 48.8529 10.59C49.0469 10.67 49.2 10.737 49.313 10.79C50.022 11.118 50.5119 11.488 50.7719 11.889C51.0349 12.284 51.1299 12.794 51.0559 13.409C50.9399 14.343 50.497 15.047 49.74 15.501C49.168 15.847 48.455 16.022 47.623 16.022H47.6219C47.3509 16.022 47.065 16.003 46.766 15.967C46.328 15.913 45.8759 15.823 45.4219 15.7C45.0549 15.599 44.68 15.474 44.295 15.331C44.286 15.328 44.277 15.326 44.269 15.326C44.254 15.326 44.24 15.331 44.227 15.34C44.206 15.354 44.1949 15.376 44.1939 15.401L44.1759 16.433L40.809 16.724L41.024 4.33697Z" fill="#FFF100"/>
<path d="M44.312 4.17498L44.17 12.346C44.169 12.404 44.202 12.458 44.254 12.483L44.373 12.542C44.512 12.612 44.674 12.693 44.8 12.741C45.539 13.031 46.031 13.188 46.304 13.222C46.41 13.235 46.511 13.241 46.608 13.241C46.833 13.241 47.037 13.206 47.217 13.136C47.506 13.024 47.665 12.857 47.691 12.641C47.73 12.324 47.34 12.107 47.041 11.971L46.752 11.842C45.938 11.455 45.38 11.055 45.096 10.654C44.823 10.257 44.722 9.75098 44.796 9.14998C44.904 8.26998 45.305 7.64398 46.024 7.23798C46.558 6.93198 47.23 6.77698 48.022 6.77698C48.301 6.77698 48.601 6.79598 48.912 6.83398C49.283 6.87998 49.677 6.95398 50.084 7.05398C50.454 7.14498 50.847 7.25898 51.254 7.39398L50.95 9.86298C50.645 9.77198 50.361 9.69498 50.104 9.63498C49.797 9.55698 49.518 9.50198 49.274 9.47198C49.143 9.45598 49.024 9.44798 48.917 9.44798C48.743 9.44798 48.601 9.46798 48.486 9.50898C48.205 9.60098 48.124 9.79498 48.106 9.94198C48.057 10.343 48.634 10.578 48.823 10.655C49.016 10.735 49.168 10.802 49.281 10.855C49.976 11.176 50.456 11.536 50.708 11.927C50.961 12.306 51.053 12.8 50.979 13.395C50.866 14.317 50.447 14.983 49.699 15.432C49.139 15.771 48.44 15.943 47.622 15.943C47.354 15.943 47.069 15.925 46.773 15.888C46.341 15.835 45.892 15.746 45.439 15.624C45.087 15.527 44.71 15.404 44.318 15.258C44.301 15.252 44.283 15.248 44.265 15.248C44.235 15.248 44.206 15.257 44.181 15.274C44.141 15.301 44.116 15.347 44.115 15.395L44.099 16.361L40.882 16.639L41.096 4.40498L44.312 4.17498ZM44.465 4.01398L40.949 4.26698L40.73 16.804L44.247 16.5L44.266 15.399C44.653 15.544 45.031 15.668 45.4 15.77C45.859 15.894 46.31 15.984 46.755 16.038C47.058 16.075 47.347 16.094 47.622 16.094C48.472 16.094 49.19 15.917 49.777 15.562C50.56 15.093 51.01 14.377 51.128 13.415C51.206 12.78 51.107 12.256 50.832 11.845C50.564 11.43 50.067 11.055 49.343 10.72C49.229 10.666 49.075 10.599 48.879 10.518C48.439 10.338 48.23 10.153 48.253 9.96098C48.272 9.80998 48.364 9.70698 48.531 9.65198C48.632 9.61598 48.76 9.59798 48.915 9.59798C49.016 9.59798 49.129 9.60598 49.254 9.62098C49.49 9.64998 49.761 9.70298 50.066 9.77998C50.371 9.85198 50.708 9.94398 51.076 10.058L51.416 7.28998C50.966 7.13798 50.534 7.00998 50.118 6.90798C49.702 6.80598 49.306 6.73098 48.929 6.68498C48.61 6.64598 48.308 6.62698 48.021 6.62698C47.199 6.62698 46.508 6.78698 45.948 7.10798C45.193 7.53498 44.759 8.20998 44.646 9.13198C44.567 9.77298 44.675 10.309 44.971 10.74C45.273 11.165 45.845 11.578 46.686 11.978C46.756 12.01 46.854 12.053 46.978 12.108C47.373 12.288 47.56 12.459 47.54 12.622C47.521 12.78 47.394 12.904 47.16 12.995C46.997 13.058 46.812 13.09 46.605 13.09C46.514 13.09 46.419 13.084 46.319 13.072C46.06 13.04 45.571 12.883 44.852 12.601C44.689 12.539 44.467 12.421 44.317 12.348L44.465 4.01398Z" fill="white"/>
<path fill-rule="evenodd" clip-rule="evenodd" d="M34.6601 17.7029C33.7951 17.7029 33.0751 17.4159 32.5201 16.8489C31.9641 16.2779 31.6831 15.5319 31.6831 14.6309C31.6831 13.7789 31.9721 13.0799 32.5431 12.5529C33.1201 12.0199 33.8841 11.7489 34.8131 11.7479C35.1731 11.7479 35.5231 11.8009 35.8531 11.9059C36.1891 12.0049 36.5231 12.1619 36.8461 12.3729C36.8591 12.3819 36.8721 12.3859 36.8871 12.3859C36.9001 12.3859 36.9111 12.3829 36.9231 12.3769C36.9461 12.3629 36.9621 12.3379 36.9621 12.3109V11.7919C36.9621 11.3889 36.8161 11.0839 36.5291 10.8889C36.2511 10.6999 35.8191 10.6039 35.2461 10.6039C34.8931 10.6039 34.4991 10.6479 34.0751 10.7339C33.8841 10.7689 33.6791 10.8149 33.4641 10.8699C33.3711 10.9639 33.3181 11.0299 33.2611 11.0949C32.5071 11.9659 31.4361 12.4909 30.0771 12.6579L29.8061 12.6909L29.6521 12.6929C29.6311 12.6939 29.6101 12.7029 29.5961 12.7189C29.5821 12.7349 29.5751 12.7559 29.5781 12.7769L29.9911 16.1429L26.3781 16.9409L24.9081 4.97194L29.0681 4.45994C29.3871 4.42094 29.6931 4.40094 29.9861 4.40094C31.0121 4.40094 31.8881 4.64694 32.5881 5.13094C33.4881 5.74894 34.0241 6.70694 34.1811 7.97894C34.2051 8.18294 34.2161 8.38194 34.2151 8.57694C34.2151 8.59794 34.2251 8.61894 34.2411 8.63394C34.2551 8.64594 34.2721 8.65294 34.2901 8.65294C34.2941 8.65294 34.2981 8.65294 34.3011 8.65194C34.5651 8.61194 34.8211 8.57794 35.0661 8.55094C35.6061 8.48894 36.1071 8.45794 36.5551 8.45794C37.9231 8.45794 38.9031 8.70094 39.4641 9.17994C40.0231 9.65094 40.3051 10.4689 40.3051 11.6139V17.4539L37.1481 17.6969V16.7749C37.1481 16.7459 37.1301 16.7189 37.1041 16.7069C37.0941 16.7029 37.0831 16.6999 37.0731 16.6999C37.0551 16.6999 37.0381 16.7059 37.0241 16.7189C36.6331 17.0519 36.2401 17.3029 35.8541 17.4629C35.4701 17.6219 35.0671 17.7029 34.6601 17.7029ZM36.0801 13.6489C35.8151 13.6489 35.5971 13.7339 35.4321 13.9009C35.2711 14.0599 35.1891 14.2789 35.1891 14.5479C35.1891 14.8219 35.2701 15.0459 35.4311 15.2119C35.5941 15.3739 35.8121 15.4559 36.0801 15.4559C36.3321 15.4559 36.5481 15.3679 36.7191 15.1949C36.8921 15.0239 36.9801 14.8049 36.9801 14.5479C36.9801 14.2769 36.8951 14.0599 36.7271 13.8989C36.5631 13.7339 36.3441 13.6489 36.0801 13.6489ZM29.4101 7.19694C29.3201 7.19694 29.2251 7.20294 29.1271 7.21594L28.9761 7.23494C28.9551 7.23694 28.9381 7.24794 28.9251 7.26294C28.9131 7.27894 28.9071 7.29794 28.9101 7.31794L29.2301 9.92494C29.2351 9.96294 29.2671 9.99094 29.3041 9.99094C29.3071 9.99094 29.4641 9.97094 29.4641 9.97094C29.9271 9.91394 30.2651 9.75294 30.4701 9.49194C30.6791 9.22394 30.7571 8.85994 30.7011 8.40894C30.6471 7.96694 30.4841 7.63894 30.2161 7.43694C30.0081 7.27894 29.7361 7.19694 29.4101 7.19694Z" fill="#FFF100"/>
<path d="M29.989 4.32794V4.47794C31 4.47794 31.861 4.71894 32.547 5.19494C33.429 5.80094 33.953 6.74194 34.107 7.99094C34.13 8.18094 34.142 8.37894 34.142 8.57794C34.142 8.62194 34.161 8.66294 34.194 8.69194C34.221 8.71594 34.256 8.72794 34.292 8.72794C34.3 8.72794 34.307 8.72694 34.315 8.72594C34.577 8.68594 34.832 8.65294 35.077 8.62694C35.613 8.56594 36.111 8.53394 36.556 8.53394C37.906 8.53394 38.869 8.77094 39.418 9.23794C39.958 9.69394 40.232 10.4939 40.232 11.6139V17.3839L37.225 17.6159V16.7749C37.225 16.7159 37.191 16.6629 37.138 16.6389C37.118 16.6299 37.097 16.6249 37.075 16.6249C37.04 16.6249 37.0051 16.6369 36.9771 16.6609C36.5921 16.9899 36.205 17.2359 35.827 17.3929C35.45 17.5489 35.057 17.6279 34.661 17.6279C33.817 17.6279 33.115 17.3489 32.575 16.7979C32.033 16.2409 31.759 15.5119 31.759 14.6319C31.759 13.7899 32.033 13.1279 32.595 12.6089C33.158 12.0889 33.905 11.8239 34.814 11.8239C35.165 11.8239 35.507 11.8759 35.834 11.9789C36.164 12.0769 36.491 12.2309 36.806 12.4369C36.831 12.4529 36.86 12.4619 36.888 12.4619C36.912 12.4619 36.937 12.4559 36.959 12.4439C37.008 12.4179 37.038 12.3669 37.038 12.3119V11.7929C37.038 11.3629 36.882 11.0379 36.573 10.8269C36.279 10.6269 35.846 10.5299 35.247 10.5289C34.893 10.5289 34.494 10.5729 34.064 10.6589C33.87 10.6949 33.6631 10.7419 33.4471 10.7969C33.4141 10.8049 33.3861 10.8239 33.3651 10.8509C33.3141 10.9169 33.262 10.9819 33.205 11.0459C32.463 11.9009 31.408 12.4179 30.069 12.5829L29.814 12.6149L29.652 12.6179C29.61 12.6189 29.569 12.6379 29.541 12.6699C29.513 12.7019 29.5 12.7439 29.505 12.7869L29.91 16.0859L26.444 16.8509L24.993 5.03894L29.08 4.53694C29.395 4.49794 29.7 4.47894 29.989 4.47894V4.32794ZM29.304 10.0659C29.31 10.0659 29.3161 10.0659 29.3221 10.0649L29.474 10.0469C29.957 9.98794 30.312 9.81694 30.529 9.53894C30.75 9.25494 30.833 8.87194 30.776 8.39994C30.72 7.93794 30.547 7.59394 30.262 7.37794C30.039 7.20894 29.753 7.12294 29.411 7.12294C29.318 7.12294 29.22 7.12894 29.117 7.14194L28.966 7.15994C28.927 7.16494 28.891 7.18494 28.866 7.21594C28.841 7.24694 28.8301 7.28694 28.8351 7.32694L29.155 9.93394C29.165 10.0109 29.229 10.0659 29.304 10.0659ZM36.08 15.5309C36.353 15.5309 36.586 15.4359 36.773 15.2489C36.96 15.0619 37.055 14.8259 37.055 14.5479C37.055 14.2579 36.962 14.0209 36.782 13.8469C36.601 13.6649 36.365 13.5729 36.081 13.5729C35.797 13.5729 35.561 13.6649 35.38 13.8459C35.204 14.0219 35.1151 14.2569 35.1151 14.5469C35.1151 14.8409 35.204 15.0819 35.38 15.2649C35.554 15.4419 35.79 15.5309 36.08 15.5309ZM29.989 4.32794C29.693 4.32794 29.384 4.34794 29.062 4.38694L24.826 4.90694L26.315 17.0319L30.076 16.2019L29.655 12.7679L29.817 12.7649L30.087 12.7319C31.471 12.5619 32.548 12.0329 33.319 11.1449C33.377 11.0789 33.431 11.0109 33.484 10.9429C33.697 10.8889 33.9 10.8429 34.091 10.8079C34.516 10.7229 34.901 10.6799 35.247 10.6799C35.808 10.6809 36.222 10.7709 36.488 10.9519C36.754 11.1339 36.887 11.4139 36.887 11.7939V12.3129C36.558 12.0969 36.221 11.9389 35.876 11.8369C35.536 11.7289 35.182 11.6749 34.813 11.6749C33.861 11.6749 33.087 11.9499 32.492 12.4999C31.902 13.0449 31.607 13.7549 31.607 14.6329C31.607 15.5569 31.893 16.3139 32.466 16.9029C33.038 17.4869 33.769 17.7789 34.659 17.7789C35.078 17.7789 35.486 17.6969 35.883 17.5329C36.28 17.3679 36.676 17.1159 37.073 16.7759V17.7789L40.38 17.5239V11.6149C40.38 10.4419 40.09 9.61194 39.513 9.12394C38.935 8.63094 37.948 8.38494 36.555 8.38494C36.101 8.38494 35.6031 8.41594 35.0591 8.47894C34.8121 8.50494 34.556 8.53894 34.291 8.57894C34.291 8.38194 34.281 8.17994 34.255 7.97294C34.095 6.67294 33.554 5.70594 32.631 5.07194C31.917 4.57594 31.036 4.32794 29.989 4.32794ZM29.304 9.91594L28.984 7.30894L29.135 7.29094C29.231 7.27894 29.323 7.27294 29.411 7.27294C29.721 7.27294 29.9751 7.34794 30.1711 7.49794C30.4231 7.68994 30.575 7.99694 30.627 8.41894C30.68 8.85194 30.608 9.19494 30.411 9.44794C30.218 9.69494 29.9 9.84494 29.456 9.89894L29.304 9.91594ZM36.08 15.3809C35.831 15.3809 35.632 15.3069 35.485 15.1599C35.337 15.0069 35.264 14.8029 35.264 14.5479C35.264 14.2989 35.337 14.0999 35.485 13.9529C35.638 13.7989 35.836 13.7229 36.08 13.7229C36.324 13.7229 36.522 13.7989 36.675 13.9529C36.828 14.0999 36.905 14.2989 36.905 14.5479C36.905 14.7859 36.825 14.9839 36.667 15.1429C36.508 15.3019 36.312 15.3809 36.08 15.3809Z" fill="white"/>
<path fill-rule="evenodd" clip-rule="evenodd" d="M3.97603 8.10494C3.97203 8.06694 3.94002 8.03794 3.90202 8.03794C3.89902 8.03794 1.13702 8.32694 1.13702 8.32694L1.58702 4.85994L9.69603 4.06494L10.047 7.39094L7.69902 7.63794C7.65802 7.64194 7.62801 7.67894 7.63301 7.71994L8.50401 16.0239L4.88902 16.7729L3.97603 8.10494Z" fill="#FFF100"/>
<path d="M9.63 4.14697L9.96402 7.32397L7.69101 7.56297C7.60901 7.57197 7.54901 7.64497 7.55801 7.72797L8.423 15.964L4.95401 16.683L4.05099 8.09697C4.04299 8.01997 3.97801 7.96297 3.90201 7.96297C3.89701 7.96297 3.89102 7.96297 3.88602 7.96397L1.222 8.24397L1.645 4.98797L9.63 4.14697ZM9.763 3.98297L1.51201 4.84997L1.04901 8.41197L3.901 8.11197L4.82101 16.863L8.58502 16.083L7.70502 7.71197L10.127 7.45697L9.763 3.98297Z" fill="white"/>
<path d="M47.775 4.91195V4.00695H47.505L47.59 3.64795H48.393V4.00695H48.167V4.87295L47.775 4.91195Z" fill="#16498C"/>
<path d="M48.434 4.88097L48.603 3.64697H48.96L49.124 4.16497L49.291 3.64697H49.643L49.79 4.88097L49.4 4.90697L49.344 4.28797L49.114 4.94397L48.883 4.28797L48.82 4.90697L48.434 4.88097Z" fill="#16498C"/>
</svg>
