<svg width="60" height="19" viewBox="0 0 60 19" fill="none" xmlns="http://www.w3.org/2000/svg">
<path d="M33.537 16.294H26L29.226 9.10801H26.44L27.056 6.23401H33.962L30.736 13.332H34.182L33.537 16.294Z" fill="#FDF229"/>
<path d="M38.263 6V12.833C38.263 13.347 38.424 13.654 38.967 13.654C39.494 13.654 39.597 13.302 39.597 12.833V6.234L42.78 6V13.039C42.78 15.429 41.152 16.528 38.689 16.528C36.533 16.528 35.082 15.282 35.082 13.068V6.234L38.263 6Z" fill="#FDF229"/>
<path d="M44.295 16.294V6.234L47.477 6V13.332H50.953L50.278 16.294H44.295Z" fill="#FDF229"/>
<path d="M54.974 6V12.833C54.974 13.347 55.135 13.654 55.678 13.654C56.205 13.654 56.308 13.302 56.308 12.833V6.234L59.491 6V13.039C59.491 15.429 57.863 16.528 55.4 16.528C53.244 16.528 51.793 15.282 51.793 13.068V6.234L54.974 6Z" fill="#FDF229"/>
<path d="M0 3V18.822H15.822V3H0ZM13.663 16.663H2.15799V5.158H13.663V16.663Z" fill="url(#paint0_linear_88_140)"/>
<path d="M1 10.707C1 10.707 7.12401 14.901 8.38501 16.478C8.38501 16.478 14.203 9.249 19.248 6.744V1C19.248 1 13.783 3.264 8.356 12.952L5.31801 8.337L1 10.707Z" fill="white" stroke="black" stroke-width="0.5" stroke-miterlimit="10"/>
<defs>
<linearGradient id="paint0_linear_88_140" x1="7.9105" y1="18.8214" x2="7.9105" y2="2.9998" gradientUnits="userSpaceOnUse">
<stop stop-color="#FFFA96"/>
<stop offset="1" stop-color="#FFF200"/>
</linearGradient>
</defs>
</svg>
