<svg width="60" height="16" viewBox="0 0 60 16" fill="none" xmlns="http://www.w3.org/2000/svg">
<path d="M33.537 13.294H26L29.226 6.10801H26.44L27.056 3.23401H33.962L30.736 10.332H34.182L33.537 13.294Z" fill="#FDF229"/>
<path d="M38.263 3V9.833C38.263 10.347 38.424 10.654 38.967 10.654C39.494 10.654 39.597 10.302 39.597 9.833V3.234L42.78 3V10.039C42.78 12.429 41.152 13.528 38.689 13.528C36.533 13.528 35.082 12.282 35.082 10.068V3.234L38.263 3Z" fill="#FDF229"/>
<path d="M44.295 13.294V3.234L47.477 3V10.332H50.953L50.278 13.294H44.295Z" fill="#FDF229"/>
<path d="M54.974 3V9.833C54.974 10.347 55.135 10.654 55.678 10.654C56.205 10.654 56.308 10.302 56.308 9.833V3.234L59.491 3V10.039C59.491 12.429 57.863 13.528 55.4 13.528C53.244 13.528 51.793 12.282 51.793 10.068V3.234L54.974 3Z" fill="#FDF229"/>
<path d="M0 0V15.822H15.822V0H0ZM13.663 13.663H2.15799V2.158H13.663V13.663Z" fill="url(#paint0_linear_88_184)"/>
<defs>
<linearGradient id="paint0_linear_88_184" x1="7.9105" y1="15.8214" x2="7.9105" y2="-0.000199925" gradientUnits="userSpaceOnUse">
<stop stop-color="#FFFA96"/>
<stop offset="1" stop-color="#FFF200"/>
</linearGradient>
</defs>
</svg>
