<?xml version="1.0" encoding="iso-8859-1"?>
<!-- Generator: Adobe Illustrator 28.6.0, SVG Export Plug-In . SVG Version: 9.03 Build 54939)  -->
<svg version="1.1" id="Layer_1" xmlns="http://www.w3.org/2000/svg" xmlns:xlink="http://www.w3.org/1999/xlink" x="0px" y="0px"
	 width="558.545px" height="314.182px" viewBox="0 0 558.545 314.182" enable-background="new 0 0 558.545 314.182"
	 xml:space="preserve">
<path fill="#41B54A" d="M0,80.176V0h558.545v62.294C558.545,62.294,296.176,14.765,0,80.176z"/>
<g>
	<g>
		<rect x="526.565" y="22.316" fill="#FDF229" width="20.302" height="1.885"/>
		<rect x="526.565" y="25.565" fill="#FDF229" width="20.302" height="1.885"/>
		<rect x="526.565" y="28.813" fill="#FDF229" width="20.302" height="1.885"/>
		<rect x="526.565" y="32.062" fill="#FDF229" width="20.302" height="1.885"/>
	</g>
</g>
<g>
	
		<image overflow="visible" opacity="0.24" width="223" height="51" xlink:href="ED07A1F2.png"  transform="matrix(1 0 0 1 220.2667 3.0902)">
	</image>
	<g>
		<g>
			<path fill="none" stroke="#329129" stroke-width="1.267" d="M232.705,31.372V17.817l4.299-0.338v9.835h4.566l-0.915,4.058
				H232.705z"/>
			<path fill="none" stroke="#329129" stroke-width="1.267" d="M242.43,31.372V17.644h7.521l0.801,3.661h-4.023v1.266h2.555v3.555
				h-2.555v1.372h4.28l-0.839,3.874H242.43z"/>
			<path fill="none" stroke="#329129" stroke-width="1.267" d="M250.821,31.294l4.558-13.651h5.128l4.472,13.651l-4.643,0.357
				l-0.687-2.416h-3.575l-0.715,2.416L250.821,31.294z M256.818,25.672h2.03l-0.973-4.039L256.818,25.672z"/>
			<path fill="none" stroke="#329129" stroke-width="1.267" d="M265.839,31.69V17.644h5.338c1.646,0,2.906,0.349,3.78,1.048
				c0.874,0.699,1.311,1.708,1.311,3.028c0,0.812-0.176,1.52-0.529,2.125c-0.353,0.605-0.865,1.082-1.539,1.43l2.497,5.835
				l-4.471,0.58l-2.126-5.961v5.623L265.839,31.69z M270.099,21.382v3.304h0.058c0.591,0,1.045-0.145,1.363-0.435
				c0.317-0.29,0.477-0.699,0.477-1.227c0-0.528-0.159-0.934-0.477-1.217c-0.318-0.283-0.772-0.425-1.363-0.425H270.099z"/>
			<path fill="none" stroke="#329129" stroke-width="1.267" d="M277.71,31.594v-13.95h4.146l3.938,6.424v-6.386l4.146-0.261v13.95
				h-4.146l-3.938-6.608v6.531L277.71,31.594z"/>
			<path fill="none" stroke="#329129" stroke-width="1.267" d="M299.249,31.372l-2.889-13.593l4.224-0.416l1.401,7.362l1.449-7.082
				h2.707l1.411,7.082l1.382-7.362l4.118,0.416l-2.983,13.593h-3.842l-1.525-7.555l-1.602,7.555H299.249z"/>
			<path fill="none" stroke="#329129" stroke-width="1.267" d="M320.377,17.305c0.985,0,1.907,0.167,2.765,0.502
				c0.858,0.335,1.617,0.821,2.278,1.459c0.687,0.65,1.206,1.42,1.559,2.309c0.353,0.889,0.529,1.865,0.529,2.927
				c0,1.069-0.175,2.043-0.524,2.923c-0.35,0.879-0.871,1.653-1.563,2.323c-0.667,0.638-1.432,1.124-2.292,1.459
				c-0.861,0.334-1.778,0.502-2.751,0.502c-0.966,0-1.876-0.167-2.731-0.502c-0.854-0.335-1.615-0.821-2.282-1.459
				c-0.693-0.67-1.215-1.444-1.563-2.323c-0.35-0.879-0.524-1.854-0.524-2.923c0-1.062,0.175-2.033,0.524-2.913
				c0.349-0.879,0.87-1.653,1.563-2.323c0.667-0.644,1.428-1.132,2.282-1.464C318.501,17.471,319.411,17.305,320.377,17.305z
				 M320.377,27.652c0.858,0,1.538-0.284,2.04-0.851c0.502-0.566,0.753-1.333,0.753-2.299c0-0.959-0.251-1.723-0.753-2.29
				c-0.502-0.566-1.182-0.85-2.04-0.85c-0.845,0-1.518,0.282-2.016,0.845c-0.499,0.564-0.749,1.329-0.749,2.294
				c0,0.973,0.25,1.741,0.749,2.304C318.859,27.371,319.532,27.652,320.377,27.652z"/>
			<path fill="none" stroke="#329129" stroke-width="1.267" d="M328.968,31.69V17.644h5.338c1.646,0,2.906,0.349,3.78,1.048
				c0.874,0.699,1.311,1.708,1.311,3.028c0,0.812-0.176,1.52-0.529,2.125c-0.353,0.605-0.865,1.082-1.539,1.43l2.497,5.835
				l-4.471,0.58l-2.126-5.961v5.623L328.968,31.69z M333.229,21.382v3.304h0.058c0.591,0,1.045-0.145,1.363-0.435
				c0.317-0.29,0.477-0.699,0.477-1.227c0-0.528-0.159-0.934-0.477-1.217c-0.318-0.283-0.772-0.425-1.363-0.425H333.229z"/>
			<path fill="none" stroke="#329129" stroke-width="1.267" d="M340.84,31.372V17.644h5.119c0.654,0,1.296,0.087,1.926,0.261
				c0.629,0.174,1.197,0.422,1.706,0.744c0.953,0.612,1.695,1.43,2.226,2.454c0.531,1.024,0.797,2.158,0.797,3.4
				c0,1.25-0.266,2.387-0.797,3.411c-0.53,1.024-1.272,1.842-2.226,2.454c-0.509,0.322-1.077,0.57-1.706,0.744
				c-0.63,0.174-1.271,0.261-1.926,0.261H340.84z M345.138,21.653v5.7h0.153c0.94,0,1.671-0.25,2.192-0.749
				c0.521-0.499,0.781-1.2,0.781-2.102c0-0.908-0.262-1.61-0.786-2.106c-0.524-0.496-1.267-0.744-2.227-0.744H345.138z"/>
			<path fill="none" stroke="#329129" stroke-width="1.267" d="M353.863,31.256v-3.894c0.179,0.026,0.439,0.071,0.782,0.135
				c1.373,0.251,2.31,0.377,2.812,0.377c0.406,0,0.735-0.079,0.986-0.237s0.377-0.359,0.377-0.604c0-0.257-0.324-0.515-0.973-0.773
				c-0.299-0.116-0.534-0.212-0.705-0.29c-1.291-0.593-2.189-1.198-2.698-1.816s-0.763-1.385-0.763-2.299
				c0-1.301,0.497-2.358,1.492-3.173c0.994-0.815,2.302-1.222,3.923-1.222c0.629,0,1.227,0.034,1.792,0.102
				c0.565,0.067,1.093,0.166,1.582,0.294v3.845c-0.616-0.187-1.166-0.324-1.648-0.411c-0.483-0.087-0.929-0.13-1.335-0.13
				c-0.451,0-0.796,0.06-1.034,0.179s-0.357,0.292-0.357,0.517c0,0.29,0.355,0.577,1.067,0.86c0.438,0.174,0.788,0.329,1.049,0.464
				c1.163,0.599,1.957,1.187,2.383,1.763c0.426,0.576,0.639,1.309,0.639,2.198c0,1.449-0.497,2.56-1.491,3.333
				c-0.995,0.773-2.43,1.159-4.305,1.159c-0.826,0-1.522-0.031-2.088-0.092S354.289,31.384,353.863,31.256z"/>
			<path fill="none" stroke="#329129" stroke-width="1.267" d="M381.571,30.521c-0.833,0.393-1.647,0.689-2.445,0.889
				s-1.571,0.299-2.321,0.299c-0.966,0-1.876-0.167-2.731-0.502c-0.854-0.335-1.615-0.821-2.282-1.459
				c-0.693-0.67-1.215-1.444-1.563-2.323c-0.35-0.879-0.524-1.854-0.524-2.923c0-1.062,0.175-2.033,0.524-2.913
				c0.349-0.879,0.87-1.653,1.563-2.323c0.667-0.644,1.428-1.132,2.282-1.464c0.855-0.332,1.766-0.498,2.731-0.498
				c0.915,0,1.748,0.132,2.498,0.396c0.75,0.264,1.462,0.673,2.135,1.227l-2.23,3.362c-0.362-0.316-0.738-0.549-1.13-0.701
				c-0.391-0.151-0.814-0.227-1.272-0.227c-0.852,0-1.536,0.287-2.054,0.86c-0.519,0.573-0.777,1.333-0.777,2.28
				c0,0.908,0.259,1.664,0.777,2.266c0.518,0.603,1.158,0.903,1.921,0.903c0.114,0,0.236-0.01,0.366-0.029
				c0.131-0.02,0.256-0.048,0.377-0.087V26.29h-1.992l0.763-3.149h5.386V30.521z"/>
			<path fill="none" stroke="#329129" stroke-width="1.267" d="M382.536,31.294l4.558-13.651h5.128l4.472,13.651l-4.643,0.357
				l-0.687-2.416h-3.575l-0.715,2.416L382.536,31.294z M388.533,25.672h2.03l-0.973-4.039L388.533,25.672z"/>
			<path fill="none" stroke="#329129" stroke-width="1.267" d="M396.894,31.275l1.85-13.631h3.89l1.792,5.719l1.82-5.719h3.842
				l1.602,13.631l-4.251,0.29l-0.61-6.84l-2.517,7.255l-2.517-7.255l-0.687,6.84L396.894,31.275z"/>
			<path fill="none" stroke="#329129" stroke-width="1.267" d="M413.151,31.372V17.644h7.521l0.801,3.661h-4.023v1.266h2.555v3.555
				h-2.555v1.372h4.28l-0.839,3.874H413.151z"/>
		</g>
		<g>
			<path fill="#FEFD01" d="M232.705,31.372V17.817l4.299-0.338v9.835h4.566l-0.915,4.058H232.705z"/>
			<path fill="#FEFD01" d="M242.43,31.372V17.644h7.521l0.801,3.661h-4.023v1.266h2.555v3.555h-2.555v1.372h4.28l-0.839,3.874
				H242.43z"/>
			<path fill="#FEFD01" d="M250.821,31.294l4.558-13.651h5.128l4.472,13.651l-4.643,0.357l-0.687-2.416h-3.575l-0.715,2.416
				L250.821,31.294z M256.818,25.672h2.03l-0.973-4.039L256.818,25.672z"/>
			<path fill="#FEFD01" d="M265.839,31.69V17.644h5.338c1.646,0,2.906,0.349,3.78,1.048c0.874,0.699,1.311,1.708,1.311,3.028
				c0,0.812-0.176,1.52-0.529,2.125c-0.353,0.605-0.865,1.082-1.539,1.43l2.497,5.835l-4.471,0.58l-2.126-5.961v5.623L265.839,31.69
				z M270.099,21.382v3.304h0.058c0.591,0,1.045-0.145,1.363-0.435c0.317-0.29,0.477-0.699,0.477-1.227
				c0-0.528-0.159-0.934-0.477-1.217c-0.318-0.283-0.772-0.425-1.363-0.425H270.099z"/>
			<path fill="#FEFD01" d="M277.71,31.594v-13.95h4.146l3.938,6.424v-6.386l4.146-0.261v13.95h-4.146l-3.938-6.608v6.531
				L277.71,31.594z"/>
			<path fill="#FEFD01" d="M299.249,31.372l-2.889-13.593l4.224-0.416l1.401,7.362l1.449-7.082h2.707l1.411,7.082l1.382-7.362
				l4.118,0.416l-2.983,13.593h-3.842l-1.525-7.555l-1.602,7.555H299.249z"/>
			<path fill="#FEFD01" d="M320.377,17.305c0.985,0,1.907,0.167,2.765,0.502c0.858,0.335,1.617,0.821,2.278,1.459
				c0.687,0.65,1.206,1.42,1.559,2.309c0.353,0.889,0.529,1.865,0.529,2.927c0,1.069-0.175,2.043-0.524,2.923
				c-0.35,0.879-0.871,1.653-1.563,2.323c-0.667,0.638-1.432,1.124-2.292,1.459c-0.861,0.334-1.778,0.502-2.751,0.502
				c-0.966,0-1.876-0.167-2.731-0.502c-0.854-0.335-1.615-0.821-2.282-1.459c-0.693-0.67-1.215-1.444-1.563-2.323
				c-0.35-0.879-0.524-1.854-0.524-2.923c0-1.062,0.175-2.033,0.524-2.913c0.349-0.879,0.87-1.653,1.563-2.323
				c0.667-0.644,1.428-1.132,2.282-1.464C318.501,17.471,319.411,17.305,320.377,17.305z M320.377,27.652
				c0.858,0,1.538-0.284,2.04-0.851c0.502-0.566,0.753-1.333,0.753-2.299c0-0.959-0.251-1.723-0.753-2.29
				c-0.502-0.566-1.182-0.85-2.04-0.85c-0.845,0-1.518,0.282-2.016,0.845c-0.499,0.564-0.749,1.329-0.749,2.294
				c0,0.973,0.25,1.741,0.749,2.304C318.859,27.371,319.532,27.652,320.377,27.652z"/>
			<path fill="#FEFD01" d="M328.968,31.69V17.644h5.338c1.646,0,2.906,0.349,3.78,1.048c0.874,0.699,1.311,1.708,1.311,3.028
				c0,0.812-0.176,1.52-0.529,2.125c-0.353,0.605-0.865,1.082-1.539,1.43l2.497,5.835l-4.471,0.58l-2.126-5.961v5.623L328.968,31.69
				z M333.229,21.382v3.304h0.058c0.591,0,1.045-0.145,1.363-0.435c0.317-0.29,0.477-0.699,0.477-1.227
				c0-0.528-0.159-0.934-0.477-1.217c-0.318-0.283-0.772-0.425-1.363-0.425H333.229z"/>
			<path fill="#FEFD01" d="M340.84,31.372V17.644h5.119c0.654,0,1.296,0.087,1.926,0.261c0.629,0.174,1.197,0.422,1.706,0.744
				c0.953,0.612,1.695,1.43,2.226,2.454c0.531,1.024,0.797,2.158,0.797,3.4c0,1.25-0.266,2.387-0.797,3.411
				c-0.53,1.024-1.272,1.842-2.226,2.454c-0.509,0.322-1.077,0.57-1.706,0.744c-0.63,0.174-1.271,0.261-1.926,0.261H340.84z
				 M345.138,21.653v5.7h0.153c0.94,0,1.671-0.25,2.192-0.749c0.521-0.499,0.781-1.2,0.781-2.102c0-0.908-0.262-1.61-0.786-2.106
				c-0.524-0.496-1.267-0.744-2.227-0.744H345.138z"/>
			<path fill="#FEFD01" d="M353.863,31.256v-3.894c0.179,0.026,0.439,0.071,0.782,0.135c1.373,0.251,2.31,0.377,2.812,0.377
				c0.406,0,0.735-0.079,0.986-0.237s0.377-0.359,0.377-0.604c0-0.257-0.324-0.515-0.973-0.773c-0.299-0.116-0.534-0.212-0.705-0.29
				c-1.291-0.593-2.189-1.198-2.698-1.816s-0.763-1.385-0.763-2.299c0-1.301,0.497-2.358,1.492-3.173
				c0.994-0.815,2.302-1.222,3.923-1.222c0.629,0,1.227,0.034,1.792,0.102c0.565,0.067,1.093,0.166,1.582,0.294v3.845
				c-0.616-0.187-1.166-0.324-1.648-0.411c-0.483-0.087-0.929-0.13-1.335-0.13c-0.451,0-0.796,0.06-1.034,0.179
				s-0.357,0.292-0.357,0.517c0,0.29,0.355,0.577,1.067,0.86c0.438,0.174,0.788,0.329,1.049,0.464
				c1.163,0.599,1.957,1.187,2.383,1.763c0.426,0.576,0.639,1.309,0.639,2.198c0,1.449-0.497,2.56-1.491,3.333
				c-0.995,0.773-2.43,1.159-4.305,1.159c-0.826,0-1.522-0.031-2.088-0.092S354.289,31.384,353.863,31.256z"/>
			<path fill="#FEFD01" d="M381.571,30.521c-0.833,0.393-1.647,0.689-2.445,0.889s-1.571,0.299-2.321,0.299
				c-0.966,0-1.876-0.167-2.731-0.502c-0.854-0.335-1.615-0.821-2.282-1.459c-0.693-0.67-1.215-1.444-1.563-2.323
				c-0.35-0.879-0.524-1.854-0.524-2.923c0-1.062,0.175-2.033,0.524-2.913c0.349-0.879,0.87-1.653,1.563-2.323
				c0.667-0.644,1.428-1.132,2.282-1.464c0.855-0.332,1.766-0.498,2.731-0.498c0.915,0,1.748,0.132,2.498,0.396
				c0.75,0.264,1.462,0.673,2.135,1.227l-2.23,3.362c-0.362-0.316-0.738-0.549-1.13-0.701c-0.391-0.151-0.814-0.227-1.272-0.227
				c-0.852,0-1.536,0.287-2.054,0.86c-0.519,0.573-0.777,1.333-0.777,2.28c0,0.908,0.259,1.664,0.777,2.266
				c0.518,0.603,1.158,0.903,1.921,0.903c0.114,0,0.236-0.01,0.366-0.029c0.131-0.02,0.256-0.048,0.377-0.087V26.29h-1.992
				l0.763-3.149h5.386V30.521z"/>
			<path fill="#FEFD01" d="M382.536,31.294l4.558-13.651h5.128l4.472,13.651l-4.643,0.357l-0.687-2.416h-3.575l-0.715,2.416
				L382.536,31.294z M388.533,25.672h2.03l-0.973-4.039L388.533,25.672z"/>
			<path fill="#FEFD01" d="M396.894,31.275l1.85-13.631h3.89l1.792,5.719l1.82-5.719h3.842l1.602,13.631l-4.251,0.29l-0.61-6.84
				l-2.517,7.255l-2.517-7.255l-0.687,6.84L396.894,31.275z"/>
			<path fill="#FEFD01" d="M413.151,31.372V17.644h7.521l0.801,3.661h-4.023v1.266h2.555v3.555h-2.555v1.372h4.28l-0.839,3.874
				H413.151z"/>
		</g>
		<g>
			<path fill="#FDF229" d="M232.705,31.372V17.817l4.299-0.338v9.835h4.566l-0.915,4.058H232.705z"/>
			<path fill="#FDF229" d="M242.43,31.372V17.644h7.521l0.801,3.661h-4.023v1.266h2.555v3.555h-2.555v1.372h4.28l-0.839,3.874
				H242.43z"/>
			<path fill="#FDF229" d="M250.821,31.294l4.558-13.651h5.128l4.472,13.651l-4.643,0.357l-0.687-2.416h-3.575l-0.715,2.416
				L250.821,31.294z M256.818,25.672h2.03l-0.973-4.039L256.818,25.672z"/>
			<path fill="#FDF229" d="M265.839,31.69V17.644h5.338c1.646,0,2.906,0.349,3.78,1.048c0.874,0.699,1.311,1.708,1.311,3.028
				c0,0.812-0.176,1.52-0.529,2.125c-0.353,0.605-0.865,1.082-1.539,1.43l2.497,5.835l-4.471,0.58l-2.126-5.961v5.623L265.839,31.69
				z M270.099,21.382v3.304h0.058c0.591,0,1.045-0.145,1.363-0.435c0.317-0.29,0.477-0.699,0.477-1.227
				c0-0.528-0.159-0.934-0.477-1.217c-0.318-0.283-0.772-0.425-1.363-0.425H270.099z"/>
			<path fill="#FDF229" d="M277.71,31.594v-13.95h4.146l3.938,6.424v-6.386l4.146-0.261v13.95h-4.146l-3.938-6.608v6.531
				L277.71,31.594z"/>
			<path fill="#FDF229" d="M299.249,31.372l-2.889-13.593l4.224-0.416l1.401,7.362l1.449-7.082h2.707l1.411,7.082l1.382-7.362
				l4.118,0.416l-2.983,13.593h-3.842l-1.525-7.555l-1.602,7.555H299.249z"/>
			<path fill="#FDF229" d="M320.377,17.305c0.985,0,1.907,0.167,2.765,0.502c0.858,0.335,1.617,0.821,2.278,1.459
				c0.687,0.65,1.206,1.42,1.559,2.309c0.353,0.889,0.529,1.865,0.529,2.927c0,1.069-0.175,2.043-0.524,2.923
				c-0.35,0.879-0.871,1.653-1.563,2.323c-0.667,0.638-1.432,1.124-2.292,1.459c-0.861,0.334-1.778,0.502-2.751,0.502
				c-0.966,0-1.876-0.167-2.731-0.502c-0.854-0.335-1.615-0.821-2.282-1.459c-0.693-0.67-1.215-1.444-1.563-2.323
				c-0.35-0.879-0.524-1.854-0.524-2.923c0-1.062,0.175-2.033,0.524-2.913c0.349-0.879,0.87-1.653,1.563-2.323
				c0.667-0.644,1.428-1.132,2.282-1.464C318.501,17.471,319.411,17.305,320.377,17.305z M320.377,27.652
				c0.858,0,1.538-0.284,2.04-0.851c0.502-0.566,0.753-1.333,0.753-2.299c0-0.959-0.251-1.723-0.753-2.29
				c-0.502-0.566-1.182-0.85-2.04-0.85c-0.845,0-1.518,0.282-2.016,0.845c-0.499,0.564-0.749,1.329-0.749,2.294
				c0,0.973,0.25,1.741,0.749,2.304C318.859,27.371,319.532,27.652,320.377,27.652z"/>
			<path fill="#FDF229" d="M328.968,31.69V17.644h5.338c1.646,0,2.906,0.349,3.78,1.048c0.874,0.699,1.311,1.708,1.311,3.028
				c0,0.812-0.176,1.52-0.529,2.125c-0.353,0.605-0.865,1.082-1.539,1.43l2.497,5.835l-4.471,0.58l-2.126-5.961v5.623L328.968,31.69
				z M333.229,21.382v3.304h0.058c0.591,0,1.045-0.145,1.363-0.435c0.317-0.29,0.477-0.699,0.477-1.227
				c0-0.528-0.159-0.934-0.477-1.217c-0.318-0.283-0.772-0.425-1.363-0.425H333.229z"/>
			<path fill="#FDF229" d="M340.84,31.372V17.644h5.119c0.654,0,1.296,0.087,1.926,0.261c0.629,0.174,1.197,0.422,1.706,0.744
				c0.953,0.612,1.695,1.43,2.226,2.454c0.531,1.024,0.797,2.158,0.797,3.4c0,1.25-0.266,2.387-0.797,3.411
				c-0.53,1.024-1.272,1.842-2.226,2.454c-0.509,0.322-1.077,0.57-1.706,0.744c-0.63,0.174-1.271,0.261-1.926,0.261H340.84z
				 M345.138,21.653v5.7h0.153c0.94,0,1.671-0.25,2.192-0.749c0.521-0.499,0.781-1.2,0.781-2.102c0-0.908-0.262-1.61-0.786-2.106
				c-0.524-0.496-1.267-0.744-2.227-0.744H345.138z"/>
			<path fill="#FDF229" d="M353.863,31.256v-3.894c0.179,0.026,0.439,0.071,0.782,0.135c1.373,0.251,2.31,0.377,2.812,0.377
				c0.406,0,0.735-0.079,0.986-0.237s0.377-0.359,0.377-0.604c0-0.257-0.324-0.515-0.973-0.773c-0.299-0.116-0.534-0.212-0.705-0.29
				c-1.291-0.593-2.189-1.198-2.698-1.816s-0.763-1.385-0.763-2.299c0-1.301,0.497-2.358,1.492-3.173
				c0.994-0.815,2.302-1.222,3.923-1.222c0.629,0,1.227,0.034,1.792,0.102c0.565,0.067,1.093,0.166,1.582,0.294v3.845
				c-0.616-0.187-1.166-0.324-1.648-0.411c-0.483-0.087-0.929-0.13-1.335-0.13c-0.451,0-0.796,0.06-1.034,0.179
				s-0.357,0.292-0.357,0.517c0,0.29,0.355,0.577,1.067,0.86c0.438,0.174,0.788,0.329,1.049,0.464
				c1.163,0.599,1.957,1.187,2.383,1.763c0.426,0.576,0.639,1.309,0.639,2.198c0,1.449-0.497,2.56-1.491,3.333
				c-0.995,0.773-2.43,1.159-4.305,1.159c-0.826,0-1.522-0.031-2.088-0.092S354.289,31.384,353.863,31.256z"/>
			<path fill="#FDF229" d="M381.571,30.521c-0.833,0.393-1.647,0.689-2.445,0.889s-1.571,0.299-2.321,0.299
				c-0.966,0-1.876-0.167-2.731-0.502c-0.854-0.335-1.615-0.821-2.282-1.459c-0.693-0.67-1.215-1.444-1.563-2.323
				c-0.35-0.879-0.524-1.854-0.524-2.923c0-1.062,0.175-2.033,0.524-2.913c0.349-0.879,0.87-1.653,1.563-2.323
				c0.667-0.644,1.428-1.132,2.282-1.464c0.855-0.332,1.766-0.498,2.731-0.498c0.915,0,1.748,0.132,2.498,0.396
				c0.75,0.264,1.462,0.673,2.135,1.227l-2.23,3.362c-0.362-0.316-0.738-0.549-1.13-0.701c-0.391-0.151-0.814-0.227-1.272-0.227
				c-0.852,0-1.536,0.287-2.054,0.86c-0.519,0.573-0.777,1.333-0.777,2.28c0,0.908,0.259,1.664,0.777,2.266
				c0.518,0.603,1.158,0.903,1.921,0.903c0.114,0,0.236-0.01,0.366-0.029c0.131-0.02,0.256-0.048,0.377-0.087V26.29h-1.992
				l0.763-3.149h5.386V30.521z"/>
			<path fill="#FDF229" d="M382.536,31.294l4.558-13.651h5.128l4.472,13.651l-4.643,0.357l-0.687-2.416h-3.575l-0.715,2.416
				L382.536,31.294z M388.533,25.672h2.03l-0.973-4.039L388.533,25.672z"/>
			<path fill="#FDF229" d="M396.894,31.275l1.85-13.631h3.89l1.792,5.719l1.82-5.719h3.842l1.602,13.631l-4.251,0.29l-0.61-6.84
				l-2.517,7.255l-2.517-7.255l-0.687,6.84L396.894,31.275z"/>
			<path fill="#FDF229" d="M413.151,31.372V17.644h7.521l0.801,3.661h-4.023v1.266h2.555v3.555h-2.555v1.372h4.28l-0.839,3.874
				H413.151z"/>
		</g>
	</g>
</g>
</svg>
