<?xml version="1.0" encoding="iso-8859-1"?>
<!-- Generator: Adobe Illustrator 28.6.0, SVG Export Plug-In . SVG Version: 9.03 Build 54939)  -->
<svg version="1.1" id="Layer_1" xmlns="http://www.w3.org/2000/svg" xmlns:xlink="http://www.w3.org/1999/xlink" x="0px" y="0px"
	 width="558.545px" height="314.182px" viewBox="0 0 558.545 314.182" enable-background="new 0 0 558.545 314.182"
	 xml:space="preserve">
<path fill="#41B54A" d="M0,80.176V0h558.545v62.294C558.545,62.294,296.176,14.765,0,80.176z"/>
<g>
	<path fill-rule="evenodd" clip-rule="evenodd" fill="#0D478E" d="M100.808,19.426c2.418,11.368-14.018,24.496-36.709,29.32
		C41.408,53.572,21.053,48.267,18.635,36.9c-2.417-11.369,14.018-24.497,36.71-29.323C78.035,2.752,98.389,8.057,100.808,19.426z"/>
	<g>
		<path fill="#C80000" stroke="#C80000" stroke-width="0.8554" stroke-miterlimit="10" d="M109.19,28.298l0.824,0.253l1.105-8.994
			l-1.378-0.466c-0.931-0.315-1.836-0.581-2.693-0.793c-0.879-0.216-1.735-0.377-2.545-0.477c-2.802-0.343-5.141,0.012-6.949,1.048
			c-0.113,0.064-0.224,0.132-0.332,0.2l0.116-6.646l-10.48,0.754l-0.168,9.628c-1.485-1.12-3.681-1.666-6.702-1.666
			c-0.87,0-1.826,0.058-2.83,0.164c-0.469-2.777-1.766-4.913-3.857-6.352c-2.161-1.496-4.936-2.053-8.244-1.647l-10.089,1.239
			l0.757,6.166c-0.705-0.302-1.487-0.459-2.346-0.459c-0.155,0-0.366,0.01-0.681,0.031l-0.839-0.608
			c-0.686-0.495-1.39-0.872-2.075-1.115c-0.739-0.269-1.493-0.407-2.243-0.407c-1.614,0-2.976,0.448-4.05,1.332
			c-0.514,0.423-0.915,0.915-1.208,1.459l0.231-6.641L31.699,13.24l-0.547,17.842c-0.032,0.931-0.228,1.257-0.304,1.364
			c0,0-0.041,0.017-0.151,0.017l-0.041,0c-0.064-0.003-0.205-0.015-0.44-0.075c-0.938-0.278-1.659-0.587-1.928-0.708l-2.192-0.984
			l-0.788-7.5l4.754-0.499l-1.09-10.374L9.594,14.358L8.211,24.992l6.075-0.639l1.826,17.368l9.555-1.981l-0.042,2.613l1.295,0.387
			c0.021,0.006,2.105,0.624,3.093,0.753c0.668,0.087,1.131,0.103,1.379,0.11l0.056,0.002c0.208,0.006,0.412,0.011,0.614,0.011
			c2.993,0,5.342-0.81,6.981-2.405c1.584-1.543,2.501-3.805,2.74-6.718c0.085,0.079,0.164,0.164,0.253,0.24
			c1.374,1.156,3.246,1.742,5.567,1.742c1.911,0,3.508-0.44,4.741-1.305c1.311-0.915,2.054-2.175,2.162-3.664
			c0.896-0.222,1.698-0.63,2.396-1.223l1.448,11.79l10.887-2.402l-0.151-1.225c0.367,0.911,0.898,1.732,1.599,2.455
			c1.467,1.495,3.344,2.255,5.583,2.255c1.009,0,2.001-0.19,2.954-0.567v0.71l10.065-0.776v-1.367l7.561-0.654l0.025-1.355
			c0.004,0.001,0.009,0.003,0.013,0.004c0.978,0.266,1.958,0.46,2.911,0.577c0.663,0.081,1.309,0.123,1.919,0.123
			c1.992,0,3.727-0.439,5.151-1.301c1.998-1.197,3.21-3.109,3.507-5.528c0.206-1.68-0.087-3.124-0.853-4.269
			C109.42,28.599,109.31,28.446,109.19,28.298z"/>
		<g>
			<g>
				<path fill-rule="evenodd" clip-rule="evenodd" fill="#FFF100" d="M32.063,41.669c-0.181,0-0.364-0.003-0.551-0.01
					c-0.285-0.009-0.686-0.022-1.26-0.097c-0.712-0.093-2.417-0.577-2.801-0.691l0.177-7.537c0.409,0.179,1.15,0.48,2.091,0.758
					c0.326,0.085,0.619,0.132,0.871,0.141l0.107,0.001c0.708,0,1.261-0.261,1.646-0.777c0.405-0.531,0.63-1.338,0.669-2.397
					l0.484-15.862l7.1,0.697l-0.614,17.571c-0.1,2.848-0.853,4.976-2.238,6.324C36.464,41.037,34.552,41.669,32.063,41.669z"/>
				<path fill="#FFFFFF" d="M33.569,15.28l6.949,0.682l-0.611,17.5c-0.099,2.829-0.845,4.94-2.216,6.273
					c-1.266,1.233-3.159,1.857-5.628,1.857c-0.18,0-0.363-0.003-0.549-0.01l-0.065-0.002c-0.216-0.007-0.617-0.02-1.188-0.094
					c-0.662-0.087-2.186-0.513-2.68-0.656l0.12-7.383c0.426,0.183,1.126,0.46,2,0.717c0.329,0.085,0.627,0.133,0.886,0.142
					c0.037,0.001,0.074,0.002,0.11,0.002c0.732,0,1.306-0.272,1.704-0.807c0.416-0.545,0.646-1.366,0.684-2.441L33.569,15.28
					 M33.424,15.115l-0.488,15.942c-0.037,1.048-0.255,1.833-0.654,2.354c-0.37,0.498-0.898,0.748-1.584,0.748
					c-0.035,0-0.07-0.001-0.105-0.002c-0.25-0.008-0.534-0.054-0.853-0.137c-1.014-0.299-1.808-0.631-2.184-0.8l-0.126,7.723
					c0.186,0.056,2.041,0.592,2.812,0.693c0.639,0.083,1.064,0.09,1.266,0.098c0.188,0.007,0.373,0.01,0.555,0.01
					c2.521,0,4.432-0.633,5.733-1.9c1.406-1.368,2.16-3.494,2.261-6.375l0.616-17.641L33.424,15.115L33.424,15.115z"/>
			</g>
			<g>
				<path fill-rule="evenodd" clip-rule="evenodd" fill="#FFF100" d="M47.601,34.526c-1.868,0-3.339-0.439-4.369-1.305
					c-1.024-0.87-1.544-2.1-1.544-3.654c0-0.981,0.26-1.85,0.772-2.583c0.512-0.739,1.235-1.278,2.152-1.603
					c0.025-0.009,0.044-0.032,0.049-0.059c0.004-0.027-0.007-0.054-0.028-0.071c-0.348-0.27-0.615-0.586-0.796-0.94
					c-0.172-0.352-0.259-0.749-0.259-1.18c0-0.928,0.369-1.702,1.097-2.299c0.731-0.603,1.696-0.908,2.867-0.908
					c0.531,0,1.07,0.099,1.604,0.293c0.517,0.184,1.044,0.464,1.568,0.836L49.1,23.839c-0.163-0.117-0.315-0.207-0.454-0.268
					c-0.157-0.071-0.295-0.105-0.419-0.105c-0.234,0-0.435,0.066-0.594,0.196c-0.157,0.136-0.236,0.306-0.236,0.506
					c0,0.188,0.072,0.345,0.216,0.465c0.146,0.11,0.354,0.185,0.624,0.225l-0.062,2.457h-0.166c-0.58,0-1.048,0.158-1.392,0.468
					c-0.347,0.304-0.523,0.721-0.523,1.239c0,0.47,0.147,0.862,0.439,1.166c0.299,0.3,0.685,0.452,1.147,0.452
					c0.314,0,0.569-0.068,0.759-0.203c0.206-0.139,0.312-0.32,0.312-0.539c0-0.198-0.082-0.353-0.242-0.46
					c-0.145-0.101-0.35-0.151-0.628-0.152c-0.101,0-0.175,0.004-0.224,0.01l1.442-2.523c0.16-0.01,0.368-0.043,0.577-0.062
					c0.212-0.026,0.421-0.039,0.63-0.039c0.225,0,0.492,0.01,0.802,0.03c0.32,0.021,0.53,0.03,0.631,0.03
					c0.372,0,0.666-0.068,0.875-0.201c0.222-0.147,0.334-0.352,0.334-0.609c0-0.298-0.123-0.524-0.364-0.671
					c-0.23-0.148-0.569-0.22-1.034-0.22c-0.107,0-0.227,0.007-0.355,0.021c-0.072,0.004-0.149,0.01-0.229,0.02l1.741-3.017
					c0.001,0.005,0.01,0.008,0.023,0.008s0.032-0.002,0.052-0.005c0.28-0.019,0.48-0.029,0.599-0.029
					c1.088,0,1.987,0.344,2.673,1.022c0.691,0.679,1.041,1.564,1.041,2.632c0,1.173-0.403,2.156-1.199,2.92
					c-0.798,0.766-1.827,1.153-3.062,1.153h-0.33c-0.024,0-0.047,0.012-0.061,0.031c-0.015,0.02-0.019,0.044-0.011,0.067
					c0.08,0.241,0.135,0.459,0.168,0.655c0.039,0.19,0.059,0.363,0.059,0.524c0,1.037-0.464,1.886-1.38,2.524
					C50.36,34.2,49.123,34.526,47.601,34.526z"/>
				<path fill="#FFFFFF" d="M47.542,20c0.522,0,1.054,0.097,1.58,0.29c0.492,0.174,0.994,0.438,1.493,0.787l-1.54,2.654
					c-0.14-0.096-0.274-0.173-0.398-0.227c-0.165-0.075-0.317-0.112-0.45-0.112c-0.253,0-0.469,0.071-0.645,0.215
					c-0.173,0.149-0.26,0.338-0.26,0.561c0,0.211,0.081,0.387,0.249,0.528c0.129,0.096,0.305,0.168,0.527,0.214v2.33h-0.089
					c-0.599,0-1.084,0.164-1.441,0.486c-0.364,0.321-0.549,0.757-0.549,1.296c0,0.489,0.155,0.899,0.462,1.22
					c0.313,0.313,0.716,0.472,1.2,0.472c0.331,0,0.601-0.073,0.8-0.215c0.225-0.153,0.344-0.361,0.344-0.602
					c0-0.222-0.095-0.403-0.272-0.52c-0.158-0.111-0.378-0.166-0.673-0.167c-0.032,0-0.062,0-0.089,0.001l1.34-2.344
					c0.19-0.039,0.372-0.066,0.558-0.084c0.204-0.025,0.412-0.038,0.618-0.038c0.225,0,0.493,0.01,0.797,0.03
					c0.322,0.02,0.534,0.03,0.636,0.03c0.386,0,0.694-0.071,0.918-0.214c0.242-0.161,0.365-0.387,0.365-0.672
					c0-0.326-0.135-0.574-0.397-0.733c-0.245-0.156-0.596-0.233-1.076-0.233c-0.111,0-0.232,0.007-0.356,0.02
					c-0.03,0.002-0.06,0.004-0.091,0.006l1.642-2.846c0.012-0.001,0.026-0.003,0.039-0.005c0.281-0.02,0.479-0.029,0.597-0.029
					c1.067,0,1.949,0.337,2.621,1.001c0.676,0.664,1.019,1.531,1.019,2.579c0,1.151-0.396,2.116-1.177,2.866
					c-0.783,0.751-1.796,1.132-3.01,1.132h-0.329c-0.048,0-0.093,0.023-0.122,0.062c-0.028,0.039-0.036,0.089-0.021,0.135
					c0.076,0.229,0.131,0.446,0.166,0.649c0.038,0.185,0.057,0.355,0.057,0.508c0,1.024-0.441,1.83-1.348,2.463
					c-0.906,0.636-2.128,0.958-3.634,0.958c-1.851,0-3.305-0.433-4.32-1.287c-1.008-0.856-1.519-2.066-1.519-3.597
					c0-0.965,0.255-1.82,0.76-2.54c0.502-0.725,1.214-1.255,2.115-1.575c0.052-0.018,0.089-0.063,0.098-0.117
					c0.009-0.054-0.013-0.109-0.056-0.142c-0.339-0.264-0.6-0.571-0.773-0.912c-0.167-0.342-0.252-0.728-0.252-1.148
					c0-0.918,0.35-1.651,1.069-2.242C45.441,20.3,46.389,20,47.542,20 M47.542,19.85c-1.195,0-2.166,0.308-2.915,0.925
					c-0.751,0.616-1.124,1.402-1.124,2.357c0,0.445,0.089,0.848,0.267,1.214c0.186,0.365,0.457,0.686,0.816,0.965
					c-0.934,0.332-1.665,0.875-2.188,1.631c-0.525,0.75-0.787,1.625-0.787,2.626c0,1.586,0.525,2.822,1.572,3.711
					c1.048,0.882,2.52,1.322,4.417,1.322c1.544,0,2.785-0.328,3.72-0.985c0.94-0.656,1.412-1.518,1.412-2.586
					c0-0.166-0.02-0.344-0.06-0.538c-0.034-0.199-0.089-0.421-0.17-0.666h0.329c1.259,0,2.298-0.391,3.114-1.174
					c0.815-0.783,1.223-1.774,1.223-2.974c0-1.094-0.355-1.99-1.064-2.686c-0.704-0.696-1.613-1.044-2.726-1.044
					c-0.12,0-0.322,0.01-0.607,0.03c-0.053,0.006-0.092,0.01-0.119,0.01l-1.831,3.173c0.132-0.02,0.259-0.033,0.378-0.039
					c0.126-0.013,0.242-0.02,0.348-0.02c0.445,0,0.776,0.069,0.995,0.209c0.219,0.133,0.328,0.334,0.328,0.607
					c0,0.232-0.099,0.414-0.298,0.547c-0.198,0.126-0.477,0.189-0.835,0.189c-0.1,0-0.309-0.01-0.626-0.03
					c-0.312-0.02-0.581-0.03-0.806-0.03c-0.213,0-0.424,0.013-0.637,0.039c-0.212,0.02-0.424,0.054-0.636,0.1l-1.512,2.645
					c0.046-0.006,0.092-0.01,0.139-0.01c0.046-0.007,0.12-0.01,0.22-0.01c0.258,0.001,0.454,0.046,0.587,0.14
					c0.139,0.093,0.208,0.225,0.208,0.398c0,0.192-0.093,0.352-0.279,0.477c-0.179,0.127-0.417,0.189-0.716,0.189
					c-0.444,0-0.808-0.143-1.093-0.428c-0.279-0.291-0.419-0.662-0.419-1.114c0-0.497,0.167-0.892,0.498-1.183
					c0.331-0.299,0.779-0.448,1.342-0.448h0.239v-2.606c-0.259-0.039-0.455-0.109-0.587-0.209c-0.125-0.106-0.189-0.241-0.189-0.408
					c0-0.179,0.07-0.329,0.208-0.448c0.146-0.119,0.328-0.179,0.547-0.179c0.113,0,0.242,0.033,0.388,0.099
					c0.152,0.067,0.322,0.169,0.507,0.309l1.691-2.915c-0.55-0.398-1.098-0.693-1.641-0.885C48.629,19.95,48.086,19.85,47.542,19.85
					L47.542,19.85z"/>
			</g>
			<g>
				<path fill-rule="evenodd" clip-rule="evenodd" fill="#FFF100" d="M88.69,14.823l6.752-0.486l-0.284,16.284l0.283,0.188
					c0.266,0.133,0.574,0.288,0.817,0.38c1.431,0.563,2.379,0.867,2.897,0.93c0.198,0.024,0.389,0.037,0.57,0.037
					c0.413,0,0.789-0.064,1.116-0.191c0.485-0.189,0.752-0.457,0.792-0.794c0.044-0.36-0.331-0.715-1.146-1.087l-0.574-0.256
					c-1.632-0.775-2.755-1.585-3.337-2.406c-0.566-0.824-0.777-1.869-0.625-3.104c0.218-1.778,1.065-3.096,2.519-3.918
					c1.083-0.62,2.439-0.935,4.033-0.935c0.557,0,1.153,0.039,1.773,0.114c0.736,0.091,1.52,0.238,2.326,0.437
					c0.8,0.197,1.655,0.449,2.542,0.749l-0.706,5.266c-0.688-0.211-1.328-0.387-1.903-0.522c-0.592-0.15-1.131-0.256-1.603-0.314
					c-0.248-0.031-0.473-0.046-0.675-0.046c-0.312,0-0.573,0.037-0.78,0.11c-0.353,0.115-0.553,0.34-0.594,0.667
					c-0.051,0.417,0.366,0.801,1.274,1.172c0.382,0.159,0.684,0.291,0.906,0.396c1.403,0.648,2.376,1.382,2.894,2.181
					c0.527,0.79,0.719,1.81,0.568,3.032c-0.229,1.856-1.109,3.256-2.617,4.16c-1.136,0.687-2.546,1.035-4.192,1.035
					c-0.534,0-1.104-0.037-1.693-0.109c-0.858-0.104-1.75-0.281-2.65-0.525c-0.694-0.19-1.441-0.435-2.22-0.726
					c-0.009-0.003-0.018-0.005-0.026-0.005c-0.015,0-0.029,0.004-0.042,0.013c-0.021,0.014-0.032,0.037-0.033,0.061l-0.035,2.094
					l-6.756,0.583L88.69,14.823z"/>
				<path fill="#FFFFFF" d="M95.366,14.418L95.084,30.62c-0.001,0.058,0.032,0.112,0.084,0.137l0.235,0.117
					c0.272,0.136,0.579,0.29,0.827,0.385c1.439,0.565,2.393,0.871,2.917,0.935c0.201,0.025,0.395,0.037,0.579,0.037
					c0.423,0,0.808-0.066,1.143-0.197c0.513-0.2,0.795-0.487,0.84-0.854c0.049-0.397-0.34-0.778-1.191-1.165
					c-0.245-0.108-0.435-0.193-0.57-0.254c-1.622-0.771-2.735-1.573-3.308-2.38c-0.556-0.809-0.762-1.837-0.613-3.053
					c0.214-1.753,1.049-3.052,2.482-3.863c1.071-0.613,2.415-0.924,3.995-0.924c0.554,0,1.148,0.038,1.764,0.114
					c0.733,0.09,1.513,0.236,2.318,0.435c0.763,0.188,1.577,0.426,2.421,0.708l-0.632,5.135c-0.657-0.2-1.269-0.367-1.82-0.496
					c-0.597-0.151-1.14-0.258-1.612-0.317c-0.25-0.031-0.48-0.046-0.684-0.046c-0.32,0-0.59,0.038-0.801,0.113
					c-0.379,0.124-0.603,0.376-0.648,0.73c-0.055,0.456,0.377,0.865,1.32,1.25c0.382,0.158,0.682,0.29,0.905,0.395
					c1.39,0.643,2.352,1.367,2.862,2.156c0.517,0.773,0.704,1.776,0.556,2.98c-0.225,1.832-1.094,3.213-2.582,4.105
					c-1.123,0.679-2.52,1.023-4.153,1.023c-0.532,0-1.098-0.036-1.684-0.109c-0.856-0.104-1.744-0.28-2.639-0.523
					c-0.696-0.191-1.44-0.434-2.213-0.724c-0.017-0.006-0.035-0.01-0.053-0.01c-0.03,0-0.059,0.009-0.084,0.026
					c-0.04,0.027-0.065,0.073-0.066,0.121l-0.034,2.026l-6.606,0.57l0.425-24.313L95.366,14.418 M95.518,14.256l-6.903,0.497
					L88.185,39.37l6.906-0.596l0.037-2.161c0.759,0.284,1.501,0.529,2.226,0.728c0.901,0.244,1.787,0.421,2.661,0.527
					c0.594,0.073,1.162,0.11,1.702,0.11c1.668,0,3.078-0.348,4.231-1.045c1.537-0.922,2.421-2.326,2.653-4.215
					c0.153-1.247-0.041-2.275-0.581-3.082c-0.527-0.815-1.503-1.552-2.923-2.208c-0.224-0.105-0.526-0.238-0.91-0.398
					c-0.864-0.353-1.274-0.717-1.228-1.093c0.037-0.297,0.218-0.499,0.545-0.606c0.199-0.07,0.45-0.105,0.754-0.105
					c0.199,0,0.421,0.015,0.666,0.045c0.464,0.058,0.995,0.161,1.594,0.313c0.599,0.141,1.26,0.323,1.983,0.547l0.668-5.434
					c-0.884-0.299-1.732-0.55-2.549-0.751c-0.816-0.201-1.594-0.347-2.335-0.438c-0.625-0.077-1.22-0.115-1.783-0.115
					c-1.613,0-2.97,0.314-4.07,0.944c-1.482,0.838-2.335,2.163-2.556,3.975c-0.155,1.259,0.057,2.311,0.638,3.157
					c0.592,0.835,1.715,1.645,3.367,2.431c0.138,0.062,0.329,0.147,0.574,0.256c0.775,0.353,1.143,0.69,1.103,1.01
					c-0.037,0.31-0.286,0.554-0.745,0.733c-0.32,0.124-0.682,0.187-1.089,0.187c-0.179,0-0.365-0.012-0.561-0.036
					c-0.509-0.062-1.468-0.371-2.88-0.926c-0.319-0.122-0.756-0.353-1.051-0.497L95.518,14.256L95.518,14.256z"/>
			</g>
			<g>
				<path fill-rule="evenodd" clip-rule="evenodd" fill="#FFF100" d="M76.267,41.208c-1.719,0-3.15-0.571-4.253-1.697
					c-1.104-1.137-1.665-2.619-1.665-4.405c0-1.693,0.576-3.084,1.713-4.134c1.148-1.061,2.664-1.599,4.506-1.599
					c0.711,0,1.405,0.105,2.063,0.313c0.669,0.198,1.331,0.509,1.968,0.926c0.013,0.008,0.026,0.012,0.041,0.012
					c0.013,0,0.024-0.003,0.036-0.009c0.023-0.013,0.039-0.039,0.039-0.066v-1.019c0-0.767-0.275-1.344-0.817-1.714
					c-0.539-0.367-1.351-0.546-2.479-0.547c-0.681,0-1.449,0.085-2.284,0.252c-0.377,0.07-0.777,0.161-1.196,0.267
					c-0.144,0.16-0.25,0.292-0.362,0.42c-1.493,1.722-3.611,2.762-6.297,3.092l-0.531,0.064l-0.31,0.005
					c-0.021,0-0.042,0.01-0.056,0.026s-0.021,0.038-0.018,0.059l0.818,6.675l-7.236,1.597l-2.904-23.651l8.241-1.013
					c0.627-0.077,1.236-0.116,1.812-0.116c2.03,0,3.762,0.486,5.147,1.446c1.786,1.228,2.848,3.126,3.157,5.645
					c0.047,0.385,0.07,0.782,0.069,1.18c0,0.021,0.01,0.042,0.026,0.057c0.014,0.012,0.031,0.019,0.049,0.019
					c0.004,0,0.008,0,0.012-0.001c0.517-0.079,1.021-0.145,1.503-0.196c1.061-0.122,2.047-0.183,2.931-0.183
					c2.705,0,4.643,0.482,5.76,1.434c1.112,0.939,1.676,2.565,1.676,4.834v11.532l-6.343,0.489v-1.889
					c0-0.029-0.018-0.056-0.044-0.068c-0.01-0.005-0.021-0.007-0.031-0.007c-0.018,0-0.035,0.006-0.049,0.018
					c-0.775,0.663-1.555,1.158-2.317,1.474C77.874,41.047,77.075,41.208,76.267,41.208z M79.054,33.246
					c-0.499,0-0.909,0.159-1.221,0.473c-0.303,0.302-0.457,0.712-0.457,1.221c0,0.519,0.153,0.941,0.456,1.254
					c0.302,0.303,0.713,0.457,1.222,0.457c0.475,0,0.88-0.165,1.204-0.49c0.325-0.325,0.49-0.736,0.49-1.221
					c0-0.508-0.16-0.919-0.475-1.222C79.964,33.405,79.553,33.246,79.054,33.246z M65.963,20.58c-0.175,0-0.358,0.012-0.551,0.036
					l-0.297,0.036c-0.021,0.002-0.038,0.012-0.05,0.028c-0.013,0.016-0.019,0.036-0.016,0.056l0.627,5.12
					c0.002,0.02,0.013,0.038,0.028,0.05c0.013,0.01,0.029,0.016,0.046,0.016c0.003,0,0.308-0.038,0.308-0.038
					c0.89-0.109,1.537-0.417,1.926-0.915c0.397-0.509,0.546-1.208,0.44-2.075c-0.104-0.845-0.414-1.47-0.925-1.858
					C67.102,20.733,66.585,20.58,65.963,20.58z"/>
				<path fill="#FFFFFF" d="M67.096,14.873v0.15c2.015,0,3.732,0.482,5.105,1.433c1.766,1.215,2.818,3.096,3.125,5.591
					c0.047,0.379,0.07,0.773,0.069,1.171c0,0.044,0.019,0.085,0.052,0.114c0.027,0.024,0.062,0.036,0.098,0.036
					c0.008,0,0.015-0.001,0.023-0.002c0.531-0.081,1.035-0.146,1.502-0.196c1.058-0.121,2.041-0.183,2.921-0.183
					c2.687,0,4.608,0.476,5.712,1.416c1.094,0.924,1.649,2.531,1.649,4.776v11.463l-6.194,0.477v-1.808
					c0-0.059-0.034-0.112-0.087-0.136c-0.02-0.009-0.041-0.014-0.063-0.014c-0.035,0-0.07,0.012-0.097,0.036
					c-0.767,0.656-1.54,1.148-2.297,1.461c-0.758,0.313-1.547,0.472-2.345,0.472c-1.698,0-3.111-0.563-4.199-1.674
					c-1.091-1.122-1.644-2.587-1.644-4.353c0-1.672,0.568-3.044,1.689-4.079c1.133-1.047,2.632-1.579,4.455-1.579
					c0.704,0,1.391,0.104,2.044,0.311c0.662,0.196,1.316,0.504,1.946,0.916c0.025,0.016,0.054,0.025,0.082,0.025
					c0.024,0,0.049-0.006,0.071-0.018c0.048-0.026,0.079-0.077,0.079-0.132v-1.018c0-0.794-0.286-1.391-0.849-1.776
					c-0.552-0.376-1.377-0.559-2.522-0.56c-0.685,0-1.459,0.086-2.297,0.254c-0.364,0.067-0.757,0.155-1.202,0.268
					c-0.033,0.008-0.061,0.027-0.082,0.054c-0.101,0.131-0.206,0.262-0.319,0.39c-1.48,1.707-3.583,2.739-6.25,3.066l-0.515,0.064
					l-0.318,0.006c-0.043,0.001-0.083,0.019-0.111,0.052c-0.028,0.032-0.041,0.074-0.036,0.117l0.811,6.608l-7.09,1.564
					l-2.885-23.494l8.167-1.003c0.624-0.077,1.23-0.115,1.802-0.115V14.873 M65.751,25.995c0.006,0,0.012,0,0.018-0.001l0.299-0.036
					c0.909-0.112,1.574-0.429,1.976-0.943c0.41-0.526,0.563-1.243,0.456-2.13c-0.106-0.866-0.427-1.509-0.953-1.909
					c-0.412-0.313-0.945-0.471-1.584-0.471c-0.177,0-0.365,0.012-0.56,0.036l-0.297,0.036c-0.039,0.005-0.075,0.025-0.1,0.056
					c-0.025,0.031-0.036,0.071-0.031,0.111l0.628,5.12C65.611,25.94,65.676,25.995,65.751,25.995 M79.054,36.725
					c0.495,0,0.919-0.172,1.258-0.512c0.34-0.339,0.512-0.768,0.512-1.274c0-0.529-0.167-0.959-0.495-1.274
					c-0.327-0.328-0.756-0.495-1.275-0.495c-0.518,0-0.947,0.167-1.274,0.495c-0.317,0.317-0.478,0.745-0.478,1.274
					c0,0.539,0.16,0.978,0.478,1.308C78.096,36.565,78.525,36.725,79.054,36.725 M67.096,14.873c-0.581,0-1.188,0.039-1.82,0.117
					l-8.316,1.022l2.923,23.807l7.384-1.629l-0.827-6.743l0.318-0.006l0.53-0.065c2.717-0.333,4.832-1.372,6.345-3.117
					c0.114-0.13,0.221-0.263,0.324-0.397c0.417-0.106,0.817-0.196,1.193-0.266c0.834-0.167,1.59-0.251,2.27-0.251
					c1.102,0.001,1.914,0.178,2.437,0.534c0.522,0.357,0.784,0.907,0.784,1.652v1.018c-0.646-0.423-1.307-0.734-1.985-0.935
					c-0.668-0.211-1.364-0.317-2.087-0.317c-1.87,0.001-3.388,0.54-4.556,1.619c-1.158,1.069-1.737,2.465-1.737,4.189
					c0,1.815,0.562,3.301,1.686,4.458c1.123,1.146,2.558,1.72,4.307,1.72c0.823,0,1.624-0.162,2.403-0.484
					c0.78-0.323,1.558-0.819,2.337-1.486v1.97l6.494-0.501V29.18c0-2.303-0.568-3.933-1.703-4.891
					c-1.136-0.967-3.072-1.452-5.809-1.452c-0.891,0-1.869,0.061-2.938,0.184c-0.484,0.051-0.988,0.118-1.507,0.197
					c0.001-0.387-0.02-0.783-0.07-1.189c-0.314-2.552-1.376-4.451-3.189-5.697C70.881,15.359,69.151,14.873,67.096,14.873
					L67.096,14.873z M65.751,25.845l-0.628-5.12l0.297-0.036c0.189-0.023,0.37-0.035,0.542-0.035c0.61,0,1.107,0.147,1.493,0.441
					c0.495,0.376,0.794,0.979,0.895,1.807c0.103,0.851-0.038,1.524-0.425,2.02c-0.379,0.484-1.003,0.779-1.876,0.886L65.751,25.845
					L65.751,25.845z M79.054,36.575c-0.49,0-0.879-0.145-1.168-0.434c-0.29-0.3-0.434-0.701-0.434-1.202
					c0-0.489,0.144-0.879,0.434-1.168c0.3-0.302,0.69-0.451,1.168-0.451c0.479,0,0.868,0.149,1.169,0.451
					c0.3,0.289,0.451,0.679,0.451,1.168c0,0.468-0.156,0.857-0.468,1.168C79.894,36.42,79.511,36.575,79.054,36.575L79.054,36.575z"
					/>
			</g>
			<g>
				<path fill-rule="evenodd" clip-rule="evenodd" fill="#FFF100" d="M15.949,22.295c-0.004-0.039-0.036-0.067-0.074-0.067
					c-0.003,0-5.514,0.58-5.514,0.58l0.896-6.899l16.059-1.631l0.703,6.674l-4.682,0.492c-0.02,0.002-0.038,0.012-0.051,0.027
					c-0.012,0.016-0.019,0.036-0.016,0.055l1.719,16.368l-7.242,1.5L15.949,22.295z"/>
				<path fill="#FFFFFF" d="M27.249,14.36l0.687,6.525l-4.607,0.484c-0.082,0.009-0.142,0.082-0.133,0.165l1.713,16.3l-7.096,1.47
					l-1.789-17.017c-0.008-0.077-0.073-0.134-0.149-0.134c-0.005,0-0.011,0-0.016,0.001l-5.412,0.569l0.869-6.688L27.249,14.36
					 M27.383,14.195l-16.2,1.703l-0.909,6.994l5.601-0.589l1.807,17.181l7.391-1.531l-1.727-16.435l4.756-0.5L27.383,14.195
					L27.383,14.195z"/>
			</g>
		</g>
	</g>
	<g>
		<path fill="#16498C" d="M102.017,16.02v-1.776h-0.531l0.167-0.706h1.577v0.706h-0.443v1.7L102.017,16.02z"/>
		<path fill="#16498C" d="M103.311,15.96l0.332-2.422h0.701l0.322,1.016l0.328-1.016h0.691l0.289,2.422l-0.766,0.051l-0.11-1.215
			l-0.453,1.289l-0.454-1.289l-0.123,1.215L103.311,15.96z"/>
	</g>
</g>
<g>
	<g>
		<path fill="none" stroke="#329129" stroke-width="0.7706" d="M14.965,58.864l-0.696-3.008h-0.016l-0.672,3.008h-1.607
			l-1.259-5.684l1.772-0.132l0.622,2.858h0.017l0.597-2.726h1.109l0.63,2.759h0.017l0.622-2.892l1.739,0.132l-1.275,5.684H14.965z"
			/>
		<path fill="none" stroke="#329129" stroke-width="0.7706" d="M19.798,52.832v2.08h0.017c0.24-0.323,0.58-0.456,0.978-0.456
			c0.82,0,1.284,0.638,1.284,1.475v2.867l-1.607,0.133v-2.701c0-0.174-0.133-0.307-0.331-0.307c-0.183,0-0.34,0.116-0.34,0.315v2.56
			L18.19,58.93v-5.966L19.798,52.832z"/>
		<path fill="none" stroke="#329129" stroke-width="0.7706" d="M27.026,58.375c-0.597,0.431-1.202,0.621-2.014,0.621
			c-1.343,0-2.295-0.986-2.295-2.179c0-1.483,1.011-2.361,2.236-2.361c0.986,0,1.74,0.547,2.097,1.383l-2.221,1.674
			c0.116,0.058,0.315,0.075,0.464,0.075c0.447,0,0.737-0.19,1.003-0.415L27.026,58.375z M25.443,55.947
			c-0.133-0.174-0.298-0.215-0.505-0.215c-0.398,0-0.672,0.373-0.672,0.746c0,0.182,0.033,0.232,0.066,0.307L25.443,55.947z"/>
		<path fill="none" stroke="#329129" stroke-width="0.7706" d="M27.618,54.588l1.508-0.132v0.82h0.017
			c0.125-0.539,0.506-0.82,1.11-0.82c0.125,0,0.257,0.008,0.382,0.025l-0.39,1.574c-0.066-0.008-0.133-0.008-0.257-0.008
			c-0.414,0-0.763,0.265-0.763,0.845v1.906l-1.607,0.133V54.588z"/>
		<path fill="none" stroke="#329129" stroke-width="0.7706" d="M35.082,58.375c-0.597,0.431-1.202,0.621-2.014,0.621
			c-1.343,0-2.295-0.986-2.295-2.179c0-1.483,1.011-2.361,2.236-2.361c0.986,0,1.74,0.547,2.097,1.383l-2.221,1.674
			c0.116,0.058,0.315,0.075,0.464,0.075c0.447,0,0.737-0.19,1.003-0.415L35.082,58.375z M33.499,55.947
			c-0.133-0.174-0.298-0.215-0.506-0.215c-0.397,0-0.671,0.373-0.671,0.746c0,0.182,0.033,0.232,0.066,0.307L33.499,55.947z"/>
		<path fill="none" stroke="#329129" stroke-width="0.7706" d="M38.091,58.93v-5.966l1.607-0.132v5.965L38.091,58.93z"/>
		<path fill="none" stroke="#329129" stroke-width="0.7706" d="M44.635,58.375c-0.597,0.431-1.202,0.621-2.014,0.621
			c-1.343,0-2.295-0.986-2.295-2.179c0-1.483,1.011-2.361,2.236-2.361c0.986,0,1.74,0.547,2.097,1.383l-2.221,1.674
			c0.116,0.058,0.315,0.075,0.464,0.075c0.447,0,0.737-0.19,1.003-0.415L44.635,58.375z M43.052,55.947
			c-0.133-0.174-0.298-0.215-0.505-0.215c-0.398,0-0.672,0.373-0.672,0.746c0,0.182,0.033,0.232,0.066,0.307L43.052,55.947z"/>
		<path fill="none" stroke="#329129" stroke-width="0.7706" d="M47.588,58.996v-0.505h-0.017c-0.265,0.373-0.695,0.505-1.176,0.505
			c-0.787,0-1.467-0.596-1.467-1.533c0-0.804,0.671-1.408,1.533-1.408c0.447,0,0.754,0.157,0.969,0.331v-0.224
			c0-0.464-0.331-0.563-0.804-0.563c-0.431,0-0.795,0.1-1.177,0.224l0.29-1.185c0.464-0.133,1.003-0.182,1.524-0.182
			c0.979,0,1.89,0.431,1.89,1.607v2.8L47.588,58.996z M47.074,57.066c-0.231,0-0.422,0.157-0.422,0.389
			c0,0.224,0.157,0.398,0.422,0.398c0.266,0,0.415-0.182,0.415-0.398C47.489,57.265,47.356,57.066,47.074,57.066z"/>
		<path fill="none" stroke="#329129" stroke-width="0.7706" d="M49.945,54.588l1.509-0.132v0.82h0.016
			c0.125-0.539,0.506-0.82,1.11-0.82c0.125,0,0.257,0.008,0.382,0.025l-0.39,1.574c-0.066-0.008-0.133-0.008-0.257-0.008
			c-0.414,0-0.763,0.265-0.763,0.845v1.906l-1.607,0.133V54.588z"/>
		<path fill="none" stroke="#329129" stroke-width="0.7706" d="M54.799,54.456v0.571h0.033c0.323-0.439,0.663-0.571,1.061-0.571
			c0.82,0,1.284,0.638,1.284,1.475v2.867l-1.607,0.133v-2.701c0-0.174-0.133-0.307-0.331-0.307c-0.183,0-0.34,0.116-0.34,0.315v2.56
			l-1.607,0.133v-4.342L54.799,54.456z"/>
		<path fill="none" stroke="#329129" stroke-width="0.7706" d="M57.809,53.437l0.961-0.953l1.036,0.937l-0.97,0.87L57.809,53.437z
			 M58,58.93v-4.275l1.607-0.133v4.275L58,58.93z"/>
		<path fill="none" stroke="#329129" stroke-width="0.7706" d="M61.934,54.456v0.571h0.033c0.323-0.439,0.663-0.571,1.061-0.571
			c0.82,0,1.284,0.638,1.284,1.475v2.867l-1.607,0.133v-2.701c0-0.174-0.133-0.307-0.331-0.307c-0.183,0-0.34,0.116-0.34,0.315v2.56
			l-1.607,0.133v-4.342L61.934,54.456z"/>
		<path fill="none" stroke="#329129" stroke-width="0.7706" d="M65.709,58.872c0.34,0.124,0.688,0.207,1.068,0.207
			c0.315,0,0.663-0.066,0.663-0.431c0-0.39-0.414-0.48-0.861-0.48c-0.257,0-0.506,0.033-0.763,0.058l0.141-0.298
			c-0.654-0.323-1.027-0.87-1.027-1.649c0-0.804,0.605-1.823,1.997-1.823c0.356,0,0.613,0.049,0.845,0.132l1.317-0.265L68.7,55.077
			c0.314,0.307,0.48,0.721,0.48,1.177c0,0.621-0.257,1.044-0.746,1.367c0.473,0.265,0.729,0.688,0.729,1.234
			c0,1.052-0.961,1.632-2.395,1.632c-0.87,0-1.426-0.19-1.781-0.307L65.709,58.872z M67.1,56.817c0.266,0,0.447-0.191,0.447-0.448
			s-0.182-0.447-0.447-0.447c-0.265,0-0.447,0.19-0.447,0.447S66.836,56.817,67.1,56.817z"/>
		<path fill="none" stroke="#329129" stroke-width="0.7706" d="M72.082,53.437l0.961-0.953l1.036,0.937l-0.97,0.87L72.082,53.437z
			 M72.272,58.93v-4.275l1.607-0.133v4.275L72.272,58.93z"/>
		<path fill="none" stroke="#329129" stroke-width="0.7706" d="M74.558,57.455c0.265,0.083,0.53,0.133,0.845,0.133
			c0.281,0,0.646,0.008,0.646-0.215c0-0.439-1.524-0.1-1.524-1.574c0-0.646,0.497-1.342,1.781-1.342
			c0.488,0,1.011,0.099,1.268,0.157v1.301c-0.24-0.058-0.473-0.1-0.746-0.1c-0.115,0-0.58,0-0.58,0.208
			c0,0.456,1.591,0.116,1.591,1.591c0,1.077-1.002,1.383-2.062,1.383c-0.406,0-0.82-0.041-1.218-0.149V57.455z"/>
		<path fill="none" stroke="#329129" stroke-width="0.7706" d="M81.049,58.93v-3.066h-0.514l0.24-1.276h0.273
			c0-1.069,0.53-1.756,1.731-1.756c0.166,0,0.29,0.025,0.439,0.05l0.19,1.226h-0.248c-0.323,0-0.506,0.182-0.506,0.48h0.638v1.276
			h-0.638v2.933L81.049,58.93z"/>
		<path fill="none" stroke="#329129" stroke-width="0.7706" d="M86.242,58.93v-0.688h-0.017c-0.19,0.547-0.639,0.754-1.202,0.754
			c-0.737,0-1.242-0.456-1.242-1.292v-3.115l1.607-0.132v2.742c0,0.24,0.107,0.332,0.34,0.332c0.198,0,0.331-0.083,0.331-0.323
			v-2.618l1.607-0.132v4.408L86.242,58.93z"/>
		<path fill="none" stroke="#329129" stroke-width="0.7706" d="M90.008,54.456v0.571h0.033c0.323-0.439,0.663-0.571,1.061-0.571
			c0.82,0,1.284,0.638,1.284,1.475v2.867l-1.607,0.133v-2.701c0-0.174-0.133-0.307-0.331-0.307c-0.183,0-0.34,0.116-0.34,0.315v2.56
			L88.5,58.93v-4.342L90.008,54.456z"/>
	</g>
	<g>
		<path fill="#FEDB14" d="M14.965,58.864l-0.696-3.008h-0.016l-0.672,3.008h-1.607l-1.259-5.684l1.772-0.132l0.622,2.858h0.017
			l0.597-2.726h1.109l0.63,2.759h0.017l0.622-2.892l1.739,0.132l-1.275,5.684H14.965z"/>
		<path fill="#FEDB14" d="M19.798,52.832v2.08h0.017c0.24-0.323,0.58-0.456,0.978-0.456c0.82,0,1.284,0.638,1.284,1.475v2.867
			l-1.607,0.133v-2.701c0-0.174-0.133-0.307-0.331-0.307c-0.183,0-0.34,0.116-0.34,0.315v2.56L18.19,58.93v-5.966L19.798,52.832z"/>
		<path fill="#FEDB14" d="M27.026,58.375c-0.597,0.431-1.202,0.621-2.014,0.621c-1.343,0-2.295-0.986-2.295-2.179
			c0-1.483,1.011-2.361,2.236-2.361c0.986,0,1.74,0.547,2.097,1.383l-2.221,1.674c0.116,0.058,0.315,0.075,0.464,0.075
			c0.447,0,0.737-0.19,1.003-0.415L27.026,58.375z M25.443,55.947c-0.133-0.174-0.298-0.215-0.505-0.215
			c-0.398,0-0.672,0.373-0.672,0.746c0,0.182,0.033,0.232,0.066,0.307L25.443,55.947z"/>
		<path fill="#FEDB14" d="M27.618,54.588l1.508-0.132v0.82h0.017c0.125-0.539,0.506-0.82,1.11-0.82c0.125,0,0.257,0.008,0.382,0.025
			l-0.39,1.574c-0.066-0.008-0.133-0.008-0.257-0.008c-0.414,0-0.763,0.265-0.763,0.845v1.906l-1.607,0.133V54.588z"/>
		<path fill="#FEDB14" d="M35.082,58.375c-0.597,0.431-1.202,0.621-2.014,0.621c-1.343,0-2.295-0.986-2.295-2.179
			c0-1.483,1.011-2.361,2.236-2.361c0.986,0,1.74,0.547,2.097,1.383l-2.221,1.674c0.116,0.058,0.315,0.075,0.464,0.075
			c0.447,0,0.737-0.19,1.003-0.415L35.082,58.375z M33.499,55.947c-0.133-0.174-0.298-0.215-0.506-0.215
			c-0.397,0-0.671,0.373-0.671,0.746c0,0.182,0.033,0.232,0.066,0.307L33.499,55.947z"/>
		<path fill="#FEDB14" d="M38.091,58.93v-5.966l1.607-0.132v5.965L38.091,58.93z"/>
		<path fill="#FEDB14" d="M44.635,58.375c-0.597,0.431-1.202,0.621-2.014,0.621c-1.343,0-2.295-0.986-2.295-2.179
			c0-1.483,1.011-2.361,2.236-2.361c0.986,0,1.74,0.547,2.097,1.383l-2.221,1.674c0.116,0.058,0.315,0.075,0.464,0.075
			c0.447,0,0.737-0.19,1.003-0.415L44.635,58.375z M43.052,55.947c-0.133-0.174-0.298-0.215-0.505-0.215
			c-0.398,0-0.672,0.373-0.672,0.746c0,0.182,0.033,0.232,0.066,0.307L43.052,55.947z"/>
		<path fill="#FEDB14" d="M47.588,58.996v-0.505h-0.017c-0.265,0.373-0.695,0.505-1.176,0.505c-0.787,0-1.467-0.596-1.467-1.533
			c0-0.804,0.671-1.408,1.533-1.408c0.447,0,0.754,0.157,0.969,0.331v-0.224c0-0.464-0.331-0.563-0.804-0.563
			c-0.431,0-0.795,0.1-1.177,0.224l0.29-1.185c0.464-0.133,1.003-0.182,1.524-0.182c0.979,0,1.89,0.431,1.89,1.607v2.8
			L47.588,58.996z M47.074,57.066c-0.231,0-0.422,0.157-0.422,0.389c0,0.224,0.157,0.398,0.422,0.398
			c0.266,0,0.415-0.182,0.415-0.398C47.489,57.265,47.356,57.066,47.074,57.066z"/>
		<path fill="#FEDB14" d="M49.945,54.588l1.509-0.132v0.82h0.016c0.125-0.539,0.506-0.82,1.11-0.82c0.125,0,0.257,0.008,0.382,0.025
			l-0.39,1.574c-0.066-0.008-0.133-0.008-0.257-0.008c-0.414,0-0.763,0.265-0.763,0.845v1.906l-1.607,0.133V54.588z"/>
		<path fill="#FEDB14" d="M54.799,54.456v0.571h0.033c0.323-0.439,0.663-0.571,1.061-0.571c0.82,0,1.284,0.638,1.284,1.475v2.867
			l-1.607,0.133v-2.701c0-0.174-0.133-0.307-0.331-0.307c-0.183,0-0.34,0.116-0.34,0.315v2.56l-1.607,0.133v-4.342L54.799,54.456z"
			/>
		<path fill="#FEDB14" d="M57.809,53.437l0.961-0.953l1.036,0.937l-0.97,0.87L57.809,53.437z M58,58.93v-4.275l1.607-0.133v4.275
			L58,58.93z"/>
		<path fill="#FEDB14" d="M61.934,54.456v0.571h0.033c0.323-0.439,0.663-0.571,1.061-0.571c0.82,0,1.284,0.638,1.284,1.475v2.867
			l-1.607,0.133v-2.701c0-0.174-0.133-0.307-0.331-0.307c-0.183,0-0.34,0.116-0.34,0.315v2.56l-1.607,0.133v-4.342L61.934,54.456z"
			/>
		<path fill="#FEDB14" d="M65.709,58.872c0.34,0.124,0.688,0.207,1.068,0.207c0.315,0,0.663-0.066,0.663-0.431
			c0-0.39-0.414-0.48-0.861-0.48c-0.257,0-0.506,0.033-0.763,0.058l0.141-0.298c-0.654-0.323-1.027-0.87-1.027-1.649
			c0-0.804,0.605-1.823,1.997-1.823c0.356,0,0.613,0.049,0.845,0.132l1.317-0.265L68.7,55.077c0.314,0.307,0.48,0.721,0.48,1.177
			c0,0.621-0.257,1.044-0.746,1.367c0.473,0.265,0.729,0.688,0.729,1.234c0,1.052-0.961,1.632-2.395,1.632
			c-0.87,0-1.426-0.19-1.781-0.307L65.709,58.872z M67.1,56.817c0.266,0,0.447-0.191,0.447-0.448s-0.182-0.447-0.447-0.447
			c-0.265,0-0.447,0.19-0.447,0.447S66.836,56.817,67.1,56.817z"/>
		<path fill="#FEDB14" d="M72.082,53.437l0.961-0.953l1.036,0.937l-0.97,0.87L72.082,53.437z M72.272,58.93v-4.275l1.607-0.133
			v4.275L72.272,58.93z"/>
		<path fill="#FEDB14" d="M74.558,57.455c0.265,0.083,0.53,0.133,0.845,0.133c0.281,0,0.646,0.008,0.646-0.215
			c0-0.439-1.524-0.1-1.524-1.574c0-0.646,0.497-1.342,1.781-1.342c0.488,0,1.011,0.099,1.268,0.157v1.301
			c-0.24-0.058-0.473-0.1-0.746-0.1c-0.115,0-0.58,0-0.58,0.208c0,0.456,1.591,0.116,1.591,1.591c0,1.077-1.002,1.383-2.062,1.383
			c-0.406,0-0.82-0.041-1.218-0.149V57.455z"/>
		<path fill="#FEDB14" d="M81.049,58.93v-3.066h-0.514l0.24-1.276h0.273c0-1.069,0.53-1.756,1.731-1.756
			c0.166,0,0.29,0.025,0.439,0.05l0.19,1.226h-0.248c-0.323,0-0.506,0.182-0.506,0.48h0.638v1.276h-0.638v2.933L81.049,58.93z"/>
		<path fill="#FEDB14" d="M86.242,58.93v-0.688h-0.017c-0.19,0.547-0.639,0.754-1.202,0.754c-0.737,0-1.242-0.456-1.242-1.292
			v-3.115l1.607-0.132v2.742c0,0.24,0.107,0.332,0.34,0.332c0.198,0,0.331-0.083,0.331-0.323v-2.618l1.607-0.132v4.408L86.242,58.93
			z"/>
		<path fill="#FEDB14" d="M90.008,54.456v0.571h0.033c0.323-0.439,0.663-0.571,1.061-0.571c0.82,0,1.284,0.638,1.284,1.475v2.867
			l-1.607,0.133v-2.701c0-0.174-0.133-0.307-0.331-0.307c-0.183,0-0.34,0.116-0.34,0.315v2.56L88.5,58.93v-4.342L90.008,54.456z"/>
	</g>
</g>
<g>
	<g>
		<rect x="526.565" y="22.316" fill="#FDF229" width="20.302" height="1.885"/>
		<rect x="526.565" y="25.565" fill="#FDF229" width="20.302" height="1.885"/>
		<rect x="526.565" y="28.813" fill="#FDF229" width="20.302" height="1.885"/>
		<rect x="526.565" y="32.062" fill="#FDF229" width="20.302" height="1.885"/>
	</g>
</g>
<g>
	
		<image overflow="visible" opacity="0.24" width="223" height="51" xlink:href="ED07A1F1.png"  transform="matrix(1 0 0 1 220.2667 3.0902)">
	</image>
	<g>
		<g>
			<path fill="none" stroke="#329129" stroke-width="1.267" d="M232.705,31.372V17.817l4.299-0.338v9.835h4.566l-0.915,4.058
				H232.705z"/>
			<path fill="none" stroke="#329129" stroke-width="1.267" d="M242.43,31.372V17.644h7.521l0.801,3.661h-4.023v1.266h2.555v3.555
				h-2.555v1.372h4.28l-0.839,3.874H242.43z"/>
			<path fill="none" stroke="#329129" stroke-width="1.267" d="M250.821,31.294l4.558-13.651h5.128l4.472,13.651l-4.643,0.357
				l-0.687-2.416h-3.575l-0.715,2.416L250.821,31.294z M256.818,25.672h2.03l-0.973-4.039L256.818,25.672z"/>
			<path fill="none" stroke="#329129" stroke-width="1.267" d="M265.839,31.69V17.644h5.338c1.646,0,2.906,0.349,3.78,1.048
				c0.874,0.699,1.311,1.708,1.311,3.028c0,0.812-0.176,1.52-0.529,2.125c-0.353,0.605-0.865,1.082-1.539,1.43l2.497,5.835
				l-4.471,0.58l-2.126-5.961v5.623L265.839,31.69z M270.099,21.382v3.304h0.058c0.591,0,1.045-0.145,1.363-0.435
				c0.317-0.29,0.477-0.699,0.477-1.227c0-0.528-0.159-0.934-0.477-1.217c-0.318-0.283-0.772-0.425-1.363-0.425H270.099z"/>
			<path fill="none" stroke="#329129" stroke-width="1.267" d="M277.71,31.594v-13.95h4.146l3.938,6.424v-6.386l4.146-0.261v13.95
				h-4.146l-3.938-6.608v6.531L277.71,31.594z"/>
			<path fill="none" stroke="#329129" stroke-width="1.267" d="M299.249,31.372l-2.889-13.593l4.224-0.416l1.401,7.362l1.449-7.082
				h2.707l1.411,7.082l1.382-7.362l4.118,0.416l-2.983,13.593h-3.842l-1.525-7.555l-1.602,7.555H299.249z"/>
			<path fill="none" stroke="#329129" stroke-width="1.267" d="M320.377,17.305c0.985,0,1.907,0.167,2.765,0.502
				c0.858,0.335,1.617,0.821,2.278,1.459c0.687,0.65,1.206,1.42,1.559,2.309c0.353,0.889,0.529,1.865,0.529,2.927
				c0,1.069-0.175,2.043-0.524,2.923c-0.35,0.879-0.871,1.653-1.563,2.323c-0.667,0.638-1.432,1.124-2.292,1.459
				c-0.861,0.334-1.778,0.502-2.751,0.502c-0.966,0-1.876-0.167-2.731-0.502c-0.854-0.335-1.615-0.821-2.282-1.459
				c-0.693-0.67-1.215-1.444-1.563-2.323c-0.35-0.879-0.524-1.854-0.524-2.923c0-1.062,0.175-2.033,0.524-2.913
				c0.349-0.879,0.87-1.653,1.563-2.323c0.667-0.644,1.428-1.132,2.282-1.464C318.501,17.471,319.411,17.305,320.377,17.305z
				 M320.377,27.652c0.858,0,1.538-0.284,2.04-0.851c0.502-0.566,0.753-1.333,0.753-2.299c0-0.959-0.251-1.723-0.753-2.29
				c-0.502-0.566-1.182-0.85-2.04-0.85c-0.845,0-1.518,0.282-2.016,0.845c-0.499,0.564-0.749,1.329-0.749,2.294
				c0,0.973,0.25,1.741,0.749,2.304C318.859,27.371,319.532,27.652,320.377,27.652z"/>
			<path fill="none" stroke="#329129" stroke-width="1.267" d="M328.968,31.69V17.644h5.338c1.646,0,2.906,0.349,3.78,1.048
				c0.874,0.699,1.311,1.708,1.311,3.028c0,0.812-0.176,1.52-0.529,2.125c-0.353,0.605-0.865,1.082-1.539,1.43l2.497,5.835
				l-4.471,0.58l-2.126-5.961v5.623L328.968,31.69z M333.229,21.382v3.304h0.058c0.591,0,1.045-0.145,1.363-0.435
				c0.317-0.29,0.477-0.699,0.477-1.227c0-0.528-0.159-0.934-0.477-1.217c-0.318-0.283-0.772-0.425-1.363-0.425H333.229z"/>
			<path fill="none" stroke="#329129" stroke-width="1.267" d="M340.84,31.372V17.644h5.119c0.654,0,1.296,0.087,1.926,0.261
				c0.629,0.174,1.197,0.422,1.706,0.744c0.953,0.612,1.695,1.43,2.226,2.454c0.531,1.024,0.797,2.158,0.797,3.4
				c0,1.25-0.266,2.387-0.797,3.411c-0.53,1.024-1.272,1.842-2.226,2.454c-0.509,0.322-1.077,0.57-1.706,0.744
				c-0.63,0.174-1.271,0.261-1.926,0.261H340.84z M345.138,21.653v5.7h0.153c0.94,0,1.671-0.25,2.192-0.749
				c0.521-0.499,0.781-1.2,0.781-2.102c0-0.908-0.262-1.61-0.786-2.106c-0.524-0.496-1.267-0.744-2.227-0.744H345.138z"/>
			<path fill="none" stroke="#329129" stroke-width="1.267" d="M353.863,31.256v-3.894c0.179,0.026,0.439,0.071,0.782,0.135
				c1.373,0.251,2.31,0.377,2.812,0.377c0.406,0,0.735-0.079,0.986-0.237s0.377-0.359,0.377-0.604c0-0.257-0.324-0.515-0.973-0.773
				c-0.299-0.116-0.534-0.212-0.705-0.29c-1.291-0.593-2.189-1.198-2.698-1.816s-0.763-1.385-0.763-2.299
				c0-1.301,0.497-2.358,1.492-3.173c0.994-0.815,2.302-1.222,3.923-1.222c0.629,0,1.227,0.034,1.792,0.102
				c0.565,0.067,1.093,0.166,1.582,0.294v3.845c-0.616-0.187-1.166-0.324-1.648-0.411c-0.483-0.087-0.929-0.13-1.335-0.13
				c-0.451,0-0.796,0.06-1.034,0.179s-0.357,0.292-0.357,0.517c0,0.29,0.355,0.577,1.067,0.86c0.438,0.174,0.788,0.329,1.049,0.464
				c1.163,0.599,1.957,1.187,2.383,1.763c0.426,0.576,0.639,1.309,0.639,2.198c0,1.449-0.497,2.56-1.491,3.333
				c-0.995,0.773-2.43,1.159-4.305,1.159c-0.826,0-1.522-0.031-2.088-0.092S354.289,31.384,353.863,31.256z"/>
			<path fill="none" stroke="#329129" stroke-width="1.267" d="M381.571,30.521c-0.833,0.393-1.647,0.689-2.445,0.889
				s-1.571,0.299-2.321,0.299c-0.966,0-1.876-0.167-2.731-0.502c-0.854-0.335-1.615-0.821-2.282-1.459
				c-0.693-0.67-1.215-1.444-1.563-2.323c-0.35-0.879-0.524-1.854-0.524-2.923c0-1.062,0.175-2.033,0.524-2.913
				c0.349-0.879,0.87-1.653,1.563-2.323c0.667-0.644,1.428-1.132,2.282-1.464c0.855-0.332,1.766-0.498,2.731-0.498
				c0.915,0,1.748,0.132,2.498,0.396c0.75,0.264,1.462,0.673,2.135,1.227l-2.23,3.362c-0.362-0.316-0.738-0.549-1.13-0.701
				c-0.391-0.151-0.814-0.227-1.272-0.227c-0.852,0-1.536,0.287-2.054,0.86c-0.519,0.573-0.777,1.333-0.777,2.28
				c0,0.908,0.259,1.664,0.777,2.266c0.518,0.603,1.158,0.903,1.921,0.903c0.114,0,0.236-0.01,0.366-0.029
				c0.131-0.02,0.256-0.048,0.377-0.087V26.29h-1.992l0.763-3.149h5.386V30.521z"/>
			<path fill="none" stroke="#329129" stroke-width="1.267" d="M382.536,31.294l4.558-13.651h5.128l4.472,13.651l-4.643,0.357
				l-0.687-2.416h-3.575l-0.715,2.416L382.536,31.294z M388.533,25.672h2.03l-0.973-4.039L388.533,25.672z"/>
			<path fill="none" stroke="#329129" stroke-width="1.267" d="M396.894,31.275l1.85-13.631h3.89l1.792,5.719l1.82-5.719h3.842
				l1.602,13.631l-4.251,0.29l-0.61-6.84l-2.517,7.255l-2.517-7.255l-0.687,6.84L396.894,31.275z"/>
			<path fill="none" stroke="#329129" stroke-width="1.267" d="M413.151,31.372V17.644h7.521l0.801,3.661h-4.023v1.266h2.555v3.555
				h-2.555v1.372h4.28l-0.839,3.874H413.151z"/>
		</g>
		<g>
			<path fill="#FEFD01" d="M232.705,31.372V17.817l4.299-0.338v9.835h4.566l-0.915,4.058H232.705z"/>
			<path fill="#FEFD01" d="M242.43,31.372V17.644h7.521l0.801,3.661h-4.023v1.266h2.555v3.555h-2.555v1.372h4.28l-0.839,3.874
				H242.43z"/>
			<path fill="#FEFD01" d="M250.821,31.294l4.558-13.651h5.128l4.472,13.651l-4.643,0.357l-0.687-2.416h-3.575l-0.715,2.416
				L250.821,31.294z M256.818,25.672h2.03l-0.973-4.039L256.818,25.672z"/>
			<path fill="#FEFD01" d="M265.839,31.69V17.644h5.338c1.646,0,2.906,0.349,3.78,1.048c0.874,0.699,1.311,1.708,1.311,3.028
				c0,0.812-0.176,1.52-0.529,2.125c-0.353,0.605-0.865,1.082-1.539,1.43l2.497,5.835l-4.471,0.58l-2.126-5.961v5.623L265.839,31.69
				z M270.099,21.382v3.304h0.058c0.591,0,1.045-0.145,1.363-0.435c0.317-0.29,0.477-0.699,0.477-1.227
				c0-0.528-0.159-0.934-0.477-1.217c-0.318-0.283-0.772-0.425-1.363-0.425H270.099z"/>
			<path fill="#FEFD01" d="M277.71,31.594v-13.95h4.146l3.938,6.424v-6.386l4.146-0.261v13.95h-4.146l-3.938-6.608v6.531
				L277.71,31.594z"/>
			<path fill="#FEFD01" d="M299.249,31.372l-2.889-13.593l4.224-0.416l1.401,7.362l1.449-7.082h2.707l1.411,7.082l1.382-7.362
				l4.118,0.416l-2.983,13.593h-3.842l-1.525-7.555l-1.602,7.555H299.249z"/>
			<path fill="#FEFD01" d="M320.377,17.305c0.985,0,1.907,0.167,2.765,0.502c0.858,0.335,1.617,0.821,2.278,1.459
				c0.687,0.65,1.206,1.42,1.559,2.309c0.353,0.889,0.529,1.865,0.529,2.927c0,1.069-0.175,2.043-0.524,2.923
				c-0.35,0.879-0.871,1.653-1.563,2.323c-0.667,0.638-1.432,1.124-2.292,1.459c-0.861,0.334-1.778,0.502-2.751,0.502
				c-0.966,0-1.876-0.167-2.731-0.502c-0.854-0.335-1.615-0.821-2.282-1.459c-0.693-0.67-1.215-1.444-1.563-2.323
				c-0.35-0.879-0.524-1.854-0.524-2.923c0-1.062,0.175-2.033,0.524-2.913c0.349-0.879,0.87-1.653,1.563-2.323
				c0.667-0.644,1.428-1.132,2.282-1.464C318.501,17.471,319.411,17.305,320.377,17.305z M320.377,27.652
				c0.858,0,1.538-0.284,2.04-0.851c0.502-0.566,0.753-1.333,0.753-2.299c0-0.959-0.251-1.723-0.753-2.29
				c-0.502-0.566-1.182-0.85-2.04-0.85c-0.845,0-1.518,0.282-2.016,0.845c-0.499,0.564-0.749,1.329-0.749,2.294
				c0,0.973,0.25,1.741,0.749,2.304C318.859,27.371,319.532,27.652,320.377,27.652z"/>
			<path fill="#FEFD01" d="M328.968,31.69V17.644h5.338c1.646,0,2.906,0.349,3.78,1.048c0.874,0.699,1.311,1.708,1.311,3.028
				c0,0.812-0.176,1.52-0.529,2.125c-0.353,0.605-0.865,1.082-1.539,1.43l2.497,5.835l-4.471,0.58l-2.126-5.961v5.623L328.968,31.69
				z M333.229,21.382v3.304h0.058c0.591,0,1.045-0.145,1.363-0.435c0.317-0.29,0.477-0.699,0.477-1.227
				c0-0.528-0.159-0.934-0.477-1.217c-0.318-0.283-0.772-0.425-1.363-0.425H333.229z"/>
			<path fill="#FEFD01" d="M340.84,31.372V17.644h5.119c0.654,0,1.296,0.087,1.926,0.261c0.629,0.174,1.197,0.422,1.706,0.744
				c0.953,0.612,1.695,1.43,2.226,2.454c0.531,1.024,0.797,2.158,0.797,3.4c0,1.25-0.266,2.387-0.797,3.411
				c-0.53,1.024-1.272,1.842-2.226,2.454c-0.509,0.322-1.077,0.57-1.706,0.744c-0.63,0.174-1.271,0.261-1.926,0.261H340.84z
				 M345.138,21.653v5.7h0.153c0.94,0,1.671-0.25,2.192-0.749c0.521-0.499,0.781-1.2,0.781-2.102c0-0.908-0.262-1.61-0.786-2.106
				c-0.524-0.496-1.267-0.744-2.227-0.744H345.138z"/>
			<path fill="#FEFD01" d="M353.863,31.256v-3.894c0.179,0.026,0.439,0.071,0.782,0.135c1.373,0.251,2.31,0.377,2.812,0.377
				c0.406,0,0.735-0.079,0.986-0.237s0.377-0.359,0.377-0.604c0-0.257-0.324-0.515-0.973-0.773c-0.299-0.116-0.534-0.212-0.705-0.29
				c-1.291-0.593-2.189-1.198-2.698-1.816s-0.763-1.385-0.763-2.299c0-1.301,0.497-2.358,1.492-3.173
				c0.994-0.815,2.302-1.222,3.923-1.222c0.629,0,1.227,0.034,1.792,0.102c0.565,0.067,1.093,0.166,1.582,0.294v3.845
				c-0.616-0.187-1.166-0.324-1.648-0.411c-0.483-0.087-0.929-0.13-1.335-0.13c-0.451,0-0.796,0.06-1.034,0.179
				s-0.357,0.292-0.357,0.517c0,0.29,0.355,0.577,1.067,0.86c0.438,0.174,0.788,0.329,1.049,0.464
				c1.163,0.599,1.957,1.187,2.383,1.763c0.426,0.576,0.639,1.309,0.639,2.198c0,1.449-0.497,2.56-1.491,3.333
				c-0.995,0.773-2.43,1.159-4.305,1.159c-0.826,0-1.522-0.031-2.088-0.092S354.289,31.384,353.863,31.256z"/>
			<path fill="#FEFD01" d="M381.571,30.521c-0.833,0.393-1.647,0.689-2.445,0.889s-1.571,0.299-2.321,0.299
				c-0.966,0-1.876-0.167-2.731-0.502c-0.854-0.335-1.615-0.821-2.282-1.459c-0.693-0.67-1.215-1.444-1.563-2.323
				c-0.35-0.879-0.524-1.854-0.524-2.923c0-1.062,0.175-2.033,0.524-2.913c0.349-0.879,0.87-1.653,1.563-2.323
				c0.667-0.644,1.428-1.132,2.282-1.464c0.855-0.332,1.766-0.498,2.731-0.498c0.915,0,1.748,0.132,2.498,0.396
				c0.75,0.264,1.462,0.673,2.135,1.227l-2.23,3.362c-0.362-0.316-0.738-0.549-1.13-0.701c-0.391-0.151-0.814-0.227-1.272-0.227
				c-0.852,0-1.536,0.287-2.054,0.86c-0.519,0.573-0.777,1.333-0.777,2.28c0,0.908,0.259,1.664,0.777,2.266
				c0.518,0.603,1.158,0.903,1.921,0.903c0.114,0,0.236-0.01,0.366-0.029c0.131-0.02,0.256-0.048,0.377-0.087V26.29h-1.992
				l0.763-3.149h5.386V30.521z"/>
			<path fill="#FEFD01" d="M382.536,31.294l4.558-13.651h5.128l4.472,13.651l-4.643,0.357l-0.687-2.416h-3.575l-0.715,2.416
				L382.536,31.294z M388.533,25.672h2.03l-0.973-4.039L388.533,25.672z"/>
			<path fill="#FEFD01" d="M396.894,31.275l1.85-13.631h3.89l1.792,5.719l1.82-5.719h3.842l1.602,13.631l-4.251,0.29l-0.61-6.84
				l-2.517,7.255l-2.517-7.255l-0.687,6.84L396.894,31.275z"/>
			<path fill="#FEFD01" d="M413.151,31.372V17.644h7.521l0.801,3.661h-4.023v1.266h2.555v3.555h-2.555v1.372h4.28l-0.839,3.874
				H413.151z"/>
		</g>
		<g>
			<path fill="#FDF229" d="M232.705,31.372V17.817l4.299-0.338v9.835h4.566l-0.915,4.058H232.705z"/>
			<path fill="#FDF229" d="M242.43,31.372V17.644h7.521l0.801,3.661h-4.023v1.266h2.555v3.555h-2.555v1.372h4.28l-0.839,3.874
				H242.43z"/>
			<path fill="#FDF229" d="M250.821,31.294l4.558-13.651h5.128l4.472,13.651l-4.643,0.357l-0.687-2.416h-3.575l-0.715,2.416
				L250.821,31.294z M256.818,25.672h2.03l-0.973-4.039L256.818,25.672z"/>
			<path fill="#FDF229" d="M265.839,31.69V17.644h5.338c1.646,0,2.906,0.349,3.78,1.048c0.874,0.699,1.311,1.708,1.311,3.028
				c0,0.812-0.176,1.52-0.529,2.125c-0.353,0.605-0.865,1.082-1.539,1.43l2.497,5.835l-4.471,0.58l-2.126-5.961v5.623L265.839,31.69
				z M270.099,21.382v3.304h0.058c0.591,0,1.045-0.145,1.363-0.435c0.317-0.29,0.477-0.699,0.477-1.227
				c0-0.528-0.159-0.934-0.477-1.217c-0.318-0.283-0.772-0.425-1.363-0.425H270.099z"/>
			<path fill="#FDF229" d="M277.71,31.594v-13.95h4.146l3.938,6.424v-6.386l4.146-0.261v13.95h-4.146l-3.938-6.608v6.531
				L277.71,31.594z"/>
			<path fill="#FDF229" d="M299.249,31.372l-2.889-13.593l4.224-0.416l1.401,7.362l1.449-7.082h2.707l1.411,7.082l1.382-7.362
				l4.118,0.416l-2.983,13.593h-3.842l-1.525-7.555l-1.602,7.555H299.249z"/>
			<path fill="#FDF229" d="M320.377,17.305c0.985,0,1.907,0.167,2.765,0.502c0.858,0.335,1.617,0.821,2.278,1.459
				c0.687,0.65,1.206,1.42,1.559,2.309c0.353,0.889,0.529,1.865,0.529,2.927c0,1.069-0.175,2.043-0.524,2.923
				c-0.35,0.879-0.871,1.653-1.563,2.323c-0.667,0.638-1.432,1.124-2.292,1.459c-0.861,0.334-1.778,0.502-2.751,0.502
				c-0.966,0-1.876-0.167-2.731-0.502c-0.854-0.335-1.615-0.821-2.282-1.459c-0.693-0.67-1.215-1.444-1.563-2.323
				c-0.35-0.879-0.524-1.854-0.524-2.923c0-1.062,0.175-2.033,0.524-2.913c0.349-0.879,0.87-1.653,1.563-2.323
				c0.667-0.644,1.428-1.132,2.282-1.464C318.501,17.471,319.411,17.305,320.377,17.305z M320.377,27.652
				c0.858,0,1.538-0.284,2.04-0.851c0.502-0.566,0.753-1.333,0.753-2.299c0-0.959-0.251-1.723-0.753-2.29
				c-0.502-0.566-1.182-0.85-2.04-0.85c-0.845,0-1.518,0.282-2.016,0.845c-0.499,0.564-0.749,1.329-0.749,2.294
				c0,0.973,0.25,1.741,0.749,2.304C318.859,27.371,319.532,27.652,320.377,27.652z"/>
			<path fill="#FDF229" d="M328.968,31.69V17.644h5.338c1.646,0,2.906,0.349,3.78,1.048c0.874,0.699,1.311,1.708,1.311,3.028
				c0,0.812-0.176,1.52-0.529,2.125c-0.353,0.605-0.865,1.082-1.539,1.43l2.497,5.835l-4.471,0.58l-2.126-5.961v5.623L328.968,31.69
				z M333.229,21.382v3.304h0.058c0.591,0,1.045-0.145,1.363-0.435c0.317-0.29,0.477-0.699,0.477-1.227
				c0-0.528-0.159-0.934-0.477-1.217c-0.318-0.283-0.772-0.425-1.363-0.425H333.229z"/>
			<path fill="#FDF229" d="M340.84,31.372V17.644h5.119c0.654,0,1.296,0.087,1.926,0.261c0.629,0.174,1.197,0.422,1.706,0.744
				c0.953,0.612,1.695,1.43,2.226,2.454c0.531,1.024,0.797,2.158,0.797,3.4c0,1.25-0.266,2.387-0.797,3.411
				c-0.53,1.024-1.272,1.842-2.226,2.454c-0.509,0.322-1.077,0.57-1.706,0.744c-0.63,0.174-1.271,0.261-1.926,0.261H340.84z
				 M345.138,21.653v5.7h0.153c0.94,0,1.671-0.25,2.192-0.749c0.521-0.499,0.781-1.2,0.781-2.102c0-0.908-0.262-1.61-0.786-2.106
				c-0.524-0.496-1.267-0.744-2.227-0.744H345.138z"/>
			<path fill="#FDF229" d="M353.863,31.256v-3.894c0.179,0.026,0.439,0.071,0.782,0.135c1.373,0.251,2.31,0.377,2.812,0.377
				c0.406,0,0.735-0.079,0.986-0.237s0.377-0.359,0.377-0.604c0-0.257-0.324-0.515-0.973-0.773c-0.299-0.116-0.534-0.212-0.705-0.29
				c-1.291-0.593-2.189-1.198-2.698-1.816s-0.763-1.385-0.763-2.299c0-1.301,0.497-2.358,1.492-3.173
				c0.994-0.815,2.302-1.222,3.923-1.222c0.629,0,1.227,0.034,1.792,0.102c0.565,0.067,1.093,0.166,1.582,0.294v3.845
				c-0.616-0.187-1.166-0.324-1.648-0.411c-0.483-0.087-0.929-0.13-1.335-0.13c-0.451,0-0.796,0.06-1.034,0.179
				s-0.357,0.292-0.357,0.517c0,0.29,0.355,0.577,1.067,0.86c0.438,0.174,0.788,0.329,1.049,0.464
				c1.163,0.599,1.957,1.187,2.383,1.763c0.426,0.576,0.639,1.309,0.639,2.198c0,1.449-0.497,2.56-1.491,3.333
				c-0.995,0.773-2.43,1.159-4.305,1.159c-0.826,0-1.522-0.031-2.088-0.092S354.289,31.384,353.863,31.256z"/>
			<path fill="#FDF229" d="M381.571,30.521c-0.833,0.393-1.647,0.689-2.445,0.889s-1.571,0.299-2.321,0.299
				c-0.966,0-1.876-0.167-2.731-0.502c-0.854-0.335-1.615-0.821-2.282-1.459c-0.693-0.67-1.215-1.444-1.563-2.323
				c-0.35-0.879-0.524-1.854-0.524-2.923c0-1.062,0.175-2.033,0.524-2.913c0.349-0.879,0.87-1.653,1.563-2.323
				c0.667-0.644,1.428-1.132,2.282-1.464c0.855-0.332,1.766-0.498,2.731-0.498c0.915,0,1.748,0.132,2.498,0.396
				c0.75,0.264,1.462,0.673,2.135,1.227l-2.23,3.362c-0.362-0.316-0.738-0.549-1.13-0.701c-0.391-0.151-0.814-0.227-1.272-0.227
				c-0.852,0-1.536,0.287-2.054,0.86c-0.519,0.573-0.777,1.333-0.777,2.28c0,0.908,0.259,1.664,0.777,2.266
				c0.518,0.603,1.158,0.903,1.921,0.903c0.114,0,0.236-0.01,0.366-0.029c0.131-0.02,0.256-0.048,0.377-0.087V26.29h-1.992
				l0.763-3.149h5.386V30.521z"/>
			<path fill="#FDF229" d="M382.536,31.294l4.558-13.651h5.128l4.472,13.651l-4.643,0.357l-0.687-2.416h-3.575l-0.715,2.416
				L382.536,31.294z M388.533,25.672h2.03l-0.973-4.039L388.533,25.672z"/>
			<path fill="#FDF229" d="M396.894,31.275l1.85-13.631h3.89l1.792,5.719l1.82-5.719h3.842l1.602,13.631l-4.251,0.29l-0.61-6.84
				l-2.517,7.255l-2.517-7.255l-0.687,6.84L396.894,31.275z"/>
			<path fill="#FDF229" d="M413.151,31.372V17.644h7.521l0.801,3.661h-4.023v1.266h2.555v3.555h-2.555v1.372h4.28l-0.839,3.874
				H413.151z"/>
		</g>
	</g>
</g>
<g>
	<g>
		
			<path fill-rule="evenodd" clip-rule="evenodd" fill="#FFF200" stroke="#231F20" stroke-width="0.3" stroke-miterlimit="3.8637" d="
			M190.201,49.47l-2.213-2.346c6.913-4.29,8.803-9.058,9.072-12.026l1.281,2.497C198.215,42.694,193.899,46.933,190.201,49.47z"/>
		<g>
			
				<path fill-rule="evenodd" clip-rule="evenodd" fill="#F8BE63" stroke="#231F20" stroke-width="0.3" stroke-miterlimit="3.8637" d="
				M189.602,50.727c0.23,0.73,0.508,1.115-0.183,2.826c-0.071,0.48,0.736,3.036,1.456,4.024c0.135,0.173,0.577,0.78,0.296,1.193
				c-0.349,0.433-0.674,0.58-1.561,0.165c-0.847-0.703-1.31-1.758-1.387-3.165c-0.317-0.026-0.627,0.097-0.931,0.367
				c-0.386,1.545-0.242,3.118,0.431,4.72c0.012,0.177-0.105,0.284-0.353,0.319c-0.611,0.155-1.172-0.134-1.682-0.867
				c-0.7-1.131-0.72-2.676,0.028-4.674c-0.293-0.239-0.546-0.344-0.761-0.317c-1.278,1.387-1.299,3.922-1.553,4.002
				c-0.238,0.453-1.323-0.013-1.521-1.023c-0.314-1.419,0.157-2.824,1.413-4.216c0.392-0.655,0.313-1.625-0.037-2.306
				c-0.23-0.26-0.626-0.212-1.047-0.106c-1.011,0.291-1.471,1.082-3.066,0.389c-1.06-0.501-1.626-2.354-0.104-3.491
				c0.259-0.174,0.614,0.067,0.723,0.176c0.933,1.269,1.93,1.438,2.784,0.87c1.153-1.039,1.367-1.434,1.989-1.678
				C186.61,47.118,188.95,48.654,189.602,50.727z"/>
			
				<path fill-rule="evenodd" clip-rule="evenodd" fill="#F8BE63" stroke="#231F20" stroke-width="0.3" stroke-linecap="round" stroke-linejoin="round" stroke-miterlimit="3.8637" d="
				M186.241,47.714c-0.11-0.391,0.718-0.845,1.047-0.891c0.778-0.107,2.517,0.5,2.944,2.482c0.227,0.922-0.148,1.429-0.543,1.742
				C189.224,49.504,187.878,48.299,186.241,47.714z"/>
			<g>
				
					<path fill-rule="evenodd" clip-rule="evenodd" fill="none" stroke="#231F20" stroke-width="0.3" stroke-linecap="round" stroke-miterlimit="3.8637" d="
					M186.854,49.126c-1.687,1.36-1.435,4.152,0.678,4.79"/>
				<path fill-rule="evenodd" clip-rule="evenodd" fill="none" d="M186.854,49.126c-1.687,1.36-1.435,4.152,0.678,4.79"/>
			</g>
		</g>
	</g>
	<path fill-rule="evenodd" clip-rule="evenodd" fill="#FFF200" stroke="#231F20" stroke-width="0.3" stroke-miterlimit="3.8637" d="
		M217.635,43.851c-0.828-0.039-1.882-0.101-2.518-0.524c-0.227,2.866-1.723,5.17-2.86,5.423c-1.199,0.266-1.868-3.453-3.156-8.5
		c-0.069-0.034,0.278,7.911,0.582,8.195C210.817,53.199,215.582,52.206,217.635,43.851z"/>
	<g>
		
			<path fill-rule="evenodd" clip-rule="evenodd" fill="#F8BE63" stroke="#231F20" stroke-width="0.3" stroke-miterlimit="3.8637" d="
			M217.44,47.434c-1.808,2.882-6.499-0.111-3.533-1.699c-0.059-0.368-0.129-0.642,0.014-0.861c-0.511-0.456-0.618-0.949-0.629-1.489
			c0.124-1.643,0.956-2.182,1.297-2.908c0.247-0.979,0.41-1.021,0.306-2.292c-0.064-1.042-0.709-1.906-0.266-2.251
			c0.737-0.928,2.19-0.067,2.638,0.593c0.769,1.544-0.756,3.251-0.855,3.793c-0.019,0.313,0.09,0.567,0.355,0.523
			c0.712-0.214,2.89-1.81,4.235-0.8c0.48,0.27,0.239,1.328-0.395,2.162c0.415,0.093,0.731,0.277,0.769,0.603
			c0.039,0.685-0.532,1.428-1.711,2.229c0.22,0.094,0.346,0.248,0.378,0.463c0.031,0.332-0.145,0.611-0.529,0.836
			C219.085,46.84,218.394,47.206,217.44,47.434z"/>
		<path fill-rule="evenodd" clip-rule="evenodd" fill="none" stroke="#231F20" stroke-width="0.3" stroke-miterlimit="3.8637" d="
			M216.357,47.251c-1.003,0.491-1.957,0.007-2.447-1.501"/>
		<path fill-rule="evenodd" clip-rule="evenodd" fill="none" stroke="#231F20" stroke-width="0.3" stroke-miterlimit="3.8637" d="
			M214.519,45.297c-0.165-0.081-0.38-0.193-0.593-0.419"/>
		<path fill-rule="evenodd" clip-rule="evenodd" fill="none" stroke="#231F20" stroke-width="0.3" stroke-miterlimit="3.8637" d="
			M217.422,47.44c-0.998,0.008-1.573-0.343-1.678-1.003c-0.065-0.513,0.315-0.827,0.997-1.012c0.688,0.224,1.61,0.074,2.91-0.379"/>
		<path fill-rule="evenodd" clip-rule="evenodd" fill="none" stroke="#231F20" stroke-width="0.3" stroke-miterlimit="3.8637" d="
			M216.61,43.942c-0.754,0.553-0.708,1.045,0.14,1.478"/>
		<path fill-rule="evenodd" clip-rule="evenodd" fill="none" stroke="#231F20" stroke-width="0.3" stroke-miterlimit="3.8637" d="
			M220.601,42.216c-0.972,0.936-2.297,1.507-3.975,1.713c-1.01-0.114-1.719-0.91-0.7-1.586c1.242-0.956,2.494-1.346,3.754-1.173"/>
	</g>
	<g>
		
			<path fill-rule="evenodd" clip-rule="evenodd" fill="#5599D3" stroke="#231F20" stroke-width="0.3" stroke-linecap="round" stroke-miterlimit="3.8637" d="
			M216.918,36.957c0.787-0.007,0.873-0.159,1.783-0.369c-0.029,1.115,0.19,3.325,0.135,4.534c-0.338-0.054-1.436,0.317-1.893,0.543
			C217.014,40.377,217.029,39.827,216.918,36.957z"/>
		<path fill-rule="evenodd" clip-rule="evenodd" fill="#5599D3" d="M216.918,36.957c0.787-0.007,0.873-0.159,1.783-0.369
			c-0.029,1.115,0.19,3.325,0.135,4.534c-0.338-0.054-1.436,0.317-1.893,0.543C217.014,40.377,217.029,39.827,216.918,36.957z"/>
	</g>
	<g>
		
			<path fill-rule="evenodd" clip-rule="evenodd" fill="#78B0DF" stroke="#231F20" stroke-width="0.3" stroke-miterlimit="3.8637" d="
			M210.361,28.391c-0.248-5.636,2.558-10.335,6.268-10.497c3.71-0.162,6.918,4.275,7.167,9.911
			c0.248,5.636-2.558,10.335-6.267,10.498C213.818,38.464,210.609,34.027,210.361,28.391z"/>
		
			<path fill-rule="evenodd" clip-rule="evenodd" fill="#5599D3" stroke="#231F20" stroke-width="0.2377" stroke-miterlimit="3.8637" d="
			M212.17,28.468c-0.224-5.099,2.116-9.342,5.228-9.478c3.112-0.136,5.817,3.887,6.042,8.985c0.225,5.099-2.116,9.342-5.229,9.478
			C215.099,37.589,212.394,33.566,212.17,28.468z"/>
		
			<linearGradient id="SVGID_1_" gradientUnits="userSpaceOnUse" x1="1919.26" y1="-1509.458" x2="1929.6979" y2="-1508.7281" gradientTransform="matrix(0.9935 -0.1134 0.1134 0.9935 -1523.1855 1745.6962)">
			<stop  offset="0" style="stop-color:#5B95CF"/>
			<stop  offset="0.9922" style="stop-color:#FFFFFF"/>
			<stop  offset="1" style="stop-color:#FFFFFF"/>
		</linearGradient>
		
			<path fill-rule="evenodd" clip-rule="evenodd" fill="url(#SVGID_1_)" stroke="#231F20" stroke-width="0.2377" stroke-miterlimit="3.8637" d="
			M212.427,28.404c-0.202-4.59,1.974-8.413,4.86-8.539c2.887-0.126,5.39,3.492,5.593,8.082c0.202,4.59-1.974,8.413-4.86,8.539
			C215.133,36.613,212.629,32.994,212.427,28.404z"/>
		<path fill-rule="evenodd" clip-rule="evenodd" fill="#FFFFFF" d="M219.283,21.782c0.075,0.058,0.28-0.011,0.28-0.011
			c2.401,3.197,2.753,7.138,1.722,11.438l-0.15-0.023C221.622,28.018,221.297,25.354,219.283,21.782z"/>
	</g>
	<g>
		<g>
			<path fill-rule="evenodd" clip-rule="evenodd" fill="#FFF200" d="M209.375,67.64c0.117,0.205,3.546,4.029,5.83,6.171
				c-0.694-2.6-1.374-5.19-1.966-7.806C212.375,67.424,210.071,67.813,209.375,67.64z"/>
			
				<path fill-rule="evenodd" clip-rule="evenodd" fill="#231F20" stroke="#231F20" stroke-width="0.3" stroke-miterlimit="3.8637" d="
				M209.375,67.64c0.117,0.205,3.546,4.029,5.83,6.171c-0.694-2.6-1.374-5.19-1.966-7.806
				C212.375,67.424,210.071,67.813,209.375,67.64z"/>
		</g>
		<g>
			<path fill-rule="evenodd" clip-rule="evenodd" fill="#FFF200" d="M213.273,66.037l-2.212-11.163
				c-1.948,2.201-5.019,3.364-8.813,2.387c0,0,4.441,7.188,7.326,10.613C209.574,67.874,212.317,67.55,213.273,66.037z"/>
			
				<path fill-rule="evenodd" clip-rule="evenodd" fill="#C69437" stroke="#231F20" stroke-width="0.3" stroke-miterlimit="3.8637" d="
				M213.273,66.037l-2.212-11.163c-1.948,2.201-5.019,3.364-8.813,2.387c0,0,4.441,7.188,7.326,10.613
				C209.574,67.874,212.317,67.55,213.273,66.037z"/>
		</g>
		
			<path fill-rule="evenodd" clip-rule="evenodd" fill="#FFF200" stroke="#231F20" stroke-width="0.3" stroke-miterlimit="3.8637" d="
			M211.099,54.885c-2.249,2.458-5.24,3.211-8.867,2.405c-5.766-10.165-9.21-22.76-10.297-36.481l16.238-0.547
			C208.244,31.858,209.154,43.568,211.099,54.885z"/>
		<g>
			<path fill-rule="evenodd" clip-rule="evenodd" fill="#FFF200" d="M191.602,15.993c-0.446,0.05,0.345,0.898-0.146,4.38
				c0.083,0.321,0.215,0.525,0.487,0.779c4.593,2.939,15.677,1.465,16.839-1.307c0.083-0.189-0.046-0.38-0.112-0.557
				c-0.117-1.191,0.15-3.305,0.15-3.305c0.009-0.19-0.256-0.264-0.256-0.264S191.864,15.801,191.602,15.993z"/>
			
				<path fill-rule="evenodd" clip-rule="evenodd" fill="#EFD765" stroke="#231F20" stroke-width="0.3" stroke-miterlimit="3.8637" d="
				M191.602,15.993c-0.446,0.05,0.345,0.898-0.146,4.38c0.083,0.321,0.215,0.525,0.487,0.779c4.593,2.939,15.677,1.465,16.839-1.307
				c0.083-0.189-0.046-0.38-0.112-0.557c-0.117-1.191,0.15-3.305,0.15-3.305c0.009-0.19-0.256-0.264-0.256-0.264
				S191.864,15.801,191.602,15.993z"/>
		</g>
		<g>
			<path fill-rule="evenodd" clip-rule="evenodd" fill="#FFF200" d="M191.586,6.794c-0.023-1.218,3.803-2.289,8.547-2.393
				c4.744-0.104,8.608,0.8,8.632,2.018c0,0.019,0,0.037-0.002,0.056c-0.093,1.195-3.874,2.235-8.546,2.337
				c-4.657,0.102-8.466-0.767-8.627-1.951C191.588,6.838,191.586,6.816,191.586,6.794z M208.763,6.474
				c1.009,3.34-0.331,9.481-0.331,9.481c-1.625,2.279-15.015,3.542-16.726,0.208c0,0-0.963-5.918-0.116-9.303
				c0.16,1.184,3.97,2.053,8.627,1.951C204.889,8.709,208.671,7.669,208.763,6.474z"/>
			
				<path fill-rule="evenodd" clip-rule="evenodd" fill="#F37D81" stroke="#231F20" stroke-width="0.3" stroke-miterlimit="3.8637" d="
				M191.586,6.794c-0.023-1.218,3.803-2.289,8.547-2.393c4.744-0.104,8.608,0.8,8.632,2.018c0,0.019,0,0.037-0.002,0.056
				c-0.093,1.195-3.874,2.235-8.546,2.337c-4.657,0.102-8.466-0.767-8.627-1.951C191.588,6.838,191.586,6.816,191.586,6.794z
				 M208.763,6.474c1.009,3.34-0.331,9.481-0.331,9.481c-1.625,2.279-15.015,3.542-16.726,0.208c0,0-0.963-5.918-0.116-9.303
				c0.16,1.184,3.97,2.053,8.627,1.951C204.889,8.709,208.671,7.669,208.763,6.474z"/>
		</g>
	</g>
	
		<path fill-rule="evenodd" clip-rule="evenodd" fill="none" stroke="#231F20" stroke-width="0.3" stroke-linecap="round" stroke-miterlimit="3.8637" d="
		M205.511,46.057c-1.568,1.679-5.807-0.577-5.329-6.88"/>
	<g>
		<g>
			
				<path fill-rule="evenodd" clip-rule="evenodd" fill="none" stroke="#231F20" stroke-width="0.3" stroke-linecap="round" stroke-miterlimit="3.8637" d="
				M200.699,24.211c-1.559-1.015-2.833-0.165-3.822,2.549"/>
			
				<path fill-rule="evenodd" clip-rule="evenodd" fill="none" stroke="#231F20" stroke-width="0.3" stroke-linecap="round" stroke-miterlimit="3.8637" d="
				M203.451,23.712c1.777-0.97,3.021-0.415,3.731,1.666"/>
			<g>
				<g>
					<path fill-rule="evenodd" clip-rule="evenodd" fill="#FFF200" d="M201.963,29.367c0.177-1.689,1.698-2.914,3.397-2.735
						c1.699,0.179,2.932,1.693,2.754,3.383c-0.177,1.689-1.698,2.914-3.397,2.735C203.019,32.571,201.786,31.057,201.963,29.367z"/>
					
						<path fill-rule="evenodd" clip-rule="evenodd" fill="#FFFFFF" stroke="#231F20" stroke-width="0.3" stroke-miterlimit="3.8637" d="
						M201.963,29.367c0.177-1.689,1.698-2.914,3.397-2.735c1.699,0.179,2.932,1.693,2.754,3.383
						c-0.177,1.689-1.698,2.914-3.397,2.735C203.019,32.571,201.786,31.057,201.963,29.367z"/>
				</g>
				<g>
					<path fill-rule="evenodd" clip-rule="evenodd" fill="#FFF200" d="M197.435,30.188c0.177-1.689,1.698-2.914,3.397-2.735
						s2.932,1.693,2.754,3.382c-0.177,1.689-1.698,2.914-3.397,2.735C198.49,33.391,197.257,31.877,197.435,30.188z"/>
					
						<path fill-rule="evenodd" clip-rule="evenodd" fill="#FFFFFF" stroke="#231F20" stroke-width="0.3" stroke-miterlimit="3.8637" d="
						M197.435,30.188c0.177-1.689,1.698-2.914,3.397-2.735s2.932,1.693,2.754,3.382c-0.177,1.689-1.698,2.914-3.397,2.735
						C198.49,33.391,197.257,31.877,197.435,30.188z"/>
				</g>
			</g>
			
				<path fill-rule="evenodd" clip-rule="evenodd" fill="none" stroke="#231F20" stroke-width="0.3" stroke-linecap="round" stroke-miterlimit="3.8637" d="
				M201.427,33.665c3.81-1.477,5.688-0.8,5.68,0.875c-0.019,3.68-7.975,4.258-6.096,0.415"/>
		</g>
		<g>
			
				<path fill-rule="evenodd" clip-rule="evenodd" fill="#231F20" stroke="#231F20" stroke-width="0.3" stroke-miterlimit="3.8637" d="
				M201.569,30.876c0.042-0.403,0.403-0.695,0.806-0.653c0.403,0.042,0.695,0.403,0.653,0.806c-0.042,0.403-0.403,0.695-0.806,0.653
				C201.819,31.64,201.527,31.279,201.569,30.876z"/>
		</g>
		<g>
			
				<path fill-rule="evenodd" clip-rule="evenodd" fill="#231F20" stroke="#231F20" stroke-width="0.3" stroke-miterlimit="3.8637" d="
				M205.939,29.985c0.042-0.403,0.403-0.695,0.806-0.653c0.403,0.042,0.695,0.403,0.653,0.806c-0.042,0.403-0.403,0.695-0.806,0.653
				C206.189,30.749,205.896,30.388,205.939,29.985z"/>
		</g>
	</g>
	<g>
		<g>
			<path fill-rule="evenodd" clip-rule="evenodd" fill="#FFF200" d="M204.368,39.92c-0.596,1.241-2.441,3.327-0.208,6.654
				c-2.168,0.026-4.201-2.77-4.006-7.406C201.441,39.935,202.936,40.179,204.368,39.92z"/>
			
				<path fill-rule="evenodd" clip-rule="evenodd" fill="#E7212A" stroke="#231F20" stroke-width="0.3" stroke-miterlimit="3.8637" d="
				M204.368,39.92c-0.596,1.241-2.441,3.327-0.208,6.654c-2.168,0.026-4.201-2.77-4.006-7.406
				C201.441,39.935,202.936,40.179,204.368,39.92z"/>
		</g>
		
			<path fill-rule="evenodd" clip-rule="evenodd" fill="none" stroke="#231F20" stroke-width="0.3" stroke-linecap="round" stroke-miterlimit="3.8637" d="
			M200.006,37.348c-1.018,0.574-1.492,1.413-1.421,2.516"/>
		
			<path fill-rule="evenodd" clip-rule="evenodd" fill="none" stroke="#231F20" stroke-width="0.3" stroke-linecap="round" stroke-miterlimit="3.8637" d="
			M199.218,37.986c0.701,2.421,6.586,2.737,7.204,0.204"/>
		
			<path fill-rule="evenodd" clip-rule="evenodd" fill="none" stroke="#231F20" stroke-width="0.3" stroke-linecap="round" stroke-miterlimit="3.8637" d="
			M202.506,48.158c1.332,1.188,2.717,0.502,2.978,0.099"/>
		<g>
			<path fill-rule="evenodd" clip-rule="evenodd" fill="#FFF200" d="M200.09,39.147c0.876,1.869,3.683,2.735,4.805,0.603
				C203.255,40.226,201.686,40.029,200.09,39.147z"/>
			
				<path fill-rule="evenodd" clip-rule="evenodd" fill="#FFFFFF" stroke="#231F20" stroke-width="0.3" stroke-miterlimit="3.8637" d="
				M200.09,39.147c0.876,1.869,3.683,2.735,4.805,0.603C203.255,40.226,201.686,40.029,200.09,39.147z"/>
		</g>
		<g>
			<path fill-rule="evenodd" clip-rule="evenodd" fill="#FFF200" d="M204.168,46.594c-0.606-0.01-1.218-0.239-1.838-0.686
				c-0.513-0.483-0.886-0.97-1.121-1.461c0.966-0.045,1.731,0.141,2.223,0.635C203.675,45.326,203.976,45.771,204.168,46.594z"/>
			
				<path fill-rule="evenodd" clip-rule="evenodd" fill="#F8B6C8" stroke="#231F20" stroke-width="0.3" stroke-miterlimit="3.8637" d="
				M204.168,46.594c-0.606-0.01-1.218-0.239-1.838-0.686c-0.513-0.483-0.886-0.97-1.121-1.461c0.966-0.045,1.731,0.141,2.223,0.635
				C203.675,45.326,203.976,45.771,204.168,46.594z"/>
		</g>
	</g>
</g>
</svg>
