<?xml version="1.0" encoding="iso-8859-1"?>
<!-- Generator: Adobe Illustrator 28.6.0, SVG Export Plug-In . SVG Version: 9.03 Build 54939)  -->
<svg version="1.1" id="Layer_1" xmlns="http://www.w3.org/2000/svg" xmlns:xlink="http://www.w3.org/1999/xlink" x="0px" y="0px"
	 width="120.882px" height="68.529px" viewBox="0 0 120.882 68.529" enable-background="new 0 0 120.882 68.529"
	 xml:space="preserve">
<g>
	<path fill-rule="evenodd" clip-rule="evenodd" fill="#0D478E" d="M100.808,19.426c2.418,11.368-14.018,24.496-36.709,29.32
		C41.408,53.572,21.053,48.267,18.635,36.9c-2.417-11.369,14.018-24.497,36.71-29.323C78.035,2.752,98.389,8.057,100.808,19.426z"/>
	<g>
		<path fill="#C80000" stroke="#C80000" stroke-width="0.8554" stroke-miterlimit="10" d="M109.19,28.298l0.824,0.253l1.105-8.994
			l-1.378-0.466c-0.931-0.315-1.836-0.581-2.693-0.793c-0.879-0.216-1.735-0.377-2.545-0.477c-2.802-0.343-5.141,0.012-6.949,1.048
			c-0.113,0.064-0.224,0.132-0.332,0.2l0.116-6.646l-10.48,0.754l-0.168,9.628c-1.485-1.12-3.681-1.666-6.702-1.666
			c-0.87,0-1.826,0.058-2.83,0.164c-0.469-2.777-1.766-4.913-3.857-6.352c-2.161-1.496-4.936-2.053-8.244-1.647l-10.089,1.239
			l0.757,6.166c-0.705-0.302-1.487-0.459-2.346-0.459c-0.155,0-0.366,0.01-0.681,0.031l-0.839-0.608
			c-0.686-0.495-1.39-0.872-2.075-1.115c-0.739-0.269-1.493-0.407-2.243-0.407c-1.614,0-2.976,0.448-4.05,1.332
			c-0.514,0.423-0.915,0.915-1.208,1.459l0.231-6.641L31.699,13.24l-0.547,17.842c-0.032,0.931-0.228,1.257-0.304,1.364
			c0,0-0.041,0.017-0.151,0.017l-0.041,0c-0.064-0.003-0.205-0.015-0.44-0.075c-0.938-0.278-1.659-0.587-1.928-0.708l-2.192-0.984
			l-0.788-7.5l4.754-0.499l-1.09-10.374L9.594,14.358L8.211,24.992l6.075-0.639l1.826,17.368l9.555-1.981l-0.042,2.613l1.295,0.387
			c0.021,0.006,2.105,0.624,3.093,0.753c0.668,0.087,1.131,0.103,1.379,0.11l0.056,0.002c0.208,0.006,0.412,0.011,0.614,0.011
			c2.993,0,5.342-0.81,6.981-2.405c1.584-1.543,2.501-3.805,2.74-6.718c0.085,0.079,0.164,0.164,0.253,0.24
			c1.374,1.156,3.246,1.742,5.567,1.742c1.911,0,3.508-0.44,4.741-1.305c1.311-0.915,2.054-2.175,2.162-3.664
			c0.896-0.222,1.698-0.63,2.396-1.223l1.448,11.79l10.887-2.402l-0.151-1.225c0.367,0.911,0.898,1.732,1.599,2.455
			c1.467,1.495,3.344,2.255,5.583,2.255c1.009,0,2.001-0.19,2.954-0.567v0.71l10.065-0.776v-1.367l7.561-0.654l0.025-1.355
			c0.004,0.001,0.009,0.003,0.013,0.004c0.978,0.266,1.958,0.46,2.911,0.577c0.663,0.081,1.309,0.123,1.919,0.123
			c1.992,0,3.727-0.439,5.151-1.301c1.998-1.197,3.21-3.109,3.507-5.528c0.206-1.68-0.087-3.124-0.853-4.269
			C109.42,28.599,109.31,28.446,109.19,28.298z"/>
		<g>
			<g>
				<path fill-rule="evenodd" clip-rule="evenodd" fill="#FFF100" d="M32.063,41.669c-0.181,0-0.364-0.003-0.551-0.01
					c-0.285-0.009-0.686-0.022-1.26-0.097c-0.712-0.093-2.417-0.577-2.801-0.691l0.177-7.537c0.409,0.179,1.15,0.48,2.091,0.758
					c0.326,0.085,0.619,0.132,0.871,0.141l0.107,0.001c0.708,0,1.261-0.261,1.646-0.777c0.405-0.531,0.63-1.338,0.669-2.397
					l0.484-15.862l7.1,0.697l-0.614,17.571c-0.1,2.848-0.853,4.976-2.238,6.324C36.464,41.037,34.552,41.669,32.063,41.669z"/>
				<path fill="#FFFFFF" d="M33.569,15.28l6.949,0.682l-0.611,17.5c-0.099,2.829-0.845,4.94-2.216,6.273
					c-1.266,1.233-3.159,1.857-5.628,1.857c-0.18,0-0.363-0.003-0.549-0.01l-0.065-0.002c-0.216-0.007-0.617-0.02-1.188-0.094
					c-0.662-0.087-2.186-0.513-2.68-0.656l0.12-7.383c0.426,0.183,1.126,0.46,2,0.717c0.329,0.085,0.627,0.133,0.886,0.142
					c0.037,0.001,0.074,0.002,0.11,0.002c0.732,0,1.306-0.272,1.704-0.807c0.416-0.545,0.646-1.366,0.684-2.441L33.569,15.28
					 M33.424,15.115l-0.488,15.942c-0.037,1.048-0.255,1.833-0.654,2.354c-0.37,0.498-0.898,0.748-1.584,0.748
					c-0.035,0-0.07-0.001-0.105-0.002c-0.25-0.008-0.534-0.054-0.853-0.137c-1.014-0.299-1.808-0.631-2.184-0.8l-0.126,7.723
					c0.186,0.056,2.041,0.592,2.812,0.693c0.639,0.083,1.064,0.09,1.266,0.098c0.188,0.007,0.373,0.01,0.555,0.01
					c2.521,0,4.432-0.633,5.733-1.9c1.406-1.368,2.16-3.494,2.261-6.375l0.616-17.641L33.424,15.115L33.424,15.115z"/>
			</g>
			<g>
				<path fill-rule="evenodd" clip-rule="evenodd" fill="#FFF100" d="M47.601,34.526c-1.868,0-3.339-0.439-4.369-1.305
					c-1.024-0.87-1.544-2.1-1.544-3.654c0-0.981,0.26-1.85,0.772-2.583c0.512-0.739,1.235-1.278,2.152-1.603
					c0.025-0.009,0.044-0.032,0.049-0.059c0.004-0.027-0.007-0.054-0.028-0.071c-0.348-0.27-0.615-0.586-0.796-0.94
					c-0.172-0.352-0.259-0.749-0.259-1.18c0-0.928,0.369-1.702,1.097-2.299c0.731-0.603,1.696-0.908,2.867-0.908
					c0.531,0,1.07,0.099,1.604,0.293c0.517,0.184,1.044,0.464,1.568,0.836L49.1,23.839c-0.163-0.117-0.315-0.207-0.454-0.268
					c-0.157-0.071-0.295-0.105-0.419-0.105c-0.234,0-0.435,0.066-0.594,0.196c-0.157,0.136-0.236,0.306-0.236,0.506
					c0,0.188,0.072,0.345,0.216,0.465c0.146,0.11,0.354,0.185,0.624,0.225l-0.062,2.457h-0.166c-0.58,0-1.048,0.158-1.392,0.468
					c-0.347,0.304-0.523,0.721-0.523,1.239c0,0.47,0.147,0.862,0.439,1.166c0.299,0.3,0.685,0.452,1.147,0.452
					c0.314,0,0.569-0.068,0.759-0.203c0.206-0.139,0.312-0.32,0.312-0.539c0-0.198-0.082-0.353-0.242-0.46
					c-0.145-0.101-0.35-0.151-0.628-0.152c-0.101,0-0.175,0.004-0.224,0.01l1.442-2.523c0.16-0.01,0.368-0.043,0.577-0.062
					c0.212-0.026,0.421-0.039,0.63-0.039c0.225,0,0.492,0.01,0.802,0.03c0.32,0.021,0.53,0.03,0.631,0.03
					c0.372,0,0.666-0.068,0.875-0.201c0.222-0.147,0.334-0.352,0.334-0.609c0-0.298-0.123-0.524-0.364-0.671
					c-0.23-0.148-0.569-0.22-1.034-0.22c-0.107,0-0.227,0.007-0.355,0.021c-0.072,0.004-0.149,0.01-0.229,0.02l1.741-3.017
					c0.001,0.005,0.01,0.008,0.023,0.008s0.032-0.002,0.052-0.005c0.28-0.019,0.48-0.029,0.599-0.029
					c1.088,0,1.987,0.344,2.673,1.022c0.691,0.679,1.041,1.564,1.041,2.632c0,1.173-0.403,2.156-1.199,2.92
					c-0.798,0.766-1.827,1.153-3.062,1.153h-0.33c-0.024,0-0.047,0.012-0.061,0.031c-0.015,0.02-0.019,0.044-0.011,0.067
					c0.08,0.241,0.135,0.459,0.168,0.655c0.039,0.19,0.059,0.363,0.059,0.524c0,1.037-0.464,1.886-1.38,2.524
					C50.36,34.2,49.123,34.526,47.601,34.526z"/>
				<path fill="#FFFFFF" d="M47.542,20c0.522,0,1.054,0.097,1.58,0.29c0.492,0.174,0.994,0.438,1.493,0.787l-1.54,2.654
					c-0.14-0.096-0.274-0.173-0.398-0.227c-0.165-0.075-0.317-0.112-0.45-0.112c-0.253,0-0.469,0.071-0.645,0.215
					c-0.173,0.149-0.26,0.338-0.26,0.561c0,0.211,0.081,0.387,0.249,0.528c0.129,0.096,0.305,0.168,0.527,0.214v2.33h-0.089
					c-0.599,0-1.084,0.164-1.441,0.486c-0.364,0.321-0.549,0.757-0.549,1.296c0,0.489,0.155,0.899,0.462,1.22
					c0.313,0.313,0.716,0.472,1.2,0.472c0.331,0,0.601-0.073,0.8-0.215c0.225-0.153,0.344-0.361,0.344-0.602
					c0-0.222-0.095-0.403-0.272-0.52c-0.158-0.111-0.378-0.166-0.673-0.167c-0.032,0-0.062,0-0.089,0.001l1.34-2.344
					c0.19-0.039,0.372-0.066,0.558-0.084c0.204-0.025,0.412-0.038,0.618-0.038c0.225,0,0.493,0.01,0.797,0.03
					c0.322,0.02,0.534,0.03,0.636,0.03c0.386,0,0.694-0.071,0.918-0.214c0.242-0.161,0.365-0.387,0.365-0.672
					c0-0.326-0.135-0.574-0.397-0.733c-0.245-0.156-0.596-0.233-1.076-0.233c-0.111,0-0.232,0.007-0.356,0.02
					c-0.03,0.002-0.06,0.004-0.091,0.006l1.642-2.846c0.012-0.001,0.026-0.003,0.039-0.005c0.281-0.02,0.479-0.029,0.597-0.029
					c1.067,0,1.949,0.337,2.621,1.001c0.676,0.664,1.019,1.531,1.019,2.579c0,1.151-0.396,2.116-1.177,2.866
					c-0.783,0.751-1.796,1.132-3.01,1.132h-0.329c-0.048,0-0.093,0.023-0.122,0.062c-0.028,0.039-0.036,0.089-0.021,0.135
					c0.076,0.229,0.131,0.446,0.166,0.649c0.038,0.185,0.057,0.355,0.057,0.508c0,1.024-0.441,1.83-1.348,2.463
					c-0.906,0.636-2.128,0.958-3.634,0.958c-1.851,0-3.305-0.433-4.32-1.287c-1.008-0.856-1.519-2.066-1.519-3.597
					c0-0.965,0.255-1.82,0.76-2.54c0.502-0.725,1.214-1.255,2.115-1.575c0.052-0.018,0.089-0.063,0.098-0.117
					c0.009-0.054-0.013-0.109-0.056-0.142c-0.339-0.264-0.6-0.571-0.773-0.912c-0.167-0.342-0.252-0.728-0.252-1.148
					c0-0.918,0.35-1.651,1.069-2.242C45.441,20.3,46.389,20,47.542,20 M47.542,19.85c-1.195,0-2.166,0.308-2.915,0.925
					c-0.751,0.616-1.124,1.402-1.124,2.357c0,0.445,0.089,0.848,0.267,1.214c0.186,0.365,0.457,0.686,0.816,0.965
					c-0.934,0.332-1.665,0.875-2.188,1.631c-0.525,0.75-0.787,1.625-0.787,2.626c0,1.586,0.525,2.822,1.572,3.711
					c1.048,0.882,2.52,1.322,4.417,1.322c1.544,0,2.785-0.328,3.72-0.985c0.94-0.656,1.412-1.518,1.412-2.586
					c0-0.166-0.02-0.344-0.06-0.538c-0.034-0.199-0.089-0.421-0.17-0.666h0.329c1.259,0,2.298-0.391,3.114-1.174
					c0.815-0.783,1.223-1.774,1.223-2.974c0-1.094-0.355-1.99-1.064-2.686c-0.704-0.696-1.613-1.044-2.726-1.044
					c-0.12,0-0.322,0.01-0.607,0.03c-0.053,0.006-0.092,0.01-0.119,0.01l-1.831,3.173c0.132-0.02,0.259-0.033,0.378-0.039
					c0.126-0.013,0.242-0.02,0.348-0.02c0.445,0,0.776,0.069,0.995,0.209c0.219,0.133,0.328,0.334,0.328,0.607
					c0,0.232-0.099,0.414-0.298,0.547c-0.198,0.126-0.477,0.189-0.835,0.189c-0.1,0-0.309-0.01-0.626-0.03
					c-0.312-0.02-0.581-0.03-0.806-0.03c-0.213,0-0.424,0.013-0.637,0.039c-0.212,0.02-0.424,0.054-0.636,0.1l-1.512,2.645
					c0.046-0.006,0.092-0.01,0.139-0.01c0.046-0.007,0.12-0.01,0.22-0.01c0.258,0.001,0.454,0.046,0.587,0.14
					c0.139,0.093,0.208,0.225,0.208,0.398c0,0.192-0.093,0.352-0.279,0.477c-0.179,0.127-0.417,0.189-0.716,0.189
					c-0.444,0-0.808-0.143-1.093-0.428c-0.279-0.291-0.419-0.662-0.419-1.114c0-0.497,0.167-0.892,0.498-1.183
					c0.331-0.299,0.779-0.448,1.342-0.448h0.239v-2.606c-0.259-0.039-0.455-0.109-0.587-0.209c-0.125-0.106-0.189-0.241-0.189-0.408
					c0-0.179,0.07-0.329,0.208-0.448c0.146-0.119,0.328-0.179,0.547-0.179c0.113,0,0.242,0.033,0.388,0.099
					c0.152,0.067,0.322,0.169,0.507,0.309l1.691-2.915c-0.55-0.398-1.098-0.693-1.641-0.885C48.629,19.95,48.086,19.85,47.542,19.85
					L47.542,19.85z"/>
			</g>
			<g>
				<path fill-rule="evenodd" clip-rule="evenodd" fill="#FFF100" d="M88.69,14.823l6.752-0.486l-0.284,16.284l0.283,0.188
					c0.266,0.133,0.574,0.288,0.817,0.38c1.431,0.563,2.379,0.867,2.897,0.93c0.198,0.024,0.389,0.037,0.57,0.037
					c0.413,0,0.789-0.064,1.116-0.191c0.485-0.189,0.752-0.457,0.792-0.794c0.044-0.36-0.331-0.715-1.146-1.087l-0.574-0.256
					c-1.632-0.775-2.755-1.585-3.337-2.406c-0.566-0.824-0.777-1.869-0.625-3.104c0.218-1.778,1.065-3.096,2.519-3.918
					c1.083-0.62,2.439-0.935,4.033-0.935c0.557,0,1.153,0.039,1.773,0.114c0.736,0.091,1.52,0.238,2.326,0.437
					c0.8,0.197,1.655,0.449,2.542,0.749l-0.706,5.266c-0.688-0.211-1.328-0.387-1.903-0.522c-0.592-0.15-1.131-0.256-1.603-0.314
					c-0.248-0.031-0.473-0.046-0.675-0.046c-0.312,0-0.573,0.037-0.78,0.11c-0.353,0.115-0.553,0.34-0.594,0.667
					c-0.051,0.417,0.366,0.801,1.274,1.172c0.382,0.159,0.684,0.291,0.906,0.396c1.403,0.648,2.376,1.382,2.894,2.181
					c0.527,0.79,0.719,1.81,0.568,3.032c-0.229,1.856-1.109,3.256-2.617,4.16c-1.136,0.687-2.546,1.035-4.192,1.035
					c-0.534,0-1.104-0.037-1.693-0.109c-0.858-0.104-1.75-0.281-2.65-0.525c-0.694-0.19-1.441-0.435-2.22-0.726
					c-0.009-0.003-0.018-0.005-0.026-0.005c-0.015,0-0.029,0.004-0.042,0.013c-0.021,0.014-0.032,0.037-0.033,0.061l-0.035,2.094
					l-6.756,0.583L88.69,14.823z"/>
				<path fill="#FFFFFF" d="M95.366,14.418L95.084,30.62c-0.001,0.058,0.032,0.112,0.084,0.137l0.235,0.117
					c0.272,0.136,0.579,0.29,0.827,0.385c1.439,0.565,2.393,0.871,2.917,0.935c0.201,0.025,0.395,0.037,0.579,0.037
					c0.423,0,0.808-0.066,1.143-0.197c0.513-0.2,0.795-0.487,0.84-0.854c0.049-0.397-0.34-0.778-1.191-1.165
					c-0.245-0.108-0.435-0.193-0.57-0.254c-1.622-0.771-2.735-1.573-3.308-2.38c-0.556-0.809-0.762-1.837-0.613-3.053
					c0.214-1.753,1.049-3.052,2.482-3.863c1.071-0.613,2.415-0.924,3.995-0.924c0.554,0,1.148,0.038,1.764,0.114
					c0.733,0.09,1.513,0.236,2.318,0.435c0.763,0.188,1.577,0.426,2.421,0.708l-0.632,5.135c-0.657-0.2-1.269-0.367-1.82-0.496
					c-0.597-0.151-1.14-0.258-1.612-0.317c-0.25-0.031-0.48-0.046-0.684-0.046c-0.32,0-0.59,0.038-0.801,0.113
					c-0.379,0.124-0.603,0.376-0.648,0.73c-0.055,0.456,0.377,0.865,1.32,1.25c0.382,0.158,0.682,0.29,0.905,0.395
					c1.39,0.643,2.352,1.367,2.862,2.156c0.517,0.773,0.704,1.776,0.556,2.98c-0.225,1.832-1.094,3.213-2.582,4.105
					c-1.123,0.679-2.52,1.023-4.153,1.023c-0.532,0-1.098-0.036-1.684-0.109c-0.856-0.104-1.744-0.28-2.639-0.523
					c-0.696-0.191-1.44-0.434-2.213-0.724c-0.017-0.006-0.035-0.01-0.053-0.01c-0.03,0-0.059,0.009-0.084,0.026
					c-0.04,0.027-0.065,0.073-0.066,0.121l-0.034,2.026l-6.606,0.57l0.425-24.313L95.366,14.418 M95.518,14.256l-6.903,0.497
					L88.185,39.37l6.906-0.596l0.037-2.161c0.759,0.284,1.501,0.529,2.226,0.728c0.901,0.244,1.787,0.421,2.661,0.527
					c0.594,0.073,1.162,0.11,1.702,0.11c1.668,0,3.078-0.348,4.231-1.045c1.537-0.922,2.421-2.326,2.653-4.215
					c0.153-1.247-0.041-2.275-0.581-3.082c-0.527-0.815-1.503-1.552-2.923-2.208c-0.224-0.105-0.526-0.238-0.91-0.398
					c-0.864-0.353-1.274-0.717-1.228-1.093c0.037-0.297,0.218-0.499,0.545-0.606c0.199-0.07,0.45-0.105,0.754-0.105
					c0.199,0,0.421,0.015,0.666,0.045c0.464,0.058,0.995,0.161,1.594,0.313c0.599,0.141,1.26,0.323,1.983,0.547l0.668-5.434
					c-0.884-0.299-1.732-0.55-2.549-0.751c-0.816-0.201-1.594-0.347-2.335-0.438c-0.625-0.077-1.22-0.115-1.783-0.115
					c-1.613,0-2.97,0.314-4.07,0.944c-1.482,0.838-2.335,2.163-2.556,3.975c-0.155,1.259,0.057,2.311,0.638,3.157
					c0.592,0.835,1.715,1.645,3.367,2.431c0.138,0.062,0.329,0.147,0.574,0.256c0.775,0.353,1.143,0.69,1.103,1.01
					c-0.037,0.31-0.286,0.554-0.745,0.733c-0.32,0.124-0.682,0.187-1.089,0.187c-0.179,0-0.365-0.012-0.561-0.036
					c-0.509-0.062-1.468-0.371-2.88-0.926c-0.319-0.122-0.756-0.353-1.051-0.497L95.518,14.256L95.518,14.256z"/>
			</g>
			<g>
				<path fill-rule="evenodd" clip-rule="evenodd" fill="#FFF100" d="M76.267,41.208c-1.719,0-3.15-0.571-4.253-1.697
					c-1.104-1.137-1.665-2.619-1.665-4.405c0-1.693,0.576-3.084,1.713-4.134c1.148-1.061,2.664-1.599,4.506-1.599
					c0.711,0,1.405,0.105,2.063,0.313c0.669,0.198,1.331,0.509,1.968,0.926c0.013,0.008,0.026,0.012,0.041,0.012
					c0.013,0,0.024-0.003,0.036-0.009c0.023-0.013,0.039-0.039,0.039-0.066v-1.019c0-0.767-0.275-1.344-0.817-1.714
					c-0.539-0.367-1.351-0.546-2.479-0.547c-0.681,0-1.449,0.085-2.284,0.252c-0.377,0.07-0.777,0.161-1.196,0.267
					c-0.144,0.16-0.25,0.292-0.362,0.42c-1.493,1.722-3.611,2.762-6.297,3.092l-0.531,0.064l-0.31,0.005
					c-0.021,0-0.042,0.01-0.056,0.026s-0.021,0.038-0.018,0.059l0.818,6.675l-7.236,1.597l-2.904-23.651l8.241-1.013
					c0.627-0.077,1.236-0.116,1.812-0.116c2.03,0,3.762,0.486,5.147,1.446c1.786,1.228,2.848,3.126,3.157,5.645
					c0.047,0.385,0.07,0.782,0.069,1.18c0,0.021,0.01,0.042,0.026,0.057c0.014,0.012,0.031,0.019,0.049,0.019
					c0.004,0,0.008,0,0.012-0.001c0.517-0.079,1.021-0.145,1.503-0.196c1.061-0.122,2.047-0.183,2.931-0.183
					c2.705,0,4.643,0.482,5.76,1.434c1.112,0.939,1.676,2.565,1.676,4.834v11.532l-6.343,0.489v-1.889
					c0-0.029-0.018-0.056-0.044-0.068c-0.01-0.005-0.021-0.007-0.031-0.007c-0.018,0-0.035,0.006-0.049,0.018
					c-0.775,0.663-1.555,1.158-2.317,1.474C77.874,41.047,77.075,41.208,76.267,41.208z M79.054,33.246
					c-0.499,0-0.909,0.159-1.221,0.473c-0.303,0.302-0.457,0.712-0.457,1.221c0,0.519,0.153,0.941,0.456,1.254
					c0.302,0.303,0.713,0.457,1.222,0.457c0.475,0,0.88-0.165,1.204-0.49c0.325-0.325,0.49-0.736,0.49-1.221
					c0-0.508-0.16-0.919-0.475-1.222C79.964,33.405,79.553,33.246,79.054,33.246z M65.963,20.58c-0.175,0-0.358,0.012-0.551,0.036
					l-0.297,0.036c-0.021,0.002-0.038,0.012-0.05,0.028c-0.013,0.016-0.019,0.036-0.016,0.056l0.627,5.12
					c0.002,0.02,0.013,0.038,0.028,0.05c0.013,0.01,0.029,0.016,0.046,0.016c0.003,0,0.308-0.038,0.308-0.038
					c0.89-0.109,1.537-0.417,1.926-0.915c0.397-0.509,0.546-1.208,0.44-2.075c-0.104-0.845-0.414-1.47-0.925-1.858
					C67.102,20.733,66.585,20.58,65.963,20.58z"/>
				<path fill="#FFFFFF" d="M67.096,14.873v0.15c2.015,0,3.732,0.482,5.105,1.433c1.766,1.215,2.818,3.096,3.125,5.591
					c0.047,0.379,0.07,0.773,0.069,1.171c0,0.044,0.019,0.085,0.052,0.114c0.027,0.024,0.062,0.036,0.098,0.036
					c0.008,0,0.015-0.001,0.023-0.002c0.531-0.081,1.035-0.146,1.502-0.196c1.058-0.121,2.041-0.183,2.921-0.183
					c2.687,0,4.608,0.476,5.712,1.416c1.094,0.924,1.649,2.531,1.649,4.776v11.463l-6.194,0.477v-1.808
					c0-0.059-0.034-0.112-0.087-0.136c-0.02-0.009-0.041-0.014-0.063-0.014c-0.035,0-0.07,0.012-0.097,0.036
					c-0.767,0.656-1.54,1.148-2.297,1.461c-0.758,0.313-1.547,0.472-2.345,0.472c-1.698,0-3.111-0.563-4.199-1.674
					c-1.091-1.122-1.644-2.587-1.644-4.353c0-1.672,0.568-3.044,1.689-4.079c1.133-1.047,2.632-1.579,4.455-1.579
					c0.704,0,1.391,0.104,2.044,0.311c0.662,0.196,1.316,0.504,1.946,0.916c0.025,0.016,0.054,0.025,0.082,0.025
					c0.024,0,0.049-0.006,0.071-0.018c0.048-0.026,0.079-0.077,0.079-0.132v-1.018c0-0.794-0.286-1.391-0.849-1.776
					c-0.552-0.376-1.377-0.559-2.522-0.56c-0.685,0-1.459,0.086-2.297,0.254c-0.364,0.067-0.757,0.155-1.202,0.268
					c-0.033,0.008-0.061,0.027-0.082,0.054c-0.101,0.131-0.206,0.262-0.319,0.39c-1.48,1.707-3.583,2.739-6.25,3.066l-0.515,0.064
					l-0.318,0.006c-0.043,0.001-0.083,0.019-0.111,0.052c-0.028,0.032-0.041,0.074-0.036,0.117l0.811,6.608l-7.09,1.564
					l-2.885-23.494l8.167-1.003c0.624-0.077,1.23-0.115,1.802-0.115V14.873 M65.751,25.995c0.006,0,0.012,0,0.018-0.001l0.299-0.036
					c0.909-0.112,1.574-0.429,1.976-0.943c0.41-0.526,0.563-1.243,0.456-2.13c-0.106-0.866-0.427-1.509-0.953-1.909
					c-0.412-0.313-0.945-0.471-1.584-0.471c-0.177,0-0.365,0.012-0.56,0.036l-0.297,0.036c-0.039,0.005-0.075,0.025-0.1,0.056
					c-0.025,0.031-0.036,0.071-0.031,0.111l0.628,5.12C65.611,25.94,65.676,25.995,65.751,25.995 M79.054,36.725
					c0.495,0,0.919-0.172,1.258-0.512c0.34-0.339,0.512-0.768,0.512-1.274c0-0.529-0.167-0.959-0.495-1.274
					c-0.327-0.328-0.756-0.495-1.275-0.495c-0.518,0-0.947,0.167-1.274,0.495c-0.317,0.317-0.478,0.745-0.478,1.274
					c0,0.539,0.16,0.978,0.478,1.308C78.096,36.565,78.525,36.725,79.054,36.725 M67.096,14.873c-0.581,0-1.188,0.039-1.82,0.117
					l-8.316,1.022l2.923,23.807l7.384-1.629l-0.827-6.743l0.318-0.006l0.53-0.065c2.717-0.333,4.832-1.372,6.345-3.117
					c0.114-0.13,0.221-0.263,0.324-0.397c0.417-0.106,0.817-0.196,1.193-0.266c0.834-0.167,1.59-0.251,2.27-0.251
					c1.102,0.001,1.914,0.178,2.437,0.534c0.522,0.357,0.784,0.907,0.784,1.652v1.018c-0.646-0.423-1.307-0.734-1.985-0.935
					c-0.668-0.211-1.364-0.317-2.087-0.317c-1.87,0.001-3.388,0.54-4.556,1.619c-1.158,1.069-1.737,2.465-1.737,4.189
					c0,1.815,0.562,3.301,1.686,4.458c1.123,1.146,2.558,1.72,4.307,1.72c0.823,0,1.624-0.162,2.403-0.484
					c0.78-0.323,1.558-0.819,2.337-1.486v1.97l6.494-0.501V29.18c0-2.303-0.568-3.933-1.703-4.891
					c-1.136-0.967-3.072-1.452-5.809-1.452c-0.891,0-1.869,0.061-2.938,0.184c-0.484,0.051-0.988,0.118-1.507,0.197
					c0.001-0.387-0.02-0.783-0.07-1.189c-0.314-2.552-1.376-4.451-3.189-5.697C70.881,15.359,69.151,14.873,67.096,14.873
					L67.096,14.873z M65.751,25.845l-0.628-5.12l0.297-0.036c0.189-0.023,0.37-0.035,0.542-0.035c0.61,0,1.107,0.147,1.493,0.441
					c0.495,0.376,0.794,0.979,0.895,1.807c0.103,0.851-0.038,1.524-0.425,2.02c-0.379,0.484-1.003,0.779-1.876,0.886L65.751,25.845
					L65.751,25.845z M79.054,36.575c-0.49,0-0.879-0.145-1.168-0.434c-0.29-0.3-0.434-0.701-0.434-1.202
					c0-0.489,0.144-0.879,0.434-1.168c0.3-0.302,0.69-0.451,1.168-0.451c0.479,0,0.868,0.149,1.169,0.451
					c0.3,0.289,0.451,0.679,0.451,1.168c0,0.468-0.156,0.857-0.468,1.168C79.894,36.42,79.511,36.575,79.054,36.575L79.054,36.575z"
					/>
			</g>
			<g>
				<path fill-rule="evenodd" clip-rule="evenodd" fill="#FFF100" d="M15.949,22.295c-0.004-0.039-0.036-0.067-0.074-0.067
					c-0.003,0-5.514,0.58-5.514,0.58l0.896-6.899l16.059-1.631l0.703,6.674l-4.682,0.492c-0.02,0.002-0.038,0.012-0.051,0.027
					c-0.012,0.016-0.019,0.036-0.016,0.055l1.719,16.368l-7.242,1.5L15.949,22.295z"/>
				<path fill="#FFFFFF" d="M27.249,14.36l0.687,6.525l-4.607,0.484c-0.082,0.009-0.142,0.082-0.133,0.165l1.713,16.3l-7.096,1.47
					l-1.789-17.017c-0.008-0.077-0.073-0.134-0.149-0.134c-0.005,0-0.011,0-0.016,0.001l-5.412,0.569l0.869-6.688L27.249,14.36
					 M27.383,14.195l-16.2,1.703l-0.909,6.994l5.601-0.589l1.807,17.181l7.391-1.531l-1.727-16.435l4.756-0.5L27.383,14.195
					L27.383,14.195z"/>
			</g>
		</g>
	</g>
	<g>
		<path fill="#16498C" d="M102.017,16.02v-1.776h-0.531l0.167-0.706h1.577v0.706h-0.443v1.7L102.017,16.02z"/>
		<path fill="#16498C" d="M103.311,15.96l0.332-2.422h0.701l0.322,1.016l0.328-1.016h0.691l0.289,2.422l-0.766,0.051l-0.11-1.215
			l-0.453,1.289l-0.454-1.289l-0.123,1.215L103.311,15.96z"/>
	</g>
</g>
<g>
	<g>
		<path fill="none" stroke="#329129" stroke-width="0.7706" d="M14.965,58.864l-0.696-3.008h-0.016l-0.672,3.008h-1.607
			l-1.259-5.684l1.772-0.132l0.622,2.858h0.017l0.597-2.726h1.109l0.63,2.759h0.017l0.622-2.892l1.739,0.132l-1.275,5.684H14.965z"
			/>
		<path fill="none" stroke="#329129" stroke-width="0.7706" d="M19.798,52.832v2.08h0.017c0.24-0.323,0.58-0.456,0.978-0.456
			c0.82,0,1.284,0.638,1.284,1.475v2.867l-1.607,0.133v-2.701c0-0.174-0.133-0.307-0.331-0.307c-0.183,0-0.34,0.116-0.34,0.315v2.56
			L18.19,58.93v-5.966L19.798,52.832z"/>
		<path fill="none" stroke="#329129" stroke-width="0.7706" d="M27.026,58.375c-0.597,0.431-1.202,0.621-2.014,0.621
			c-1.343,0-2.295-0.986-2.295-2.179c0-1.483,1.011-2.361,2.236-2.361c0.986,0,1.74,0.547,2.097,1.383l-2.221,1.674
			c0.116,0.058,0.315,0.075,0.464,0.075c0.447,0,0.737-0.19,1.003-0.415L27.026,58.375z M25.443,55.947
			c-0.133-0.174-0.298-0.215-0.505-0.215c-0.398,0-0.672,0.373-0.672,0.746c0,0.182,0.033,0.232,0.066,0.307L25.443,55.947z"/>
		<path fill="none" stroke="#329129" stroke-width="0.7706" d="M27.618,54.588l1.508-0.132v0.82h0.017
			c0.125-0.539,0.506-0.82,1.11-0.82c0.125,0,0.257,0.008,0.382,0.025l-0.39,1.574c-0.066-0.008-0.133-0.008-0.257-0.008
			c-0.414,0-0.763,0.265-0.763,0.845v1.906l-1.607,0.133V54.588z"/>
		<path fill="none" stroke="#329129" stroke-width="0.7706" d="M35.082,58.375c-0.597,0.431-1.202,0.621-2.014,0.621
			c-1.343,0-2.295-0.986-2.295-2.179c0-1.483,1.011-2.361,2.236-2.361c0.986,0,1.74,0.547,2.097,1.383l-2.221,1.674
			c0.116,0.058,0.315,0.075,0.464,0.075c0.447,0,0.737-0.19,1.003-0.415L35.082,58.375z M33.499,55.947
			c-0.133-0.174-0.298-0.215-0.506-0.215c-0.397,0-0.671,0.373-0.671,0.746c0,0.182,0.033,0.232,0.066,0.307L33.499,55.947z"/>
		<path fill="none" stroke="#329129" stroke-width="0.7706" d="M38.091,58.93v-5.966l1.607-0.132v5.965L38.091,58.93z"/>
		<path fill="none" stroke="#329129" stroke-width="0.7706" d="M44.635,58.375c-0.597,0.431-1.202,0.621-2.014,0.621
			c-1.343,0-2.295-0.986-2.295-2.179c0-1.483,1.011-2.361,2.236-2.361c0.986,0,1.74,0.547,2.097,1.383l-2.221,1.674
			c0.116,0.058,0.315,0.075,0.464,0.075c0.447,0,0.737-0.19,1.003-0.415L44.635,58.375z M43.052,55.947
			c-0.133-0.174-0.298-0.215-0.505-0.215c-0.398,0-0.672,0.373-0.672,0.746c0,0.182,0.033,0.232,0.066,0.307L43.052,55.947z"/>
		<path fill="none" stroke="#329129" stroke-width="0.7706" d="M47.588,58.996v-0.505h-0.017c-0.265,0.373-0.695,0.505-1.176,0.505
			c-0.787,0-1.467-0.596-1.467-1.533c0-0.804,0.671-1.408,1.533-1.408c0.447,0,0.754,0.157,0.969,0.331v-0.224
			c0-0.464-0.331-0.563-0.804-0.563c-0.431,0-0.795,0.1-1.177,0.224l0.29-1.185c0.464-0.133,1.003-0.182,1.524-0.182
			c0.979,0,1.89,0.431,1.89,1.607v2.8L47.588,58.996z M47.074,57.066c-0.231,0-0.422,0.157-0.422,0.389
			c0,0.224,0.157,0.398,0.422,0.398c0.266,0,0.415-0.182,0.415-0.398C47.489,57.265,47.356,57.066,47.074,57.066z"/>
		<path fill="none" stroke="#329129" stroke-width="0.7706" d="M49.945,54.588l1.509-0.132v0.82h0.016
			c0.125-0.539,0.506-0.82,1.11-0.82c0.125,0,0.257,0.008,0.382,0.025l-0.39,1.574c-0.066-0.008-0.133-0.008-0.257-0.008
			c-0.414,0-0.763,0.265-0.763,0.845v1.906l-1.607,0.133V54.588z"/>
		<path fill="none" stroke="#329129" stroke-width="0.7706" d="M54.799,54.456v0.571h0.033c0.323-0.439,0.663-0.571,1.061-0.571
			c0.82,0,1.284,0.638,1.284,1.475v2.867l-1.607,0.133v-2.701c0-0.174-0.133-0.307-0.331-0.307c-0.183,0-0.34,0.116-0.34,0.315v2.56
			l-1.607,0.133v-4.342L54.799,54.456z"/>
		<path fill="none" stroke="#329129" stroke-width="0.7706" d="M57.809,53.437l0.961-0.953l1.036,0.937l-0.97,0.87L57.809,53.437z
			 M58,58.93v-4.275l1.607-0.133v4.275L58,58.93z"/>
		<path fill="none" stroke="#329129" stroke-width="0.7706" d="M61.934,54.456v0.571h0.033c0.323-0.439,0.663-0.571,1.061-0.571
			c0.82,0,1.284,0.638,1.284,1.475v2.867l-1.607,0.133v-2.701c0-0.174-0.133-0.307-0.331-0.307c-0.183,0-0.34,0.116-0.34,0.315v2.56
			l-1.607,0.133v-4.342L61.934,54.456z"/>
		<path fill="none" stroke="#329129" stroke-width="0.7706" d="M65.709,58.872c0.34,0.124,0.688,0.207,1.068,0.207
			c0.315,0,0.663-0.066,0.663-0.431c0-0.39-0.414-0.48-0.861-0.48c-0.257,0-0.506,0.033-0.763,0.058l0.141-0.298
			c-0.654-0.323-1.027-0.87-1.027-1.649c0-0.804,0.605-1.823,1.997-1.823c0.356,0,0.613,0.049,0.845,0.132l1.317-0.265L68.7,55.077
			c0.314,0.307,0.48,0.721,0.48,1.177c0,0.621-0.257,1.044-0.746,1.367c0.473,0.265,0.729,0.688,0.729,1.234
			c0,1.052-0.961,1.632-2.395,1.632c-0.87,0-1.426-0.19-1.781-0.307L65.709,58.872z M67.1,56.817c0.266,0,0.447-0.191,0.447-0.448
			s-0.182-0.447-0.447-0.447c-0.265,0-0.447,0.19-0.447,0.447S66.836,56.817,67.1,56.817z"/>
		<path fill="none" stroke="#329129" stroke-width="0.7706" d="M72.082,53.437l0.961-0.953l1.036,0.937l-0.97,0.87L72.082,53.437z
			 M72.272,58.93v-4.275l1.607-0.133v4.275L72.272,58.93z"/>
		<path fill="none" stroke="#329129" stroke-width="0.7706" d="M74.558,57.455c0.265,0.083,0.53,0.133,0.845,0.133
			c0.281,0,0.646,0.008,0.646-0.215c0-0.439-1.524-0.1-1.524-1.574c0-0.646,0.497-1.342,1.781-1.342
			c0.488,0,1.011,0.099,1.268,0.157v1.301c-0.24-0.058-0.473-0.1-0.746-0.1c-0.115,0-0.58,0-0.58,0.208
			c0,0.456,1.591,0.116,1.591,1.591c0,1.077-1.002,1.383-2.062,1.383c-0.406,0-0.82-0.041-1.218-0.149V57.455z"/>
		<path fill="none" stroke="#329129" stroke-width="0.7706" d="M81.049,58.93v-3.066h-0.514l0.24-1.276h0.273
			c0-1.069,0.53-1.756,1.731-1.756c0.166,0,0.29,0.025,0.439,0.05l0.19,1.226h-0.248c-0.323,0-0.506,0.182-0.506,0.48h0.638v1.276
			h-0.638v2.933L81.049,58.93z"/>
		<path fill="none" stroke="#329129" stroke-width="0.7706" d="M86.242,58.93v-0.688h-0.017c-0.19,0.547-0.639,0.754-1.202,0.754
			c-0.737,0-1.242-0.456-1.242-1.292v-3.115l1.607-0.132v2.742c0,0.24,0.107,0.332,0.34,0.332c0.198,0,0.331-0.083,0.331-0.323
			v-2.618l1.607-0.132v4.408L86.242,58.93z"/>
		<path fill="none" stroke="#329129" stroke-width="0.7706" d="M90.008,54.456v0.571h0.033c0.323-0.439,0.663-0.571,1.061-0.571
			c0.82,0,1.284,0.638,1.284,1.475v2.867l-1.607,0.133v-2.701c0-0.174-0.133-0.307-0.331-0.307c-0.183,0-0.34,0.116-0.34,0.315v2.56
			L88.5,58.93v-4.342L90.008,54.456z"/>
	</g>
	<g>
		<path fill="#FEDB14" d="M14.965,58.864l-0.696-3.008h-0.016l-0.672,3.008h-1.607l-1.259-5.684l1.772-0.132l0.622,2.858h0.017
			l0.597-2.726h1.109l0.63,2.759h0.017l0.622-2.892l1.739,0.132l-1.275,5.684H14.965z"/>
		<path fill="#FEDB14" d="M19.798,52.832v2.08h0.017c0.24-0.323,0.58-0.456,0.978-0.456c0.82,0,1.284,0.638,1.284,1.475v2.867
			l-1.607,0.133v-2.701c0-0.174-0.133-0.307-0.331-0.307c-0.183,0-0.34,0.116-0.34,0.315v2.56L18.19,58.93v-5.966L19.798,52.832z"/>
		<path fill="#FEDB14" d="M27.026,58.375c-0.597,0.431-1.202,0.621-2.014,0.621c-1.343,0-2.295-0.986-2.295-2.179
			c0-1.483,1.011-2.361,2.236-2.361c0.986,0,1.74,0.547,2.097,1.383l-2.221,1.674c0.116,0.058,0.315,0.075,0.464,0.075
			c0.447,0,0.737-0.19,1.003-0.415L27.026,58.375z M25.443,55.947c-0.133-0.174-0.298-0.215-0.505-0.215
			c-0.398,0-0.672,0.373-0.672,0.746c0,0.182,0.033,0.232,0.066,0.307L25.443,55.947z"/>
		<path fill="#FEDB14" d="M27.618,54.588l1.508-0.132v0.82h0.017c0.125-0.539,0.506-0.82,1.11-0.82c0.125,0,0.257,0.008,0.382,0.025
			l-0.39,1.574c-0.066-0.008-0.133-0.008-0.257-0.008c-0.414,0-0.763,0.265-0.763,0.845v1.906l-1.607,0.133V54.588z"/>
		<path fill="#FEDB14" d="M35.082,58.375c-0.597,0.431-1.202,0.621-2.014,0.621c-1.343,0-2.295-0.986-2.295-2.179
			c0-1.483,1.011-2.361,2.236-2.361c0.986,0,1.74,0.547,2.097,1.383l-2.221,1.674c0.116,0.058,0.315,0.075,0.464,0.075
			c0.447,0,0.737-0.19,1.003-0.415L35.082,58.375z M33.499,55.947c-0.133-0.174-0.298-0.215-0.506-0.215
			c-0.397,0-0.671,0.373-0.671,0.746c0,0.182,0.033,0.232,0.066,0.307L33.499,55.947z"/>
		<path fill="#FEDB14" d="M38.091,58.93v-5.966l1.607-0.132v5.965L38.091,58.93z"/>
		<path fill="#FEDB14" d="M44.635,58.375c-0.597,0.431-1.202,0.621-2.014,0.621c-1.343,0-2.295-0.986-2.295-2.179
			c0-1.483,1.011-2.361,2.236-2.361c0.986,0,1.74,0.547,2.097,1.383l-2.221,1.674c0.116,0.058,0.315,0.075,0.464,0.075
			c0.447,0,0.737-0.19,1.003-0.415L44.635,58.375z M43.052,55.947c-0.133-0.174-0.298-0.215-0.505-0.215
			c-0.398,0-0.672,0.373-0.672,0.746c0,0.182,0.033,0.232,0.066,0.307L43.052,55.947z"/>
		<path fill="#FEDB14" d="M47.588,58.996v-0.505h-0.017c-0.265,0.373-0.695,0.505-1.176,0.505c-0.787,0-1.467-0.596-1.467-1.533
			c0-0.804,0.671-1.408,1.533-1.408c0.447,0,0.754,0.157,0.969,0.331v-0.224c0-0.464-0.331-0.563-0.804-0.563
			c-0.431,0-0.795,0.1-1.177,0.224l0.29-1.185c0.464-0.133,1.003-0.182,1.524-0.182c0.979,0,1.89,0.431,1.89,1.607v2.8
			L47.588,58.996z M47.074,57.066c-0.231,0-0.422,0.157-0.422,0.389c0,0.224,0.157,0.398,0.422,0.398
			c0.266,0,0.415-0.182,0.415-0.398C47.489,57.265,47.356,57.066,47.074,57.066z"/>
		<path fill="#FEDB14" d="M49.945,54.588l1.509-0.132v0.82h0.016c0.125-0.539,0.506-0.82,1.11-0.82c0.125,0,0.257,0.008,0.382,0.025
			l-0.39,1.574c-0.066-0.008-0.133-0.008-0.257-0.008c-0.414,0-0.763,0.265-0.763,0.845v1.906l-1.607,0.133V54.588z"/>
		<path fill="#FEDB14" d="M54.799,54.456v0.571h0.033c0.323-0.439,0.663-0.571,1.061-0.571c0.82,0,1.284,0.638,1.284,1.475v2.867
			l-1.607,0.133v-2.701c0-0.174-0.133-0.307-0.331-0.307c-0.183,0-0.34,0.116-0.34,0.315v2.56l-1.607,0.133v-4.342L54.799,54.456z"
			/>
		<path fill="#FEDB14" d="M57.809,53.437l0.961-0.953l1.036,0.937l-0.97,0.87L57.809,53.437z M58,58.93v-4.275l1.607-0.133v4.275
			L58,58.93z"/>
		<path fill="#FEDB14" d="M61.934,54.456v0.571h0.033c0.323-0.439,0.663-0.571,1.061-0.571c0.82,0,1.284,0.638,1.284,1.475v2.867
			l-1.607,0.133v-2.701c0-0.174-0.133-0.307-0.331-0.307c-0.183,0-0.34,0.116-0.34,0.315v2.56l-1.607,0.133v-4.342L61.934,54.456z"
			/>
		<path fill="#FEDB14" d="M65.709,58.872c0.34,0.124,0.688,0.207,1.068,0.207c0.315,0,0.663-0.066,0.663-0.431
			c0-0.39-0.414-0.48-0.861-0.48c-0.257,0-0.506,0.033-0.763,0.058l0.141-0.298c-0.654-0.323-1.027-0.87-1.027-1.649
			c0-0.804,0.605-1.823,1.997-1.823c0.356,0,0.613,0.049,0.845,0.132l1.317-0.265L68.7,55.077c0.314,0.307,0.48,0.721,0.48,1.177
			c0,0.621-0.257,1.044-0.746,1.367c0.473,0.265,0.729,0.688,0.729,1.234c0,1.052-0.961,1.632-2.395,1.632
			c-0.87,0-1.426-0.19-1.781-0.307L65.709,58.872z M67.1,56.817c0.266,0,0.447-0.191,0.447-0.448s-0.182-0.447-0.447-0.447
			c-0.265,0-0.447,0.19-0.447,0.447S66.836,56.817,67.1,56.817z"/>
		<path fill="#FEDB14" d="M72.082,53.437l0.961-0.953l1.036,0.937l-0.97,0.87L72.082,53.437z M72.272,58.93v-4.275l1.607-0.133
			v4.275L72.272,58.93z"/>
		<path fill="#FEDB14" d="M74.558,57.455c0.265,0.083,0.53,0.133,0.845,0.133c0.281,0,0.646,0.008,0.646-0.215
			c0-0.439-1.524-0.1-1.524-1.574c0-0.646,0.497-1.342,1.781-1.342c0.488,0,1.011,0.099,1.268,0.157v1.301
			c-0.24-0.058-0.473-0.1-0.746-0.1c-0.115,0-0.58,0-0.58,0.208c0,0.456,1.591,0.116,1.591,1.591c0,1.077-1.002,1.383-2.062,1.383
			c-0.406,0-0.82-0.041-1.218-0.149V57.455z"/>
		<path fill="#FEDB14" d="M81.049,58.93v-3.066h-0.514l0.24-1.276h0.273c0-1.069,0.53-1.756,1.731-1.756
			c0.166,0,0.29,0.025,0.439,0.05l0.19,1.226h-0.248c-0.323,0-0.506,0.182-0.506,0.48h0.638v1.276h-0.638v2.933L81.049,58.93z"/>
		<path fill="#FEDB14" d="M86.242,58.93v-0.688h-0.017c-0.19,0.547-0.639,0.754-1.202,0.754c-0.737,0-1.242-0.456-1.242-1.292
			v-3.115l1.607-0.132v2.742c0,0.24,0.107,0.332,0.34,0.332c0.198,0,0.331-0.083,0.331-0.323v-2.618l1.607-0.132v4.408L86.242,58.93
			z"/>
		<path fill="#FEDB14" d="M90.008,54.456v0.571h0.033c0.323-0.439,0.663-0.571,1.061-0.571c0.82,0,1.284,0.638,1.284,1.475v2.867
			l-1.607,0.133v-2.701c0-0.174-0.133-0.307-0.331-0.307c-0.183,0-0.34,0.116-0.34,0.315v2.56L88.5,58.93v-4.342L90.008,54.456z"/>
	</g>
</g>
</svg>
