<?xml version="1.0" encoding="iso-8859-1"?>
<!-- Generator: Adobe Illustrator 28.6.0, SVG Export Plug-In . SVG Version: 9.03 Build 54939)  -->
<svg version="1.1" id="Layer_1" xmlns="http://www.w3.org/2000/svg" xmlns:xlink="http://www.w3.org/1999/xlink" x="0px" y="0px"
	 width="60.706px" height="77.471px" viewBox="0 0 60.706 77.471" enable-background="new 0 0 60.706 77.471" xml:space="preserve">
<g>
	<g>
		
			<path fill-rule="evenodd" clip-rule="evenodd" fill="#FFF200" stroke="#231F20" stroke-width="0.3" stroke-miterlimit="3.8637" d="
			M17.554,49.47l-2.213-2.346c6.913-4.29,8.803-9.058,9.072-12.026l1.281,2.497C25.568,42.694,21.252,46.933,17.554,49.47z"/>
		<g>
			
				<path fill-rule="evenodd" clip-rule="evenodd" fill="#F8BE63" stroke="#231F20" stroke-width="0.3" stroke-miterlimit="3.8637" d="
				M16.955,50.727c0.23,0.73,0.508,1.115-0.183,2.826c-0.071,0.48,0.736,3.036,1.456,4.024c0.135,0.173,0.577,0.78,0.296,1.193
				c-0.349,0.433-0.674,0.58-1.561,0.165c-0.847-0.703-1.31-1.758-1.387-3.165c-0.317-0.026-0.627,0.097-0.931,0.367
				c-0.386,1.545-0.242,3.118,0.431,4.72c0.012,0.177-0.105,0.284-0.353,0.319c-0.611,0.155-1.172-0.134-1.682-0.867
				c-0.7-1.131-0.72-2.676,0.028-4.674c-0.293-0.239-0.546-0.344-0.761-0.317c-1.278,1.387-1.299,3.922-1.553,4.002
				c-0.238,0.453-1.323-0.013-1.521-1.023c-0.314-1.419,0.157-2.824,1.413-4.216c0.392-0.655,0.313-1.625-0.037-2.306
				c-0.23-0.26-0.626-0.212-1.047-0.106c-1.011,0.291-1.471,1.082-3.066,0.389c-1.06-0.501-1.626-2.354-0.104-3.491
				c0.259-0.174,0.614,0.067,0.723,0.176c0.933,1.269,1.93,1.438,2.784,0.87c1.153-1.039,1.367-1.434,1.989-1.678
				C13.963,47.118,16.303,48.654,16.955,50.727z"/>
			
				<path fill-rule="evenodd" clip-rule="evenodd" fill="#F8BE63" stroke="#231F20" stroke-width="0.3" stroke-linecap="round" stroke-linejoin="round" stroke-miterlimit="3.8637" d="
				M13.594,47.714c-0.11-0.391,0.718-0.845,1.047-0.891c0.778-0.107,2.517,0.5,2.944,2.482c0.227,0.922-0.148,1.429-0.543,1.742
				C16.576,49.504,15.231,48.299,13.594,47.714z"/>
			<g>
				
					<path fill-rule="evenodd" clip-rule="evenodd" fill="none" stroke="#231F20" stroke-width="0.3" stroke-linecap="round" stroke-miterlimit="3.8637" d="
					M14.207,49.126c-1.687,1.36-1.435,4.152,0.678,4.79"/>
				<path fill-rule="evenodd" clip-rule="evenodd" fill="none" d="M14.207,49.126c-1.687,1.36-1.435,4.152,0.678,4.79"/>
			</g>
		</g>
	</g>
	<path fill-rule="evenodd" clip-rule="evenodd" fill="#FFF200" stroke="#231F20" stroke-width="0.3" stroke-miterlimit="3.8637" d="
		M44.988,43.851c-0.828-0.039-1.882-0.101-2.518-0.524c-0.227,2.866-1.723,5.17-2.86,5.423c-1.199,0.266-1.868-3.453-3.156-8.5
		c-0.069-0.034,0.278,7.911,0.582,8.195C38.17,53.199,42.935,52.206,44.988,43.851z"/>
	<g>
		
			<path fill-rule="evenodd" clip-rule="evenodd" fill="#F8BE63" stroke="#231F20" stroke-width="0.3" stroke-miterlimit="3.8637" d="
			M44.793,47.434c-1.808,2.882-6.499-0.111-3.533-1.699c-0.059-0.368-0.129-0.642,0.014-0.861c-0.511-0.456-0.618-0.949-0.629-1.489
			c0.124-1.643,0.956-2.182,1.297-2.908c0.247-0.979,0.41-1.021,0.306-2.292c-0.064-1.042-0.709-1.906-0.266-2.251
			c0.737-0.928,2.19-0.067,2.638,0.593c0.769,1.544-0.756,3.251-0.855,3.793c-0.019,0.313,0.09,0.567,0.355,0.523
			c0.712-0.214,2.89-1.81,4.235-0.8c0.48,0.27,0.239,1.328-0.395,2.162c0.415,0.093,0.731,0.277,0.769,0.603
			c0.039,0.685-0.532,1.428-1.711,2.229c0.22,0.094,0.346,0.248,0.378,0.463c0.031,0.332-0.145,0.611-0.529,0.836
			C46.438,46.84,45.747,47.206,44.793,47.434z"/>
		<path fill-rule="evenodd" clip-rule="evenodd" fill="none" stroke="#231F20" stroke-width="0.3" stroke-miterlimit="3.8637" d="
			M43.71,47.251c-1.003,0.491-1.957,0.007-2.447-1.501"/>
		<path fill-rule="evenodd" clip-rule="evenodd" fill="none" stroke="#231F20" stroke-width="0.3" stroke-miterlimit="3.8637" d="
			M41.872,45.297c-0.166-0.081-0.38-0.193-0.593-0.419"/>
		<path fill-rule="evenodd" clip-rule="evenodd" fill="none" stroke="#231F20" stroke-width="0.3" stroke-miterlimit="3.8637" d="
			M44.775,47.44c-0.998,0.008-1.573-0.343-1.678-1.003c-0.065-0.513,0.315-0.827,0.997-1.012c0.688,0.224,1.61,0.074,2.91-0.379"/>
		<path fill-rule="evenodd" clip-rule="evenodd" fill="none" stroke="#231F20" stroke-width="0.3" stroke-miterlimit="3.8637" d="
			M43.962,43.942c-0.754,0.553-0.708,1.045,0.14,1.478"/>
		<path fill-rule="evenodd" clip-rule="evenodd" fill="none" stroke="#231F20" stroke-width="0.3" stroke-miterlimit="3.8637" d="
			M47.954,42.216c-0.972,0.936-2.297,1.507-3.975,1.713c-1.01-0.114-1.719-0.91-0.7-1.586c1.242-0.956,2.494-1.346,3.754-1.173"/>
	</g>
	<g>
		
			<path fill-rule="evenodd" clip-rule="evenodd" fill="#5599D3" stroke="#231F20" stroke-width="0.3" stroke-linecap="round" stroke-miterlimit="3.8637" d="
			M44.271,36.957c0.787-0.007,0.873-0.159,1.783-0.369c-0.029,1.115,0.19,3.325,0.135,4.534c-0.338-0.054-1.436,0.317-1.893,0.543
			C44.367,40.377,44.382,39.827,44.271,36.957z"/>
		<path fill-rule="evenodd" clip-rule="evenodd" fill="#5599D3" d="M44.271,36.957c0.787-0.007,0.873-0.159,1.783-0.369
			c-0.029,1.115,0.19,3.325,0.135,4.534c-0.338-0.054-1.436,0.317-1.893,0.543C44.367,40.377,44.382,39.827,44.271,36.957z"/>
	</g>
	<g>
		
			<path fill-rule="evenodd" clip-rule="evenodd" fill="#78B0DF" stroke="#231F20" stroke-width="0.3" stroke-miterlimit="3.8637" d="
			M37.714,28.391c-0.248-5.636,2.558-10.335,6.268-10.497c3.71-0.162,6.918,4.275,7.167,9.911
			c0.248,5.636-2.558,10.335-6.267,10.498C41.171,38.464,37.962,34.027,37.714,28.391z"/>
		
			<path fill-rule="evenodd" clip-rule="evenodd" fill="#5599D3" stroke="#231F20" stroke-width="0.2377" stroke-miterlimit="3.8637" d="
			M39.523,28.468c-0.224-5.099,2.116-9.342,5.228-9.478c3.112-0.136,5.817,3.887,6.042,8.985c0.225,5.099-2.116,9.342-5.229,9.478
			C42.452,37.589,39.747,33.566,39.523,28.468z"/>
		
			<linearGradient id="SVGID_1_" gradientUnits="userSpaceOnUse" x1="1746.6129" y1="-1509.458" x2="1757.0508" y2="-1508.7281" gradientTransform="matrix(0.9935 -0.1134 0.1134 0.9935 -1524.3077 1726.118)">
			<stop  offset="0" style="stop-color:#5B95CF"/>
			<stop  offset="0.9922" style="stop-color:#FFFFFF"/>
			<stop  offset="1" style="stop-color:#FFFFFF"/>
		</linearGradient>
		
			<path fill-rule="evenodd" clip-rule="evenodd" fill="url(#SVGID_1_)" stroke="#231F20" stroke-width="0.2377" stroke-miterlimit="3.8637" d="
			M39.78,28.404c-0.202-4.59,1.974-8.413,4.86-8.539c2.887-0.126,5.39,3.492,5.593,8.082c0.202,4.59-1.974,8.413-4.86,8.539
			C42.485,36.613,39.982,32.994,39.78,28.404z"/>
		<path fill-rule="evenodd" clip-rule="evenodd" fill="#FFFFFF" d="M46.636,21.782c0.075,0.058,0.28-0.011,0.28-0.011
			c2.401,3.197,2.752,7.138,1.722,11.438l-0.15-0.023C48.975,28.018,48.65,25.354,46.636,21.782z"/>
	</g>
	<g>
		<g>
			<path fill-rule="evenodd" clip-rule="evenodd" fill="#FFF200" d="M36.728,67.64c0.117,0.205,3.546,4.029,5.83,6.171
				c-0.694-2.6-1.374-5.19-1.966-7.806C39.728,67.424,37.424,67.813,36.728,67.64z"/>
			
				<path fill-rule="evenodd" clip-rule="evenodd" fill="#231F20" stroke="#231F20" stroke-width="0.3" stroke-miterlimit="3.8637" d="
				M36.728,67.64c0.117,0.205,3.546,4.029,5.83,6.171c-0.694-2.6-1.374-5.19-1.966-7.806C39.728,67.424,37.424,67.813,36.728,67.64z
				"/>
		</g>
		<g>
			<path fill-rule="evenodd" clip-rule="evenodd" fill="#FFF200" d="M40.626,66.037l-2.212-11.163
				c-1.948,2.201-5.019,3.364-8.813,2.387c0,0,4.441,7.188,7.326,10.613C36.927,67.874,39.669,67.55,40.626,66.037z"/>
			
				<path fill-rule="evenodd" clip-rule="evenodd" fill="#C69437" stroke="#231F20" stroke-width="0.3" stroke-miterlimit="3.8637" d="
				M40.626,66.037l-2.212-11.163c-1.948,2.201-5.019,3.364-8.813,2.387c0,0,4.441,7.188,7.326,10.613
				C36.927,67.874,39.669,67.55,40.626,66.037z"/>
		</g>
		
			<path fill-rule="evenodd" clip-rule="evenodd" fill="#FFF200" stroke="#231F20" stroke-width="0.3" stroke-miterlimit="3.8637" d="
			M38.452,54.885c-2.249,2.458-5.24,3.211-8.867,2.405c-5.766-10.165-9.21-22.76-10.297-36.481l16.238-0.547
			C35.597,31.858,36.507,43.568,38.452,54.885z"/>
		<g>
			<path fill-rule="evenodd" clip-rule="evenodd" fill="#FFF200" d="M18.954,15.993c-0.446,0.05,0.345,0.898-0.146,4.38
				c0.083,0.321,0.215,0.525,0.487,0.779c4.593,2.939,15.677,1.465,16.839-1.307c0.083-0.189-0.046-0.38-0.112-0.557
				c-0.117-1.191,0.15-3.305,0.15-3.305c0.009-0.19-0.256-0.264-0.256-0.264S19.217,15.801,18.954,15.993z"/>
			
				<path fill-rule="evenodd" clip-rule="evenodd" fill="#EFD765" stroke="#231F20" stroke-width="0.3" stroke-miterlimit="3.8637" d="
				M18.954,15.993c-0.446,0.05,0.345,0.898-0.146,4.38c0.083,0.321,0.215,0.525,0.487,0.779c4.593,2.939,15.677,1.465,16.839-1.307
				c0.083-0.189-0.046-0.38-0.112-0.557c-0.117-1.191,0.15-3.305,0.15-3.305c0.009-0.19-0.256-0.264-0.256-0.264
				S19.217,15.801,18.954,15.993z"/>
		</g>
		<g>
			<path fill-rule="evenodd" clip-rule="evenodd" fill="#FFF200" d="M18.939,6.794c-0.023-1.218,3.803-2.289,8.547-2.393
				c4.744-0.104,8.608,0.8,8.632,2.018c0,0.019,0,0.037-0.002,0.056c-0.093,1.195-3.874,2.235-8.546,2.337
				c-4.657,0.102-8.466-0.767-8.627-1.951C18.941,6.838,18.939,6.816,18.939,6.794z M36.116,6.474
				c1.009,3.34-0.331,9.481-0.331,9.481c-1.625,2.279-15.015,3.542-16.726,0.208c0,0-0.963-5.918-0.116-9.303
				c0.16,1.184,3.97,2.053,8.627,1.951C32.242,8.709,36.023,7.669,36.116,6.474z"/>
			
				<path fill-rule="evenodd" clip-rule="evenodd" fill="#F37D81" stroke="#231F20" stroke-width="0.3" stroke-miterlimit="3.8637" d="
				M18.939,6.794c-0.023-1.218,3.803-2.289,8.547-2.393c4.744-0.104,8.608,0.8,8.632,2.018c0,0.019,0,0.037-0.002,0.056
				c-0.093,1.195-3.874,2.235-8.546,2.337c-4.657,0.102-8.466-0.767-8.627-1.951C18.941,6.838,18.939,6.816,18.939,6.794z
				 M36.116,6.474c1.009,3.34-0.331,9.481-0.331,9.481c-1.625,2.279-15.015,3.542-16.726,0.208c0,0-0.963-5.918-0.116-9.303
				c0.16,1.184,3.97,2.053,8.627,1.951C32.242,8.709,36.023,7.669,36.116,6.474z"/>
		</g>
	</g>
	
		<path fill-rule="evenodd" clip-rule="evenodd" fill="none" stroke="#231F20" stroke-width="0.3" stroke-linecap="round" stroke-miterlimit="3.8637" d="
		M32.864,46.057c-1.568,1.679-5.807-0.577-5.329-6.88"/>
	<g>
		<g>
			
				<path fill-rule="evenodd" clip-rule="evenodd" fill="none" stroke="#231F20" stroke-width="0.3" stroke-linecap="round" stroke-miterlimit="3.8637" d="
				M28.052,24.211c-1.559-1.015-2.833-0.165-3.822,2.549"/>
			
				<path fill-rule="evenodd" clip-rule="evenodd" fill="none" stroke="#231F20" stroke-width="0.3" stroke-linecap="round" stroke-miterlimit="3.8637" d="
				M30.804,23.712c1.777-0.97,3.021-0.415,3.731,1.666"/>
			<g>
				<g>
					<path fill-rule="evenodd" clip-rule="evenodd" fill="#FFF200" d="M29.316,29.367c0.177-1.689,1.698-2.914,3.397-2.735
						c1.699,0.179,2.932,1.693,2.754,3.383c-0.177,1.689-1.698,2.914-3.397,2.735C30.372,32.571,29.139,31.057,29.316,29.367z"/>
					
						<path fill-rule="evenodd" clip-rule="evenodd" fill="#FFFFFF" stroke="#231F20" stroke-width="0.3" stroke-miterlimit="3.8637" d="
						M29.316,29.367c0.177-1.689,1.698-2.914,3.397-2.735c1.699,0.179,2.932,1.693,2.754,3.383
						c-0.177,1.689-1.698,2.914-3.397,2.735C30.372,32.571,29.139,31.057,29.316,29.367z"/>
				</g>
				<g>
					<path fill-rule="evenodd" clip-rule="evenodd" fill="#FFF200" d="M24.788,30.188c0.177-1.689,1.698-2.914,3.397-2.735
						s2.932,1.693,2.754,3.382c-0.177,1.689-1.698,2.914-3.397,2.735C25.843,33.391,24.61,31.877,24.788,30.188z"/>
					
						<path fill-rule="evenodd" clip-rule="evenodd" fill="#FFFFFF" stroke="#231F20" stroke-width="0.3" stroke-miterlimit="3.8637" d="
						M24.788,30.188c0.177-1.689,1.698-2.914,3.397-2.735s2.932,1.693,2.754,3.382c-0.177,1.689-1.698,2.914-3.397,2.735
						C25.843,33.391,24.61,31.877,24.788,30.188z"/>
				</g>
			</g>
			
				<path fill-rule="evenodd" clip-rule="evenodd" fill="none" stroke="#231F20" stroke-width="0.3" stroke-linecap="round" stroke-miterlimit="3.8637" d="
				M28.78,33.665c3.81-1.477,5.688-0.8,5.68,0.875c-0.019,3.68-7.975,4.258-6.096,0.415"/>
		</g>
		<g>
			
				<path fill-rule="evenodd" clip-rule="evenodd" fill="#231F20" stroke="#231F20" stroke-width="0.3" stroke-miterlimit="3.8637" d="
				M28.922,30.876c0.042-0.403,0.403-0.695,0.806-0.653c0.403,0.042,0.695,0.403,0.653,0.806c-0.042,0.403-0.403,0.695-0.806,0.653
				C29.172,31.64,28.88,31.279,28.922,30.876z"/>
		</g>
		<g>
			
				<path fill-rule="evenodd" clip-rule="evenodd" fill="#231F20" stroke="#231F20" stroke-width="0.3" stroke-miterlimit="3.8637" d="
				M33.291,29.985c0.042-0.403,0.403-0.695,0.806-0.653c0.403,0.042,0.695,0.403,0.653,0.806c-0.042,0.403-0.403,0.695-0.806,0.653
				C33.541,30.749,33.249,30.388,33.291,29.985z"/>
		</g>
	</g>
	<g>
		<g>
			<path fill-rule="evenodd" clip-rule="evenodd" fill="#FFF200" d="M31.721,39.92c-0.596,1.241-2.441,3.327-0.208,6.654
				c-2.168,0.026-4.201-2.77-4.006-7.406C28.794,39.935,30.289,40.179,31.721,39.92z"/>
			
				<path fill-rule="evenodd" clip-rule="evenodd" fill="#E7212A" stroke="#231F20" stroke-width="0.3" stroke-miterlimit="3.8637" d="
				M31.721,39.92c-0.596,1.241-2.441,3.327-0.208,6.654c-2.168,0.026-4.201-2.77-4.006-7.406
				C28.794,39.935,30.289,40.179,31.721,39.92z"/>
		</g>
		
			<path fill-rule="evenodd" clip-rule="evenodd" fill="none" stroke="#231F20" stroke-width="0.3" stroke-linecap="round" stroke-miterlimit="3.8637" d="
			M27.359,37.348c-1.018,0.574-1.492,1.413-1.421,2.516"/>
		
			<path fill-rule="evenodd" clip-rule="evenodd" fill="none" stroke="#231F20" stroke-width="0.3" stroke-linecap="round" stroke-miterlimit="3.8637" d="
			M26.571,37.986c0.701,2.421,6.586,2.737,7.204,0.204"/>
		
			<path fill-rule="evenodd" clip-rule="evenodd" fill="none" stroke="#231F20" stroke-width="0.3" stroke-linecap="round" stroke-miterlimit="3.8637" d="
			M29.859,48.158c1.332,1.188,2.717,0.502,2.978,0.099"/>
		<g>
			<path fill-rule="evenodd" clip-rule="evenodd" fill="#FFF200" d="M27.443,39.147c0.876,1.869,3.683,2.735,4.805,0.603
				C30.608,40.226,29.039,40.029,27.443,39.147z"/>
			
				<path fill-rule="evenodd" clip-rule="evenodd" fill="#FFFFFF" stroke="#231F20" stroke-width="0.3" stroke-miterlimit="3.8637" d="
				M27.443,39.147c0.876,1.869,3.683,2.735,4.805,0.603C30.608,40.226,29.039,40.029,27.443,39.147z"/>
		</g>
		<g>
			<path fill-rule="evenodd" clip-rule="evenodd" fill="#FFF200" d="M31.521,46.594c-0.606-0.01-1.218-0.239-1.838-0.686
				c-0.513-0.483-0.886-0.97-1.121-1.461c0.966-0.045,1.731,0.141,2.223,0.635C31.028,45.326,31.329,45.771,31.521,46.594z"/>
			
				<path fill-rule="evenodd" clip-rule="evenodd" fill="#F8B6C8" stroke="#231F20" stroke-width="0.3" stroke-miterlimit="3.8637" d="
				M31.521,46.594c-0.606-0.01-1.218-0.239-1.838-0.686c-0.513-0.483-0.886-0.97-1.121-1.461c0.966-0.045,1.731,0.141,2.223,0.635
				C31.028,45.326,31.329,45.771,31.521,46.594z"/>
		</g>
	</g>
</g>
</svg>
