<svg width="111" height="122" viewBox="0 0 111 122" fill="none" xmlns="http://www.w3.org/2000/svg">
<path fill-rule="evenodd" clip-rule="evenodd" d="M66.597 67.1246L54.6211 56.4869C90.7905 36.4848 100.295 14.5444 101.403 0.932397L108.457 12.3087C108.334 35.6772 85.9193 55.3155 66.597 67.1246Z" fill="#FFF200" stroke="#231F20" stroke-width="0.3" stroke-miterlimit="3.8637"/>
<path fill-rule="evenodd" clip-rule="evenodd" d="M62.8006 72.9004C64.1077 76.2431 65.6261 77.9993 62.181 85.8874C61.8646 88.095 66.4501 99.799 70.3818 104.305C71.1174 105.094 73.5311 107.863 72.0952 109.772C70.302 111.776 68.6005 112.465 63.8559 110.597C59.2874 107.405 56.7074 102.58 56.1263 96.1215C54.4458 96.0158 52.8206 96.5942 51.2454 97.8474C49.3937 104.96 50.3497 112.178 54.1085 119.506C54.1938 120.319 53.5879 120.815 52.28 120.987C49.0662 121.725 46.0621 120.422 43.2731 117.078C39.4296 111.914 39.1331 104.819 42.8444 95.6103C41.2646 94.5254 39.9129 94.0541 38.7786 94.1875C32.1876 100.613 32.3893 112.257 31.0552 112.635C29.8518 114.726 24.0533 112.633 22.8809 108.003C21.0444 101.499 23.3631 95.026 29.8372 88.5784C31.8305 85.5531 31.2928 81.1016 29.3568 77.9891C28.1077 76.805 26.0183 77.0426 23.8038 77.5478C18.4902 78.9281 16.1539 82.581 7.62875 79.4675C1.95817 77.2125 -1.26537 68.7268 6.64761 63.4387C7.99658 62.6283 9.90472 63.7198 10.4949 64.2157C15.5883 70.0033 20.8845 70.7362 25.3332 68.0904C31.3058 63.2685 32.3894 61.4451 35.6504 60.2975C46.5237 56.4551 59.0948 63.408 62.8006 72.9004Z" fill="#F8BE63" stroke="#231F20" stroke-width="0.3" stroke-miterlimit="3.8637"/>
<path fill-rule="evenodd" clip-rule="evenodd" d="M45.0528 59.253C44.4226 57.4622 48.7473 55.3413 50.4822 55.1157C54.5851 54.5906 63.8605 57.3027 66.3642 66.3863C67.6789 70.6106 65.7575 72.9553 63.7063 74.4099C61.0505 67.344 53.7858 61.8685 45.0528 59.253Z" fill="#F8BE63" stroke="#231F20" stroke-width="0.3" stroke-miterlimit="3.8637" stroke-linecap="round" stroke-linejoin="round"/>
<path d="M48.2228 65.7205C39.6722 72.0135 41.3621 84.7915 52.3945 87.6334" stroke="#231F20" stroke-width="0.3" stroke-miterlimit="3.8637" stroke-linecap="round"/>
</svg>
