<svg width="111" height="124" viewBox="0 0 111 124" fill="none" xmlns="http://www.w3.org/2000/svg">
<path fill-rule="evenodd" clip-rule="evenodd" d="M66.597 69.1246L54.6211 58.4869C90.7905 38.4848 100.295 16.5444 101.403 2.9324L108.457 14.3087C108.334 37.6772 85.9193 57.3155 66.597 69.1246Z" fill="#FFF200" stroke="#231F20" stroke-width="1.5" stroke-miterlimit="3.8637"/>
<path fill-rule="evenodd" clip-rule="evenodd" d="M62.8006 74.9004C64.1077 78.2431 65.6261 79.9993 62.181 87.8874C61.8646 90.095 66.4501 101.799 70.3818 106.305C71.1174 107.094 73.5311 109.863 72.0952 111.772C70.302 113.776 68.6005 114.465 63.8559 112.597C59.2874 109.405 56.7074 104.58 56.1263 98.1215C54.4458 98.0158 52.8206 98.5942 51.2454 99.8474C49.3937 106.96 50.3497 114.178 54.1085 121.506C54.1938 122.319 53.5879 122.815 52.28 122.987C49.0662 123.725 46.0621 122.422 43.2731 119.078C39.4296 113.914 39.1331 106.819 42.8444 97.6103C41.2646 96.5254 39.9129 96.0541 38.7786 96.1875C32.1876 102.613 32.3893 114.257 31.0552 114.635C29.8518 116.726 24.0533 114.633 22.8809 110.003C21.0444 103.499 23.3631 97.026 29.8372 90.5784C31.8305 87.5531 31.2928 83.1016 29.3568 79.9891C28.1077 78.805 26.0183 79.0426 23.8038 79.5478C18.4902 80.9281 16.1539 84.581 7.62875 81.4675C1.95817 79.2125 -1.26537 70.7268 6.64761 65.4387C7.99658 64.6283 9.90472 65.7198 10.4949 66.2157C15.5883 72.0033 20.8845 72.7362 25.3332 70.0904C31.3058 65.2685 32.3894 63.4451 35.6504 62.2975C46.5237 58.4551 59.0948 65.408 62.8006 74.9004Z" fill="#F8BE63" stroke="#231F20" stroke-width="1.5" stroke-miterlimit="3.8637"/>
<path fill-rule="evenodd" clip-rule="evenodd" d="M45.0528 61.253C44.4226 59.4622 48.7473 57.3413 50.4822 57.1157C54.5851 56.5906 63.8605 59.3027 66.3642 68.3863C67.6789 72.6106 65.7575 74.9553 63.7063 76.4099C61.0505 69.344 53.7858 63.8685 45.0528 61.253Z" fill="#F8BE63" stroke="#231F20" stroke-width="1.5" stroke-miterlimit="3.8637" stroke-linecap="round" stroke-linejoin="round"/>
<path d="M48.2228 67.7205C39.6722 74.0135 41.3621 86.7915 52.3945 89.6334" stroke="#231F20" stroke-width="1.5" stroke-miterlimit="3.8637" stroke-linecap="round"/>
</svg>
