<svg width="165" height="321" viewBox="0 0 165 321" fill="none" xmlns="http://www.w3.org/2000/svg">
<path fill-rule="evenodd" clip-rule="evenodd" d="M142.381 177.268C137.973 177.137 132.36 176.915 128.937 175.016C127.994 188.145 120.248 198.776 114.223 200C107.869 201.287 103.967 184.307 96.6496 161.284C96.2794 161.133 98.8584 197.472 100.502 198.754C106.973 220.445 132.23 215.623 142.381 177.268Z" fill="#FFF200" stroke="#231F20" stroke-width="0.3" stroke-miterlimit="3.8637"/>
<path fill-rule="evenodd" clip-rule="evenodd" d="M141.856 193.69C132.592 206.981 107.439 193.508 122.971 186.085C122.62 184.403 122.22 183.151 122.953 182.141C120.2 180.078 119.581 177.825 119.465 175.352C119.946 167.821 124.293 165.31 126.021 161.968C127.224 157.471 128.082 157.271 127.396 151.454C126.946 146.685 123.439 142.76 125.748 141.157C129.551 136.87 137.334 140.741 139.777 143.741C144.012 150.775 136.121 158.67 135.655 161.157C135.588 162.592 136.192 163.75 137.59 163.535C141.337 162.519 152.696 155.1 159.925 159.658C162.494 160.871 161.332 165.729 158.064 169.581C160.271 169.986 161.964 170.813 162.199 172.304C162.479 175.44 159.535 178.872 153.379 182.6C154.554 183.019 155.237 183.718 155.43 184.701C155.629 186.221 154.727 187.507 152.719 188.557C150.501 190.887 146.882 192.598 141.856 193.69Z" fill="#F8BE63" stroke="#231F20" stroke-width="0.3" stroke-miterlimit="3.8637"/>
<path d="M135.922 192.9C130.641 195.206 125.516 193.031 122.749 186.127" stroke="#231F20" stroke-width="0.3" stroke-miterlimit="3.8637"/>
<path d="M125.963 184.069C125.072 183.705 123.922 183.202 122.766 182.174" stroke="#231F20" stroke-width="0.3" stroke-miterlimit="3.8637"/>
<path d="M141.664 193.683C136.356 193.77 133.259 192.185 132.63 189.156C132.229 186.8 134.217 185.338 137.825 184.453C141.509 185.448 146.397 184.712 153.264 182.564" stroke="#231F20" stroke-width="0.3" stroke-miterlimit="3.8637"/>
<path d="M136.978 177.724C133.058 180.292 133.353 182.542 137.874 184.481" stroke="#231F20" stroke-width="0.3" stroke-miterlimit="3.8637"/>
<path d="M158.129 169.604C153.057 173.96 146.067 176.654 137.159 177.686C131.773 177.213 127.914 173.586 133.264 170.424C139.771 165.963 146.392 164.105 153.115 164.838" stroke="#231F20" stroke-width="0.3" stroke-miterlimit="3.8637"/>
<path fill-rule="evenodd" clip-rule="evenodd" d="M138.115 145.759C142.259 145.688 142.696 144.988 147.466 143.981C147.431 149.085 148.818 159.186 148.657 164.721C146.871 164.491 141.128 166.243 138.745 167.3C138.983 161.403 139.003 158.886 138.115 145.759Z" fill="#5599D3" stroke="#231F20" stroke-width="0.3" stroke-miterlimit="3.8637" stroke-linecap="round"/>
<path fill-rule="evenodd" clip-rule="evenodd" d="M138.115 145.759C142.259 145.688 142.696 144.988 147.466 143.981C147.431 149.085 148.818 159.186 148.657 164.721C146.871 164.491 141.128 166.243 138.745 167.3C138.983 161.403 139.003 158.886 138.115 145.759Z" fill="#5599D3"/>
<path fill-rule="evenodd" clip-rule="evenodd" d="M102.121 290.69C102.763 291.625 121.332 309.017 133.651 318.744C129.669 306.847 125.762 294.996 122.316 283.022C117.93 289.569 105.816 291.453 102.121 290.69Z" fill="#FFF200"/>
<path fill-rule="evenodd" clip-rule="evenodd" d="M102.121 290.69C102.763 291.625 121.332 309.017 133.651 318.744C129.669 306.847 125.762 294.996 122.316 283.022C117.93 289.569 105.816 291.453 102.121 290.69Z" fill="#231F20" stroke="#231F20" stroke-width="0.3" stroke-miterlimit="3.8637"/>
<path fill-rule="evenodd" clip-rule="evenodd" d="M122.645 283.444L109.582 232.307C99.5569 242.493 83.4692 247.965 63.2974 243.646C63.2974 243.646 87.6521 276.442 103.321 292.036C103.321 292.036 117.773 290.43 122.645 283.444Z" fill="#FFF200"/>
<path fill-rule="evenodd" clip-rule="evenodd" d="M122.645 283.444L109.582 232.307C99.5569 242.493 83.4692 247.965 63.2974 243.646C63.2974 243.646 87.6521 276.442 103.321 292.036C103.321 292.036 117.773 290.43 122.645 283.444Z" fill="#C69437" stroke="#231F20" stroke-width="0.3" stroke-miterlimit="3.8637"/>
<path fill-rule="evenodd" clip-rule="evenodd" d="M110.166 232.722C98.5432 244.087 82.8185 247.685 63.5676 244.177C32.0199 197.931 12.4838 140.444 5.28262 77.6843L91.0272 74.3646C92.6341 127.447 98.6864 181.01 110.166 232.722Z" fill="#FFF200" stroke="#231F20" stroke-width="0.3" stroke-miterlimit="3.8637"/>
<path fill-rule="evenodd" clip-rule="evenodd" d="M3.11327 55.6408C0.747308 55.8918 5.05907 59.7814 2.8774 75.917C3.35847 77.3989 4.08572 78.3372 5.56375 79.5007C30.3553 92.8998 89.1257 85.591 94.9638 72.7116C95.3819 71.8333 94.6722 70.9551 94.2994 70.1389C93.5301 64.6323 94.6892 54.8374 94.6892 54.8374C94.7136 53.9577 93.295 53.6269 93.295 53.6269C93.295 53.6269 4.48839 54.7407 3.11327 55.6408Z" fill="#FFF200"/>
<path fill-rule="evenodd" clip-rule="evenodd" d="M3.11327 55.6408C0.747308 55.8918 5.05907 59.7814 2.8774 75.917C3.35847 77.3989 4.08572 78.3372 5.56375 79.5007C30.3553 92.8998 89.1257 85.591 94.9638 72.7116C95.3819 71.8333 94.6722 70.9551 94.2994 70.1389C93.5301 64.6323 94.6892 54.8374 94.6892 54.8374C94.7136 53.9577 93.295 53.6269 93.295 53.6269C93.295 53.6269 4.48839 54.7407 3.11327 55.6408Z" fill="#EFD765" stroke="#231F20" stroke-width="0.3" stroke-miterlimit="3.8637"/>
<path fill-rule="evenodd" clip-rule="evenodd" d="M2.38891 13.6569C2.11669 8.05469 22.2722 2.96084 47.4149 2.27553C72.5575 1.59022 93.1582 5.58046 93.4357 11.1827C93.438 11.2701 93.4403 11.3529 93.432 11.4404C93.0863 16.9419 73.1655 21.8912 48.4044 22.5641C23.7229 23.2364 3.41817 19.4048 2.41839 13.965C2.40495 13.8593 2.39162 13.7581 2.38891 13.6569ZM93.432 11.4404C99.1943 26.7616 92.8463 55.0664 92.8463 55.0664C84.5108 65.6215 13.665 72.0157 4.18102 56.7526C4.18102 56.7526 -1.65531 29.5742 2.41839 13.965C3.41287 19.4049 23.7228 23.2318 48.4043 22.5595C73.1654 21.8865 93.0863 16.9419 93.432 11.4404Z" fill="#FFF200"/>
<path fill-rule="evenodd" clip-rule="evenodd" d="M2.38891 13.6569C2.11669 8.05469 22.2722 2.96084 47.4149 2.27553C72.5575 1.59022 93.1582 5.58046 93.4357 11.1827C93.438 11.2701 93.4403 11.3529 93.432 11.4404C93.0863 16.9419 73.1655 21.8912 48.4044 22.5641C23.7229 23.2364 3.41817 19.4048 2.41839 13.965C2.40495 13.8593 2.39162 13.7581 2.38891 13.6569ZM93.432 11.4404C99.1943 26.7616 92.8463 55.0664 92.8463 55.0664C84.5108 65.6215 13.665 72.0157 4.18102 56.7526C4.18102 56.7526 -1.65531 29.5742 2.41839 13.965C3.41287 19.4049 23.7228 23.2318 48.4043 22.5595C73.1654 21.8865 93.0863 16.9419 93.432 11.4404Z" fill="#F37D81"/>
<path d="M93.432 11.4404C93.4403 11.3529 93.438 11.2701 93.4357 11.1827C93.1582 5.58046 72.5575 1.59022 47.4149 2.27553C22.2722 2.96084 2.11669 8.05469 2.38891 13.6569C2.39162 13.7581 2.40495 13.8593 2.41839 13.965M93.432 11.4404C93.0863 16.9419 73.1655 21.8912 48.4044 22.5641C23.7229 23.2364 3.41817 19.4048 2.41839 13.965M93.432 11.4404C99.1943 26.7616 92.8463 55.0664 92.8463 55.0664C84.5108 65.6215 13.665 72.0157 4.18102 56.7526C4.18102 56.7526 -1.65531 29.5742 2.41839 13.965M93.432 11.4404C93.0863 16.9419 73.1654 21.8866 48.4043 22.5595C23.7228 23.2318 3.41287 19.4049 2.41839 13.965" stroke="#231F20" stroke-width="0.3" stroke-miterlimit="3.8637"/>
<path d="M79.7116 192.501C71.5269 200.275 48.773 190.198 50.7339 161.328" stroke="#231F20" stroke-width="0.3" stroke-miterlimit="3.8637" stroke-linecap="round"/>
<path d="M52.1944 92.9791C43.8028 88.3776 37.1529 92.3433 32.2445 104.872" stroke="#231F20" stroke-width="0.3" stroke-miterlimit="3.8637" stroke-linecap="round"/>
<path d="M66.975 90.4287C76.2928 85.8781 82.9686 88.3832 86.9973 97.9486" stroke="#231F20" stroke-width="0.3" stroke-miterlimit="3.8637" stroke-linecap="round"/>
<path fill-rule="evenodd" clip-rule="evenodd" d="M59.6874 116.319C60.3442 108.537 68.1381 102.847 77.0945 103.615C86.0508 104.383 92.7746 111.313 92.1127 119.1C91.4559 126.882 83.662 132.572 74.7057 131.804C65.7546 131.036 59.0308 124.106 59.6874 116.319Z" fill="#FFF200"/>
<path fill-rule="evenodd" clip-rule="evenodd" d="M59.6874 116.319C60.3442 108.537 68.1381 102.847 77.0945 103.615C86.0508 104.383 92.7746 111.313 92.1127 119.1C91.4559 126.882 83.662 132.572 74.7057 131.804C65.7546 131.036 59.0308 124.106 59.6874 116.319Z" fill="white" stroke="#231F20" stroke-width="0.3" stroke-miterlimit="3.8637"/>
<path fill-rule="evenodd" clip-rule="evenodd" d="M35.5883 120.378C36.2451 112.596 44.039 106.905 52.9954 107.674C61.9518 108.442 68.6755 115.371 68.0135 123.153C67.3567 130.936 59.5628 136.626 50.6064 135.857C41.65 135.089 34.9263 128.16 35.5883 120.378Z" fill="#FFF200"/>
<path fill-rule="evenodd" clip-rule="evenodd" d="M35.5883 120.378C36.2451 112.596 44.039 106.905 52.9954 107.674C61.9518 108.442 68.6755 115.371 68.0135 123.153C67.3567 130.936 59.5628 136.626 50.6064 135.857C41.65 135.089 34.9263 128.16 35.5883 120.378Z" fill="white" stroke="#231F20" stroke-width="0.3" stroke-miterlimit="3.8637"/>
<path d="M56.9548 136C76.9793 129.037 87.0234 132.071 87.1881 139.779C87.5424 156.715 45.4176 159.721 54.908 141.954" stroke="#231F20" stroke-width="0.3" stroke-miterlimit="3.8637" stroke-linecap="round"/>
<path fill-rule="evenodd" clip-rule="evenodd" d="M57.5075 123.339C57.68 121.486 59.5545 120.129 61.6925 120.305C63.8305 120.48 65.4205 122.126 65.248 123.979C65.0754 125.832 63.2009 127.189 61.0629 127.013C58.9249 126.838 57.3349 125.192 57.5075 123.339Z" fill="#231F20" stroke="#231F20" stroke-width="0.3" stroke-miterlimit="3.8637"/>
<path fill-rule="evenodd" clip-rule="evenodd" d="M80.7525 118.972C80.925 117.119 82.7995 115.762 84.9376 115.938C87.0756 116.113 88.6655 117.758 88.493 119.611C88.3205 121.464 86.446 122.821 84.308 122.646C82.1699 122.471 80.58 120.825 80.7525 118.972Z" fill="#231F20" stroke="#231F20" stroke-width="0.3" stroke-miterlimit="3.8637"/>
<path fill-rule="evenodd" clip-rule="evenodd" d="M72.8451 164.501C69.8615 170.214 60.4105 179.855 72.5655 195.005C61.163 195.218 50.1252 182.493 50.5834 161.238C57.4482 164.697 65.3432 165.75 72.8451 164.501Z" fill="#FFF200"/>
<path fill-rule="evenodd" clip-rule="evenodd" d="M72.8451 164.501C69.8615 170.214 60.4105 179.855 72.5655 195.005C61.163 195.218 50.1252 182.493 50.5834 161.238C57.4482 164.697 65.3432 165.75 72.8451 164.501Z" fill="#E7212A" stroke="#231F20" stroke-width="0.3" stroke-miterlimit="3.8637"/>
<path d="M49.5816 153.035C44.2591 155.715 41.8418 159.58 42.3349 164.627" stroke="#231F20" stroke-width="0.3" stroke-miterlimit="3.8637" stroke-linecap="round"/>
<path d="M45.4957 155.88C49.4913 167.058 80.886 168.224 83.9072 156.46" stroke="#231F20" stroke-width="0.3" stroke-miterlimit="3.8637" stroke-linecap="round"/>
<path d="M63.8486 202.205C71.0762 207.656 78.385 204.399 79.7329 202.514" stroke="#231F20" stroke-width="0.3" stroke-miterlimit="3.8637" stroke-linecap="round"/>
<path fill-rule="evenodd" clip-rule="evenodd" d="M50.2412 161.134C55.1323 169.751 70.1712 173.638 75.8759 163.716C67.2109 165.992 58.8402 165.149 50.2412 161.134Z" fill="#FFF200"/>
<path fill-rule="evenodd" clip-rule="evenodd" d="M50.2412 161.134C55.1323 169.751 70.1712 173.638 75.8759 163.716C67.2109 165.992 58.8402 165.149 50.2412 161.134Z" fill="white" stroke="#231F20" stroke-width="0.3" stroke-miterlimit="3.8637"/>
<path fill-rule="evenodd" clip-rule="evenodd" d="M72.5941 195.069C69.3785 195.05 66.1039 194.023 62.76 191.992C59.9792 189.792 57.9404 187.566 56.6332 185.317C61.7515 185.068 65.8323 185.891 68.5031 188.143C69.8222 189.255 71.4739 191.29 72.5941 195.069Z" fill="#FFF200"/>
<path fill-rule="evenodd" clip-rule="evenodd" d="M72.5941 195.069C69.3785 195.05 66.1039 194.023 62.76 191.992C59.9792 189.792 57.9404 187.566 56.6332 185.317C61.7515 185.068 65.8323 185.891 68.5031 188.143C69.8222 189.255 71.4739 191.29 72.5941 195.069Z" fill="#F8B6C8" stroke="#231F20" stroke-width="0.3" stroke-miterlimit="3.8637"/>
</svg>
